{
.formatVersion = 3;
date = "2012-04-08 15:30:00 +0000";
familyName = Armata;
fontMaster = (
{
customParameters = (
{
name = typoAscender;
value = 2000;
},
{
name = typoDescender;
value = -560;
},
{
name = typoLineGap;
value = 0;
},
{
name = winAscent;
value = 2000;
},
{
name = winDescent;
value = 560;
},
{
name = hheaAscender;
value = 2000;
},
{
name = hheaDescender;
value = -560;
},
{
name = hheaLineGap;
value = 0;
}
);
id = "d8941333-dd91-4113-af16-e7b241417dfa";
metricValues = (
{
},
{
pos = -67;
},
{
pos = 118;
},
{
pos = 1638;
},
{
pos = -410;
},
{
pos = 1434;
},
{
pos = 1331;
},
{
},
{
pos = 287;
},
{
pos = 1434;
},
{
pos = 1331;
},
{
},
{
pos = 977;
},
{
pos = 118;
},
{
pos = 512;
}
);
name = Regular;
visible = 1;
}
);
glyphs = (
{
glyphname = .notdef;
layers = (
{
layerId = "d8941333-dd91-4113-af16-e7b241417dfa";
name = Fore;
shapes = (
{
closed = 1;
nodes = (
(1362,1530,l),
(1362,0,l),
(172,0,l),
(172,1530,l)
);
},
{
closed = 1;
nodes = (
(764,648,l),
(1135,280,l),
(1232,376,l),
(862,746,l),
(1238,1122,l),
(1144,1216,l),
(768,841,l),
(392,1216,l),
(295,1118,l),
(671,743,l),
(300,372,l),
(395,279,l)
);
}
);
width = 1534;
}
);
},
{
category = Letter;
glyphname = exclam;
layers = (
{
layerId = "d8941333-dd91-4113-af16-e7b241417dfa";
name = Fore;
shapes = (
{
closed = 1;
nodes = (
(352,1530,l),
(328,412,l),
(197,412,l),
(164,1530,l)
);
},
{
closed = 1;
nodes = (
(148,73,o),
(148,112.5,q),
(148,152,o),
(153.5,177,q),
(159,202,o),
(172,216,q),
(196,242,o),
(248,242,q),
(300,242,o),
(322.5,236.5,q),
(345,231,o),
(358,216,q),
(381,191,o),
(381,113,q),
(381,35,o),
(363,14,q),
(335,-19,o),
(265,-19,q),
(195,-19,o),
(176.5,1.5,q),
(158,22,o),
(153,47.5,q)
);
}
);
width = 512;
}
);
unicode = 33;
},
{
category = Letter;
glyphname = quotedbl;
layers = (
{
layerId = "d8941333-dd91-4113-af16-e7b241417dfa";
name = Fore;
shapes = (
{
closed = 1;
nodes = (
(399,1805,l),
(378,1193,l),
(234,1193,l),
(213,1805,l)
);
},
{
closed = 1;
nodes = (
(812,1805,l),
(791,1193,l),
(647,1193,l),
(626,1805,l)
);
}
);
width = 1026;
}
);
unicode = 34;
},
{
category = Letter;
glyphname = numbersign;
layers = (
{
layerId = "d8941333-dd91-4113-af16-e7b241417dfa";
name = Fore;
shapes = (
{
closed = 1;
nodes = (
(133,391,l),
(133,507,l),
(385,507,l),
(494,936,l),
(242,936,l),
(242,1052,l),
(523,1052,l),
(615,1414,l),
(757,1414,l),
(665,1052,l),
(1042,1052,l),
(1134,1414,l),
(1276,1414,l),
(1183,1052,l),
(1398,1052,l),
(1398,936,l),
(1153,936,l),
(1044,507,l),
(1289,507,l),
(1289,391,l),
(1014,391,l),
(927,48,l),
(788,48,l),
(875,391,l),
(497,391,l),
(410,48,l),
(269,48,l),
(356,391,l)
);
},
{
closed = 1;
nodes = (
(1013,936,l),
(635,936,l),
(526,507,l),
(904,507,l)
);
}
);
width = 1532;
}
);
unicode = 35;
},
{
category = Letter;
glyphname = dollar;
layers = (
{
layerId = "d8941333-dd91-4113-af16-e7b241417dfa";
name = Fore;
shapes = (
{
closed = 1;
nodes = (
(782,1408,o),
(623,1408,q),
(614,1408,l),
(424,1408,o),
(353,1339,q),
(294,1282,o),
(294,1138,q),
(294,1134,l),
(294,981,o),
(384,930,q),
(445,897,o),
(602.5,872,q),
(760,847,o),
(837,829.5,q),
(914,812,o),
(968,772,q),
(1080,688,o),
(1080,453,q),
(1080,429,l),
(1080,117,o),
(837,34,q),
(762,9,o),
(672,2,q),
(672,-270,l),
(522,-270,l),
(522,2,l),
(257,18,o),
(85,121,q),
(151,261,l),
(378,141,o),
(595,141,q),
(847,141,o),
(890,302,q),
(904,355,o),
(904,424,q),
(904,453,l),
(904,523,o),
(894,566,q),
(884,609,o),
(852,636,q),
(800,681,o),
(606,711,q),
(433,738,o),
(367,762,q),
(301,786,o),
(258.5,814.5,q),
(216,843,o),
(186,886,q),
(124,976,o),
(124,1109.5,q),
(124,1243,o),
(151,1319,q),
(178,1395,o),
(229,1444,q),
(326,1535,o),
(522,1548,q),
(522,1799,l),
(672,1799,l),
(672,1548,l),
(883,1539,o),
(1028,1476,q),
(976,1324,l)
);
}
);
width = 1194;
}
);
unicode = 36;
},
{
category = Letter;
glyphname = percent;
layers = (
{
layerId = "d8941333-dd91-4113-af16-e7b241417dfa";
name = Fore;
shapes = (
{
closed = 1;
nodes = (
(311,772,o),
(244,793.5,q),
(177,815,o),
(138,862,q),
(69,944,o),
(69,1158,q),
(69,1372,o),
(140,1454,q),
(218,1545,o),
(426,1545,q),
(632,1545,o),
(704,1454,q),
(765,1376,o),
(765,1164,q),
(765,946,o),
(690,860,q),
(613,772,o),
(413,772,q)
);
},
{
closed = 1;
nodes = (
(1437,1530,l),
(577,0,l),
(417,0,l),
(1275,1530,l)
);
},
{
closed = 1;
nodes = (
(357,892,o),
(415.5,892,q),
(474,892,o),
(511,904,q),
(548,916,o),
(570,948,q),
(609,1007,o),
(609,1178,q),
(609,1323,o),
(572,1374,q),
(535,1426,o),
(425,1426,q),
(305,1426,o),
(263,1374,q),
(222,1323,o),
(222,1207,q),
(222,1091,o),
(230,1036,q),
(238,981,o),
(259.5,949,q),
(281,917,o),
(319,904.5,q)
);
},
{
closed = 1;
nodes = (
(1106,582,o),
(1177,664,q),
(1255,755,o),
(1463,755,q),
(1669,755,o),
(1740,664,q),
(1802,586,o),
(1802,373,q),
(1802,156,o),
(1728,70,q),
(1650,-18,o),
(1452,-18,q),
(1250,-18,o),
(1175,72,q),
(1106,154,o),
(1106,367,q)
);
},
{
closed = 1;
nodes = (
(1259,301,o),
(1267,246,q),
(1275,191,o),
(1296,159,q),
(1335,102,o),
(1454,102,q),
(1569,102,o),
(1606,158,q),
(1646,217,o),
(1646,387,q),
(1646,533,o),
(1610,584,q),
(1572,636,o),
(1462,636,q),
(1342,636,o),
(1300,584,q),
(1259,533,o),
(1259,380,q)
);
}
);
width = 1875;
}
);
unicode = 37;
},
{
category = Letter;
glyphname = ampersand;
layers = (
{
layerId = "d8941333-dd91-4113-af16-e7b241417dfa";
name = Fore;
shapes = (
{
closed = 1;
nodes = (
(872,-19,o),
(625,-19,q),
(435,-19,o),
(340,67,q),
(231,166,o),
(231,384,q),
(231,581,o),
(290,675,q),
(340,755,o),
(474,813,q),
(386,856,o),
(353,901,q),
(285,992,o),
(285,1149,q),
(285,1548,o),
(743,1548,q),
(962,1548,o),
(1143,1474,q),
(1090,1328,l),
(994,1378,o),
(846,1403,q),
(792,1412,o),
(726,1412,q),
(660,1412,o),
(605.5,1401.5,q),
(551,1391,o),
(518,1360,q),
(454,1303,o),
(454,1126,q),
(454,923,o),
(614,876,q),
(662,862,o),
(715,862,q),
(1037,862,l),
(1080,1126,l),
(1196,1126,l),
(1196,862,l),
(1490,862,l),
(1494,834,o),
(1494,798,q),
(1494,761,o),
(1490,733,q),
(1196,733,l),
(1196,306,l),
(1196,188,o),
(1207,161,q),
(1218,134,o),
(1236,125,q),
(1254,116,o),
(1286,116,q),
(1382,116,o),
(1491,169,q),
(1538,52,l),
(1416,-19,o),
(1252,-19,q),
(1167,-19,o),
(1119,20.5,q),
(1071,60,o),
(1058,127,q)
);
},
{
closed = 1;
nodes = (
(405,543,o),
(405,446.5,q),
(405,350,o),
(415,288,q),
(425,226,o),
(452,187,q),
(503,113,o),
(648,113,q),
(872,113,o),
(1037,253,q),
(1037,733,l),
(712,733,l),
(569,733,o),
(514.5,697,q),
(460,661,o),
(432.5,602,q)
);
}
);
width = 1703;
}
);
unicode = 38;
},
{
category = Letter;
glyphname = quotesingle;
layers = (
{
layerId = "d8941333-dd91-4113-af16-e7b241417dfa";
name = Fore;
shapes = (
{
closed = 1;
nodes = (
(349,1805,l),
(328,1193,l),
(184,1193,l),
(163,1805,l)
);
}
);
width = 513;
}
);
unicode = 39;
},
{
category = Letter;
glyphname = parenleft;
layers = (
{
layerId = "d8941333-dd91-4113-af16-e7b241417dfa";
name = Fore;
shapes = (
{
closed = 1;
nodes = (
(422,1518,o),
(367,1055,q),
(293,428,o),
(539,-37,q),
(586,-126,o),
(650,-211,q),
(545,-289,l),
(424,-168,o),
(326,62,q),
(196,368,o),
(196,754,q),
(196,1299,o),
(383,1699,q),
(445,1832,o),
(523,1930,q),
(634,1857,l)
);
}
);
width = 851;
}
);
unicode = 40;
},
{
category = Letter;
glyphname = parenright;
layers = (
{
layerId = "d8941333-dd91-4113-af16-e7b241417dfa";
name = Fore;
shapes = (
{
closed = 1;
nodes = (
(425,123,o),
(480,586,q),
(554,1213,o),
(308,1678,q),
(261,1767,o),
(197,1852,q),
(302,1930,l),
(423,1809,o),
(521,1579,q),
(651,1273,o),
(651,887,q),
(651,342,o),
(464,-58,q),
(402,-191,o),
(324,-289,q),
(213,-216,l)
);
}
);
width = 852;
}
);
unicode = 41;
},
{
category = Letter;
glyphname = asterisk;
layers = (
{
layerId = "d8941333-dd91-4113-af16-e7b241417dfa";
name = Fore;
shapes = (
{
closed = 1;
nodes = (
(501,1281,l),
(109,1259,l),
(109,1419,l),
(502,1392,l),
(270,1717,l),
(421,1801,l),
(596,1448,l),
(773,1806,l),
(914,1723,l),
(695,1390,l),
(1087,1417,l),
(1087,1257,l),
(695,1280,l),
(917,960,l),
(775,876,l),
(600,1226,l),
(425,869,l),
(282,953,l)
);
}
);
width = 1195;
}
);
unicode = 42;
},
{
category = Letter;
glyphname = plus;
layers = (
{
layerId = "d8941333-dd91-4113-af16-e7b241417dfa";
name = Fore;
shapes = (
{
closed = 1;
nodes = (
(694,806,l),
(694,1320,l),
(836,1320,l),
(836,806,l),
(1351,806,l),
(1351,673,l),
(836,673,l),
(836,138,l),
(694,138,l),
(694,673,l),
(180,673,l),
(180,806,l)
);
}
);
width = 1533;
}
);
unicode = 43;
},
{
category = Letter;
glyphname = comma;
layers = (
{
layerId = "d8941333-dd91-4113-af16-e7b241417dfa";
name = Fore;
shapes = (
{
closed = 1;
nodes = (
(227,242,o),
(248,242,q),
(287,242,l),
(317,242,o),
(334.5,233.5,q),
(352,225,o),
(352,207,q),
(352,182,o),
(344,147,q),
(213,-376,l),
(81,-376,l),
(171,238,l),
(203,240,l)
);
}
);
width = 512;
}
);
unicode = 44;
},
{
category = Letter;
glyphname = hyphen;
layers = (
{
layerId = "d8941333-dd91-4113-af16-e7b241417dfa";
name = Fore;
shapes = (
{
closed = 1;
nodes = (
(848,713,l),
(848,568,l),
(177,568,l),
(177,713,l)
);
}
);
width = 1026;
}
);
unicode = 45;
},
{
category = Letter;
glyphname = period;
layers = (
{
layerId = "d8941333-dd91-4113-af16-e7b241417dfa";
name = Fore;
shapes = (
{
closed = 1;
nodes = (
(139,73,o),
(139,112.5,q),
(139,152,o),
(144.5,177,q),
(150,202,o),
(164,216,q),
(187,242,o),
(239,242,q),
(291,242,o),
(313.5,236.5,q),
(336,231,o),
(349,216,q),
(372,191,o),
(372,113,q),
(372,35,o),
(354,14,q),
(326,-19,o),
(256,-19,q),
(186,-19,o),
(167.5,1.5,q),
(149,22,o),
(144,47.5,q)
);
}
);
width = 512;
}
);
unicode = 46;
},
{
category = Letter;
glyphname = slash;
layers = (
{
layerId = "d8941333-dd91-4113-af16-e7b241417dfa";
name = Fore;
shapes = (
{
closed = 1;
nodes = (
(838,1826,l),
(155,-114,l),
(10,-114,l),
(689,1826,l)
);
}
);
width = 854;
}
);
unicode = 47;
},
{
category = Letter;
glyphname = zero;
layers = (
{
layerId = "d8941333-dd91-4113-af16-e7b241417dfa";
name = Fore;
shapes = (
{
closed = 1;
nodes = (
(382,-20,o),
(287,204,q),
(231,335,o),
(227,550,q),
(225,651,o),
(225,764,q),
(225,824,l),
(225,1092,o),
(247,1197,q),
(269,1302,o),
(302.5,1363.5,q),
(336,1425,o),
(392,1466,q),
(505,1550,o),
(733,1550,q),
(795,1550,l),
(1038,1550,o),
(1154,1468,q),
(1298,1365,o),
(1308,1043,q),
(1311,943,o),
(1311,824,q),
(1311,764,l),
(1311,486,o),
(1292.5,378.5,q),
(1274,271,o),
(1242,201,q),
(1210,131,o),
(1152,82,q),
(1033,-20,o),
(795,-20,q),
(733,-20,l)
);
},
{
closed = 1;
nodes = (
(901,129,o),
(967.5,153,q),
(1034,177,o),
(1071.5,237,q),
(1109,297,o),
(1122,399.5,q),
(1135,502,o),
(1135,659,q),
(1135,824,l),
(1135,977,o),
(1129,1086,q),
(1123,1195,o),
(1091.5,1264,q),
(1060,1333,o),
(993,1365.5,q),
(926,1398,o),
(805,1398,q),
(721,1398,l),
(504,1398,o),
(445,1262,q),
(408,1175,o),
(404,1049.5,q),
(400,924,o),
(400,824,q),
(400,659,l),
(400,355,o),
(464,246,q),
(534,129,o),
(733,129,q),
(793,129,l)
);
}
);
width = 1534;
}
);
unicode = 48;
},
{
category = Letter;
glyphname = one;
layers = (
{
layerId = "d8941333-dd91-4113-af16-e7b241417dfa";
name = Fore;
shapes = (
{
closed = 1;
nodes = (
(120,1358,l),
(106,1496,l),
(532,1550,l),
(532,0,l),
(362,0,l),
(362,1387,l)
);
}
);
width = 858;
}
);
unicode = 49;
},
{
category = Letter;
glyphname = two;
layers = (
{
layerId = "d8941333-dd91-4113-af16-e7b241417dfa";
name = Fore;
shapes = (
{
closed = 1;
nodes = (
(805,1405,o),
(570,1405,q),
(447,1405,o),
(296,1336,q),
(253,1316,o),
(221,1294,q),
(155,1433,l),
(261,1515,o),
(468,1543,q),
(526,1551,o),
(607.5,1551,q),
(689,1551,o),
(768,1525.5,q),
(847,1500,o),
(896,1454,q),
(989,1368,o),
(989,1210,q),
(989,1032,o),
(862,820,q),
(757,647,o),
(611,466,q),
(346,146,l),
(1008,146,l),
(1008,0,l),
(146,0,l),
(134,129,l),
(209,210,o),
(287,304,q),
(552,635,o),
(677,824,q),
(805,1025,o),
(805,1191,q)
);
}
);
width = 1196;
}
);
unicode = 50;
},
{
category = Letter;
glyphname = three;
layers = (
{
layerId = "d8941333-dd91-4113-af16-e7b241417dfa";
name = Fore;
shapes = (
{
closed = 1;
nodes = (
(1007,416,l),
(1000,180,o),
(852,72,q),
(727,-20,o),
(511,-20,q),
(278,-20,o),
(98,60,q),
(146,210,l),
(352,125,o),
(564,125,q),
(825,125,o),
(825,438,q),
(825,455,l),
(825,709,o),
(640,733,q),
(586,740,o),
(529.5,740,q),
(473,740,o),
(422,737,q),
(323,731,l),
(310,861,l),
(499,908,o),
(629,1003,q),
(770,1106,o),
(768.5,1212.5,q),
(767,1319,o),
(710.5,1363.5,q),
(654,1408,o),
(527,1407,q),
(356,1407,o),
(198,1324,q),
(146,1472,l),
(302,1546,o),
(543,1550,q),
(739,1552,o),
(846,1464,q),
(945,1381,o),
(947,1238,q),
(950,1027,o),
(728,918,q),
(662,886,o),
(589,859,q),
(591,850,l),
(826,854,o),
(919,761,q),
(1008,672,o),
(1008,459,q)
);
}
);
width = 1195;
}
);
unicode = 51;
},
{
category = Letter;
glyphname = four;
layers = (
{
layerId = "d8941333-dd91-4113-af16-e7b241417dfa";
name = Fore;
shapes = (
{
closed = 1;
nodes = (
(752,1530,l),
(1029,1530,l),
(1029,527,l),
(1203,527,l),
(1203,397,l),
(1029,382,l),
(1029,0,l),
(861,0,l),
(861,382,l),
(141,382,l),
(141,499,l)
);
},
{
closed = 1;
nodes = (
(860,1408,l),
(346,527,l),
(861,527,l)
);
}
);
width = 1366;
}
);
unicode = 52;
},
{
category = Letter;
glyphname = five;
layers = (
{
layerId = "d8941333-dd91-4113-af16-e7b241417dfa";
name = Fore;
shapes = (
{
closed = 1;
nodes = (
(370,124,o),
(576,124,q),
(731,124,o),
(792,222,q),
(848,310,o),
(848,512,q),
(848,690,o),
(790,764,q),
(729,841,o),
(579,841,q),
(508,841,o),
(421,830,q),
(334,819,o),
(224,807,q),
(224,1530,l),
(981,1530,l),
(981,1385,l),
(386,1385,l),
(386,950,l),
(500,968,l),
(559,977,o),
(656,977,q),
(753,977,o),
(826,945.5,q),
(899,914,o),
(942,858,q),
(1018,758,o),
(1022,549,q),
(1022,498,l),
(1022,216,o),
(902,95,q),
(787,-20,o),
(539,-20,q),
(308,-20,o),
(118,59,q),
(167,206,l)
);
}
);
width = 1196;
}
);
unicode = 53;
},
{
category = Letter;
glyphname = six;
layers = (
{
layerId = "d8941333-dd91-4113-af16-e7b241417dfa";
name = Fore;
shapes = (
{
closed = 1;
nodes = (
(905,1407,o),
(707,1407,q),
(625,1407,o),
(564.5,1392,q),
(504,1377,o),
(465,1330,q),
(386,1234,o),
(390,958,q),
(391,851,l),
(507,929,o),
(676,956,q),
(734,965,o),
(809,965,q),
(884,965,o),
(948,949.5,q),
(1012,934,o),
(1055.5,906,q),
(1099,878,o),
(1125,839,q),
(1151,800,o),
(1164,752,q),
(1186,676,o),
(1186,536,q),
(1186,442,l),
(1186,241,o),
(1110,133,q),
(1003,-20,o),
(721,-20,q),
(450,-20,o),
(333,88,q),
(218,195,o),
(218,433,q),
(218,961,l),
(219,1109,o),
(240,1219.5,q),
(261,1330,o),
(320,1404,q),
(436,1550,o),
(754,1550,q),
(941,1550,o),
(1072,1512,q),
(1110,1501,o),
(1130,1489,q),
(1080,1336,l)
);
},
{
closed = 1;
nodes = (
(391,285,o),
(439,215,q),
(498,128,o),
(682,128,q),
(739,128,l),
(904,128,o),
(962,202,q),
(1013,267,o),
(1013,443,q),
(1013,500,l),
(1013,697,o),
(968,756,q),
(943,790,o),
(898,802,q),
(853,814,o),
(783,814,q),
(755,814,l),
(548,814,o),
(391,724,q),
(391,483,l)
);
}
);
width = 1366;
}
);
unicode = 54;
},
{
category = Letter;
glyphname = seven;
layers = (
{
layerId = "d8941333-dd91-4113-af16-e7b241417dfa";
name = Fore;
shapes = (
{
closed = 1;
nodes = (
(645,800,o),
(388,0,q),
(212,0,l),
(334,373,o),
(441,638,q),
(620,1066,l),
(765,1385,l),
(78,1385,l),
(78,1530,l),
(944,1530,l),
(944,1397,l)
);
}
);
width = 1024;
}
);
unicode = 55;
},
{
category = Letter;
glyphname = eight;
layers = (
{
layerId = "d8941333-dd91-4113-af16-e7b241417dfa";
name = Fore;
shapes = (
{
closed = 1;
nodes = (
(203,633,o),
(364,738,q),
(425,778,o),
(517,810,q),
(278,884,o),
(237,1068,q),
(224,1126,o),
(224,1194,q),
(224,1208,l),
(224,1389,o),
(356,1474,q),
(473,1550,o),
(687,1550,q),
(701,1550,l),
(928,1550,o),
(1030,1476,q),
(1141,1396,o),
(1141,1211,q),
(1141,1195,l),
(1141,993,o),
(985,892,q),
(932,857,o),
(860,828,q),
(1027,769,o),
(1096,679,q),
(1168,586,o),
(1168,428,q),
(1168,370,l),
(1168,43,o),
(863,-6,q),
(772,-20,o),
(670.5,-20,q),
(569,-20,o),
(483.5,-5,q),
(398,10,o),
(336,52,q),
(203,144,o),
(203,370,q),
(203,439,l)
);
},
{
closed = 1;
nodes = (
(871,947,o),
(930,1022,q),
(982,1088,o),
(982,1211,q),
(982,1329,o),
(904,1372,q),
(841,1407,o),
(727.5,1407,q),
(614,1407,o),
(557,1399,q),
(500,1391,o),
(462,1368,q),
(383,1320,o),
(383,1190,q),
(383,1063,o),
(450,1005,q),
(506,956,o),
(701,890,q)
);
},
{
closed = 1;
nodes = (
(370,170,o),
(535,136,q),
(587,126,o),
(651,126,q),
(719,126,l),
(860,126,o),
(923,172,q),
(1000,228,o),
(1000,371,q),
(1000,436,l),
(1000,562,o),
(925,628,q),
(857,689,o),
(682,745,q),
(495,685,o),
(432,622,q),
(370,559,o),
(370,436,q),
(370,371,l)
);
}
);
width = 1366;
}
);
unicode = 56;
},
{
category = Letter;
glyphname = nine;
layers = (
{
layerId = "d8941333-dd91-4113-af16-e7b241417dfa";
name = Fore;
shapes = (
{
closed = 1;
nodes = (
(471,124,o),
(658,124,q),
(742,124,o),
(802.5,139,q),
(863,154,o),
(902,201,q),
(977,291,o),
(975,572,q),
(974,679,l),
(801,565,o),
(571,565,q),
(324,565,o),
(240,691,q),
(192,764,o),
(183,880,q),
(179,935,o),
(179,994,q),
(179,1088,l),
(179,1289,o),
(254,1397,q),
(362,1550,o),
(644,1550,q),
(915,1550,o),
(1032,1442,q),
(1147,1335,o),
(1147,1097,q),
(1147,569,l),
(1146,421,o),
(1125,310.5,q),
(1104,200,o),
(1048,126,q),
(936,-20,o),
(631,-20,q),
(444,-20,o),
(296,30,q),
(257,43,o),
(236,54,q),
(285,201,l)
);
},
{
closed = 1;
nodes = (
(762,715,o),
(905,772,q),
(945,788,o),
(974,805,q),
(974,1047,l),
(974,1245,o),
(926,1315,q),
(867,1402,o),
(683,1402,q),
(626,1402,l),
(461,1402,o),
(403,1328,q),
(352,1263,o),
(352,1087,q),
(352,1029,l),
(352,832,o),
(396,773,q),
(422,739,o),
(466.5,727,q),
(511,715,o),
(582,715,q),
(610,715,l)
);
}
);
width = 1366;
}
);
unicode = 57;
},
{
category = Letter;
glyphname = colon;
layers = (
{
layerId = "d8941333-dd91-4113-af16-e7b241417dfa";
name = Fore;
shapes = (
{
closed = 1;
nodes = (
(186,813,o),
(168,833,q),
(140,864,o),
(140,921.5,q),
(140,979,o),
(145.5,1003,q),
(151,1027,o),
(164,1041,q),
(189,1066,o),
(238.5,1066,q),
(288,1066,o),
(309.5,1060.5,q),
(331,1055,o),
(344,1041,q),
(367,1016,o),
(367,941,q),
(367,865,o),
(349,845,q),
(320,813,o),
(254,813,q)
);
},
{
closed = 1;
nodes = (
(140,70,o),
(140,108,q),
(140,146,o),
(145.5,170.5,q),
(151,195,o),
(164,209,q),
(189,234,o),
(238.5,234,q),
(288,234,o),
(309.5,228.5,q),
(331,223,o),
(344,209,q),
(367,184,o),
(367,127.5,q),
(367,71,o),
(362,46,q),
(357,21,o),
(344,6,q),
(321,-19,o),
(254,-19,q),
(186,-19,o),
(168,0.5,q),
(150,20,o),
(145,45,q)
);
}
);
width = 512;
}
);
unicode = 58;
},
{
category = Letter;
glyphname = semicolon;
layers = (
{
layerId = "d8941333-dd91-4113-af16-e7b241417dfa";
name = Fore;
shapes = (
{
closed = 1;
nodes = (
(189,813,o),
(171,833,q),
(143,864,o),
(143,921.5,q),
(143,979,o),
(148.5,1003,q),
(154,1027,o),
(168,1041,q),
(192,1066,o),
(241.5,1066,q),
(291,1066,o),
(312.5,1060.5,q),
(334,1055,o),
(347,1041,q),
(370,1016,o),
(370,941,q),
(370,865,o),
(352,845,q),
(323,813,o),
(257,813,q)
);
},
{
closed = 1;
nodes = (
(227,242,o),
(248,242,q),
(287,242,l),
(317,242,o),
(334.5,233.5,q),
(352,225,o),
(352,207,q),
(352,182,o),
(344,147,q),
(213,-376,l),
(81,-376,l),
(171,238,l),
(203,240,l)
);
}
);
width = 512;
}
);
unicode = 59;
},
{
category = Letter;
glyphname = less;
layers = (
{
layerId = "d8941333-dd91-4113-af16-e7b241417dfa";
name = Fore;
shapes = (
{
closed = 1;
nodes = (
(318,634,l),
(1133,217,l),
(1074,96,l),
(160,567,l),
(160,705,l),
(1073,1194,l),
(1133,1071,l)
);
}
);
width = 1374;
}
);
unicode = 60;
},
{
category = Letter;
glyphname = equal;
layers = (
{
layerId = "d8941333-dd91-4113-af16-e7b241417dfa";
name = Fore;
shapes = (
{
closed = 1;
nodes = (
(1173,937,l),
(1173,807,l),
(189,807,l),
(189,937,l)
);
},
{
closed = 1;
nodes = (
(1173,544,l),
(1173,413,l),
(189,413,l),
(189,544,l)
);
}
);
width = 1364;
}
);
unicode = 61;
},
{
category = Letter;
glyphname = greater;
layers = (
{
layerId = "d8941333-dd91-4113-af16-e7b241417dfa";
name = Fore;
shapes = (
{
closed = 1;
nodes = (
(1035,656,l),
(220,1073,l),
(279,1194,l),
(1193,723,l),
(1193,585,l),
(280,96,l),
(220,219,l)
);
}
);
width = 1374;
}
);
unicode = 62;
},
{
category = Letter;
glyphname = question;
layers = (
{
layerId = "d8941333-dd91-4113-af16-e7b241417dfa";
name = Fore;
shapes = (
{
closed = 1;
nodes = (
(331,619,o),
(369,657,q),
(623,919,l),
(683,983,o),
(695,1017,q),
(710,1062,o),
(710,1110,q),
(710,1158,o),
(709,1180,q),
(708,1202,o),
(704,1217,q),
(697,1245,o),
(677.5,1258.5,q),
(658,1272,o),
(617.5,1288.5,q),
(577,1305,o),
(515,1324,q),
(368,1369,o),
(201,1389,q),
(234,1559,l),
(531,1518,o),
(724,1423,q),
(844,1363,o),
(867,1280,q),
(879,1237,o),
(879,1168,q),
(879,1099,o),
(875,1060.5,q),
(871,1022,o),
(860.5,990,q),
(850,958,o),
(831,928.5,q),
(812,899,o),
(782.5,866,q),
(753,833,o),
(711,794,q),
(503,604,l),
(481,412,l),
(358,412,l),
(338,563,l)
);
},
{
closed = 1;
nodes = (
(308,73,o),
(308,112.5,q),
(308,152,o),
(313.5,177,q),
(319,202,o),
(332,216,q),
(356,242,o),
(408,242,q),
(460,242,o),
(482.5,236.5,q),
(505,231,o),
(518,216,q),
(541,191,o),
(541,113,q),
(541,35,o),
(523,14,q),
(495,-19,o),
(425,-19,q),
(355,-19,o),
(336.5,1.5,q),
(318,22,o),
(313,47.5,q)
);
}
);
width = 1024;
}
);
unicode = 63;
},
{
category = Letter;
glyphname = at;
layers = (
{
layerId = "d8941333-dd91-4113-af16-e7b241417dfa";
name = Fore;
shapes = (
{
closed = 1;
nodes = (
(1734,-127,l),
(1507,-243,o),
(1168,-278,q),
(1073,-287,o),
(998,-287,q),
(567,-287,o),
(390,-80,q),
(219,122,o),
(219,606,q),
(219,1127,o),
(424,1324,q),
(553,1448,o),
(766,1479,q),
(870,1494,o),
(992.5,1494,q),
(1115,1494,o),
(1221,1481,q),
(1327,1468,o),
(1404,1426,q),
(1570,1335,o),
(1570,1084,q),
(1570,641,l),
(1570,420,o),
(1590,204,q),
(1448,191,l),
(1421,341,l),
(1212,175,o),
(974,175,q),
(622,175,o),
(622,611,q),
(622,948,o),
(837,1006,q),
(901,1024,o),
(974,1024,q),
(1199,1024,o),
(1411,942,q),
(1411,1084,l),
(1411,1244,o),
(1314,1302,q),
(1222,1357,o),
(971,1357,q),
(770,1357,o),
(654,1305,q),
(443,1210,o),
(391,886,q),
(372,768,o),
(372,591.5,q),
(372,415,o),
(404,272,q),
(436,129,o),
(508,34,q),
(652,-153,o),
(980.5,-153,q),
(1309,-153,o),
(1677,7,q)
);
},
{
closed = 1;
nodes = (
(1187,878,o),
(998,878,q),
(866,878,o),
(822,797,q),
(792,740,o),
(792,601.5,q),
(792,463,o),
(842,394.5,q),
(892,326,o),
(1010,326,q),
(1225,326,o),
(1413,471,q),
(1410,521,o),
(1409,597,q),
(1408,722,l),
(1407,771,o),
(1407,819,q)
);
}
);
width = 1877;
}
);
unicode = 64;
},
{
category = Letter;
glyphname = A;
layers = (
{
layerId = "d8941333-dd91-4113-af16-e7b241417dfa";
name = Fore;
shapes = (
{
closed = 1;
nodes = (
(783,1530,l),
(1318,0,l),
(1137,0,l),
(985,449,l),
(369,449,l),
(225,0,l),
(49,0,l),
(550,1530,l)
);
},
{
closed = 1;
nodes = (
(667,1395,l),
(636,1281,l),
(415,592,l),
(937,592,l)
);
}
);
width = 1364;
}
);
unicode = 65;
},
{
category = Letter;
glyphname = B;
layers = (
{
layerId = "d8941333-dd91-4113-af16-e7b241417dfa";
name = Fore;
shapes = (
{
closed = 1;
nodes = (
(1170,830,o),
(937,799,q),
(937,796,l),
(1081,785,o),
(1152,714,q),
(1234,630,o),
(1234,470.5,q),
(1234,311,o),
(1197.5,223,q),
(1161,135,o),
(1096,86,q),
(985,0,o),
(747,0,q),
(236,0,l),
(236,1525,l),
(513,1551,o),
(693,1551,q),
(873,1551,o),
(957,1523.5,q),
(1041,1496,o),
(1088,1444,q),
(1170,1353,o),
(1170,1138,q)
);
},
{
closed = 1;
nodes = (
(832,847,o),
(910,904,q),
(999,968,o),
(999,1142,q),
(999,1163,l),
(999,1297,o),
(940,1354,q),
(881,1410,o),
(739,1410,q),
(620,1410,o),
(537,1405,q),
(406,1397,l),
(406,847,l),
(631,847,l)
);
},
{
closed = 1;
nodes = (
(915,142,o),
(978,198,q),
(1057,269,o),
(1057,452,q),
(1057,664,o),
(902,700,q),
(855,711,o),
(800,711,q),
(406,711,l),
(406,142,l),
(768,142,l)
);
}
);
width = 1364;
}
);
unicode = 66;
},
{
category = Letter;
glyphname = C;
layers = (
{
layerId = "d8941333-dd91-4113-af16-e7b241417dfa";
name = Fore;
shapes = (
{
closed = 1;
nodes = (
(934,124,o),
(1099,187,q),
(1143,49,l),
(1067,11,o),
(960,-4.5,q),
(853,-20,o),
(771,-20,q),
(757,-20,l),
(401,-20,o),
(280,184,q),
(206,308,o),
(190,518,q),
(183,619,o),
(183,739,q),
(183,859,o),
(189.5,967.5,q),
(196,1076,o),
(216,1166.5,q),
(236,1257,o),
(274,1328,q),
(312,1399,o),
(376,1448,q),
(506,1550,o),
(754,1550,q),
(914,1550,o),
(1011.5,1529.5,q),
(1109,1509,o),
(1143,1496,q),
(1098,1338,l),
(903,1406,o),
(764.5,1406,q),
(626,1406,o),
(551.5,1372.5,q),
(477,1339,o),
(435,1262,q),
(362,1130,o),
(362,759,q),
(362,685,l),
(362,380,o),
(441,259,q),
(529,124,o),
(762,124,q),
(771,124,l)
);
}
);
width = 1194;
}
);
unicode = 67;
},
{
category = Letter;
glyphname = D;
layers = (
{
layerId = "d8941333-dd91-4113-af16-e7b241417dfa";
name = Fore;
shapes = (
{
closed = 1;
nodes = (
(236,1521,o),
(386,1532,q),
(611,1550,o),
(745,1550,q),
(879,1550,o),
(959,1539.5,q),
(1039,1529,o),
(1099.5,1503.5,q),
(1160,1478,o),
(1202.5,1434,q),
(1245,1390,o),
(1272,1322,q),
(1323,1195,o),
(1323,944,q),
(1323,789,l),
(1323,492,o),
(1279,338,q),
(1228,160,o),
(1096,82,q),
(960,0,o),
(697,0,q),
(236,0,l),
(236,1521,l)
);
},
{
closed = 1;
nodes = (
(913,1402,o),
(772,1402,q),
(631,1402,o),
(406,1385,q),
(406,143,l),
(724,143,l),
(910,143,o),
(1000,204,q),
(1088,263,o),
(1118,407,q),
(1144,525,o),
(1144,789,q),
(1144,945,l),
(1144,1194,o),
(1085,1287,q),
(1049,1344,o),
(981,1373,q)
);
}
);
width = 1534;
}
);
unicode = 68;
},
{
category = Letter;
glyphname = E;
layers = (
{
layerId = "d8941333-dd91-4113-af16-e7b241417dfa";
name = Fore;
shapes = (
{
closed = 1;
nodes = (
(1103,1530,l),
(1103,1382,l),
(406,1382,l),
(406,854,l),
(968,854,l),
(968,707,l),
(406,707,l),
(406,147,l),
(1130,147,l),
(1130,0,l),
(236,0,l),
(236,1530,l)
);
}
);
width = 1195;
}
);
unicode = 69;
},
{
category = Letter;
glyphname = F;
layers = (
{
layerId = "d8941333-dd91-4113-af16-e7b241417dfa";
name = Fore;
shapes = (
{
closed = 1;
nodes = (
(1115,1530,l),
(1115,1382,l),
(406,1382,l),
(406,781,l),
(1021,781,l),
(1021,634,l),
(406,634,l),
(406,0,l),
(236,0,l),
(236,1530,l)
);
}
);
width = 1191;
}
);
unicode = 70;
},
{
category = Letter;
glyphname = G;
layers = (
{
layerId = "d8941333-dd91-4113-af16-e7b241417dfa";
name = Fore;
shapes = (
{
closed = 1;
nodes = (
(924,1406,o),
(702,1406,q),
(473,1406,o),
(404,1218,q),
(363,1107,o),
(358.5,965.5,q),
(354,824,o),
(354,721,q),
(354,622,l),
(354,303,o),
(461,199,q),
(525,137,o),
(632,126,q),
(682,120,o),
(735,120,q),
(788,120,o),
(837.5,125.5,q),
(887,131,o),
(932,140,q),
(1023,158,o),
(1068,180,q),
(1068,652,l),
(759,652,l),
(759,790,l),
(1235,790,l),
(1235,105,l),
(1141,34,o),
(902,-6,q),
(819,-20,o),
(713,-20,q),
(607,-20,o),
(518.5,1.5,q),
(430,23,o),
(368.5,64.5,q),
(307,106,o),
(269,168,q),
(231,230,o),
(210,311,q),
(176,447,o),
(176,646.5,q),
(176,846,o),
(183,961.5,q),
(190,1077,o),
(210.5,1170.5,q),
(231,1264,o),
(268,1335,q),
(305,1406,o),
(365,1454,q),
(487,1550,o),
(713,1550,q),
(971,1550,o),
(1154,1493,q),
(1205,1477,l),
(1165,1322,l)
);
}
);
width = 1364;
}
);
unicode = 71;
},
{
category = Letter;
glyphname = H;
layers = (
{
layerId = "d8941333-dd91-4113-af16-e7b241417dfa";
name = Fore;
shapes = (
{
closed = 1;
nodes = (
(406,1530,l),
(406,839,l),
(1129,839,l),
(1129,1530,l),
(1298,1530,l),
(1298,0,l),
(1129,0,l),
(1129,694,l),
(406,694,l),
(406,0,l),
(236,0,l),
(236,1530,l)
);
}
);
width = 1534;
}
);
unicode = 72;
},
{
category = Letter;
glyphname = I;
layers = (
{
layerId = "d8941333-dd91-4113-af16-e7b241417dfa";
name = Fore;
shapes = (
{
closed = 1;
nodes = (
(426,1530,l),
(426,0,l),
(257,0,l),
(257,1530,l)
);
}
);
width = 683;
}
);
unicode = 73;
},
{
category = Letter;
glyphname = J;
layers = (
{
layerId = "d8941333-dd91-4113-af16-e7b241417dfa";
name = Fore;
shapes = (
{
closed = 1;
nodes = (
(32,182,o),
(55,171,q),
(164,119,o),
(286,119,q),
(392,119,o),
(436,185,q),
(478,249,o),
(478,404,q),
(478,1530,l),
(646,1530,l),
(646,516,l),
(646,329,o),
(630.5,252,q),
(615,175,o),
(591.5,128,q),
(568,81,o),
(528,48,q),
(446,-20,o),
(286,-20,q),
(148,-20,o),
(27,30,q),
(-2,42,o),
(-17,51,q),
(32,182,l)
);
}
);
width = 853;
}
);
unicode = 74;
},
{
category = Letter;
glyphname = K;
layers = (
{
layerId = "d8941333-dd91-4113-af16-e7b241417dfa";
name = Fore;
shapes = (
{
closed = 1;
nodes = (
(406,687,l),
(406,0,l),
(236,0,l),
(236,1530,l),
(406,1530,l),
(406,812,l),
(462,812,o),
(479,820.5,q),
(496,829,o),
(519,845.5,q),
(542,862,o),
(587,913.5,q),
(632,965,o),
(683,1031,q),
(818,1214,o),
(875,1299,q),
(968,1441,l),
(1004,1498,o),
(1022,1531,q),
(1220,1531,l),
(1211,1511,o),
(1185,1470,q),
(1098,1336,o),
(1046,1264,q),
(854,1005,l),
(767,898,l),
(678,792,o),
(649,781,q),
(649,772,l),
(680,760,l),
(749,734,o),
(857,591,q),
(1297,0,l),
(1080,0,l),
(759,454,l),
(598,680,o),
(486,687,q),
(470,688,o),
(453,688,q)
);
}
);
width = 1364;
}
);
unicode = 75;
},
{
category = Letter;
glyphname = L;
layers = (
{
layerId = "d8941333-dd91-4113-af16-e7b241417dfa";
name = Fore;
shapes = (
{
closed = 1;
nodes = (
(405,1530,l),
(405,147,l),
(1011,147,l),
(1011,0,l),
(235,0,l),
(235,1530,l)
);
}
);
width = 1026;
}
);
unicode = 76;
},
{
category = Letter;
glyphname = M;
layers = (
{
layerId = "d8941333-dd91-4113-af16-e7b241417dfa";
name = Fore;
shapes = (
{
closed = 1;
nodes = (
(623,1530,l),
(971,400,l),
(1030,156,l),
(1087,401,l),
(1423,1530,l),
(1672,1530,l),
(1919,0,l),
(1749,0,l),
(1563,1156,l),
(1535,1426,l),
(1474,1154,l),
(1129,1,l),
(932,1,l),
(572,1160,l),
(501,1426,l),
(467,1158,l),
(298,0,l),
(126,0,l),
(362,1530,l)
);
}
);
width = 2051;
}
);
unicode = 77;
},
{
category = Letter;
glyphname = N;
layers = (
{
layerId = "d8941333-dd91-4113-af16-e7b241417dfa";
name = Fore;
shapes = (
{
closed = 1;
nodes = (
(371,1530,l),
(1075,418,l),
(1166,229,l),
(1144,439,l),
(1144,1530,l),
(1299,1530,l),
(1299,0,l),
(1156,0,l),
(457,1109,l),
(369,1281,l),
(391,1077,l),
(391,0,l),
(236,0,l),
(236,1530,l)
);
}
);
width = 1536;
}
);
unicode = 78;
},
{
category = Letter;
glyphname = O;
layers = (
{
layerId = "d8941333-dd91-4113-af16-e7b241417dfa";
name = Fore;
shapes = (
{
closed = 1;
nodes = (
(383,-20,o),
(269,204,q),
(202,334,o),
(190,551,q),
(185,653,o),
(185,773,q),
(185,893,o),
(192,1000.5,q),
(199,1108,o),
(219.5,1195,q),
(240,1282,o),
(277.5,1348.5,q),
(315,1415,o),
(376,1460,q),
(502,1550,o),
(739,1550,q),
(801,1550,l),
(1172,1550,o),
(1276,1350,q),
(1341,1225,o),
(1349,1002,q),
(1353,893,o),
(1353,771.5,q),
(1353,650,o),
(1347,547.5,q),
(1341,445,o),
(1322,358,q),
(1303,271,o),
(1266.5,201,q),
(1230,131,o),
(1168,82,q),
(1040,-20,o),
(801,-20,q),
(739,-20,l)
);
},
{
closed = 1;
nodes = (
(909,124,o),
(981.5,148,q),
(1054,172,o),
(1096,232,q),
(1174,343,o),
(1174,658,q),
(1174,766,l),
(1174,917,o),
(1166,1035,q),
(1158,1153,o),
(1123,1234,q),
(1051,1402,o),
(811,1402,q),
(727,1402,l),
(483,1402,o),
(415,1245,q),
(372,1145,o),
(368,1009,q),
(364,873,o),
(364,766,q),
(364,658,l),
(364,363,o),
(452,242,q),
(537,124,o),
(739,124,q),
(799,124,l)
);
}
);
width = 1534;
}
);
unicode = 79;
},
{
category = Letter;
glyphname = P;
layers = (
{
layerId = "d8941333-dd91-4113-af16-e7b241417dfa";
name = Fore;
shapes = (
{
closed = 1;
nodes = (
(792,478,o),
(689.5,478,q),
(587,478,o),
(406,505,q),
(406,0,l),
(236,0,l),
(236,1524,l),
(527,1551,o),
(815,1551,q),
(1057,1551,o),
(1154,1442,q),
(1236,1350,o),
(1236,1138,q),
(1236,1020,l),
(1236,856,o),
(1200,740,q),
(1123,498,o),
(833,480,q)
);
},
{
closed = 1;
nodes = (
(548,1407,o),
(406,1396,q),
(406,646,l),
(581,623,o),
(717.5,623,q),
(854,623,o),
(913.5,642.5,q),
(973,662,o),
(1006,708,q),
(1062,786,o),
(1062,1018,q),
(1062,1142,l),
(1062,1285,o),
(1006,1346,q),
(952,1407,o),
(822,1407,q)
);
}
);
width = 1364;
}
);
unicode = 80;
},
{
category = Letter;
glyphname = Q;
layers = (
{
layerId = "d8941333-dd91-4113-af16-e7b241417dfa";
name = Fore;
shapes = (
{
closed = 1;
nodes = (
(801,-20,l),
(739,-20,l),
(383,-20,o),
(269,204,q),
(202,334,o),
(190,551,q),
(185,653,o),
(185,773,q),
(185,893,o),
(192,1000.5,q),
(199,1108,o),
(219.5,1195,q),
(240,1282,o),
(277.5,1348.5,q),
(315,1415,o),
(376,1460,q),
(502,1550,o),
(739,1550,q),
(801,1550,l),
(1172,1550,o),
(1276,1350,q),
(1341,1225,o),
(1349,1002,q),
(1353,893,o),
(1353,752.5,q),
(1353,612,o),
(1341.5,482,q),
(1330,352,o),
(1290,251,q),
(1204,37,o),
(958,-7,q),
(1077,-151,o),
(1291,-313,q),
(1164,-447,l),
(919,-240,o),
(822,-19,q)
);
},
{
closed = 1;
nodes = (
(909,124,o),
(981.5,148,q),
(1054,172,o),
(1096,232,q),
(1174,343,o),
(1174,658,q),
(1174,766,l),
(1174,917,o),
(1166,1035,q),
(1158,1153,o),
(1123,1234,q),
(1051,1402,o),
(811,1402,q),
(727,1402,l),
(483,1402,o),
(415,1245,q),
(372,1145,o),
(368,1009,q),
(364,873,o),
(364,766,q),
(364,658,l),
(364,363,o),
(452,242,q),
(537,124,o),
(739,124,q),
(799,124,l)
);
}
);
width = 1534;
}
);
unicode = 81;
},
{
category = Letter;
glyphname = R;
layers = (
{
layerId = "d8941333-dd91-4113-af16-e7b241417dfa";
name = Fore;
shapes = (
{
closed = 1;
nodes = (
(561,1550,o),
(782,1550,q),
(802,1550,l),
(1043,1550,o),
(1140,1442,q),
(1221,1349,o),
(1221,1138,q),
(1221,868,o),
(1144,736,q),
(1065,602,o),
(882,568,q),
(916,526,o),
(949,480,q),
(1008,395,l),
(1271,0,l),
(1071,0,l),
(841,362,l),
(745,508,o),
(699,555,q),
(688,555,l),
(617,556,o),
(551,558,q),
(406,564,l),
(406,0,l),
(236,0,l),
(236,1525,l)
);
},
{
closed = 1;
nodes = (
(511,694,o),
(736,694,q),
(921,694,o),
(988,798,q),
(1045,889,o),
(1045,1116,q),
(1045,1307,o),
(960,1366,q),
(910,1401,o),
(850.5,1405,q),
(791,1409,o),
(746.5,1409,q),
(702,1409,o),
(660.5,1408.5,q),
(619,1408,o),
(578,1407,q),
(537,1406,o),
(495,1404,q),
(406,1398,l),
(406,699,l)
);
}
);
width = 1366;
}
);
unicode = 82;
},
{
category = Letter;
glyphname = S;
layers = (
{
layerId = "d8941333-dd91-4113-af16-e7b241417dfa";
name = Fore;
shapes = (
{
closed = 1;
nodes = (
(378,121,o),
(595,121,q),
(847,121,o),
(890,282,q),
(904,335,o),
(904,404,q),
(904,443,l),
(904,513,o),
(894,556,q),
(884,599,o),
(852,626,q),
(800,671,o),
(606,701,q),
(433,728,o),
(367,752,q),
(301,776,o),
(258.5,804.5,q),
(216,833,o),
(186,876,q),
(124,966,o),
(124,1125,q),
(124,1135,l),
(124,1465,o),
(398,1530,q),
(485,1550,o),
(595,1550,q),
(608,1550,l),
(865,1550,o),
(1028,1476,q),
(976,1323,l),
(779,1408,o),
(613,1408,q),
(604,1408,l),
(421,1408,o),
(352,1339,q),
(294,1281,o),
(294,1138,q),
(294,1134,l),
(294,971,o),
(384,920,q),
(445,887,o),
(602.5,862,q),
(760,837,o),
(837,819.5,q),
(914,802,o),
(968,762,q),
(1080,678,o),
(1080,443,q),
(1080,430,l),
(1080,71,o),
(791,2,q),
(702,-20,o),
(623,-20,q),
(544,-20,o),
(479.5,-14.5,q),
(415,-9,o),
(348,5,q),
(191,37,o),
(85,101,q),
(151,241,l)
);
}
);
width = 1194;
}
);
unicode = 83;
},
{
category = Letter;
glyphname = T;
layers = (
{
layerId = "d8941333-dd91-4113-af16-e7b241417dfa";
name = Fore;
shapes = (
{
closed = 1;
nodes = (
(12,1382,l),
(12,1530,l),
(1012,1530,l),
(1012,1382,l),
(590,1382,l),
(590,0,l),
(420,0,l),
(420,1382,l)
);
}
);
width = 1024;
}
);
unicode = 84;
},
{
category = Letter;
glyphname = U;
layers = (
{
layerId = "d8941333-dd91-4113-af16-e7b241417dfa";
name = Fore;
shapes = (
{
closed = 1;
nodes = (
(382,1530,l),
(382,712,l),
(382,470,o),
(403,382,q),
(424,294,o),
(451.5,249.5,q),
(479,205,o),
(523,178,q),
(606,127,o),
(751.5,127,q),
(897,127,o),
(970.5,152,q),
(1044,177,o),
(1084.5,242,q),
(1125,307,o),
(1139,421,q),
(1153,535,o),
(1153,712,q),
(1153,1530,l),
(1321,1530,l),
(1321,718,l),
(1321,461,o),
(1302,363.5,q),
(1283,266,o),
(1249.5,198,q),
(1216,130,o),
(1155,82,q),
(1027,-20,o),
(773,-20,q),
(395,-20,o),
(285,196,q),
(224,317,o),
(217,516,q),
(214,607,o),
(214,705,q),
(214,1530,l)
);
}
);
width = 1534;
}
);
unicode = 85;
},
{
category = Letter;
glyphname = V;
layers = (
{
layerId = "d8941333-dd91-4113-af16-e7b241417dfa";
name = Fore;
shapes = (
{
closed = 1;
nodes = (
(250,1530,l),
(636,365,l),
(688,160,l),
(745,365,l),
(1122,1530,l),
(1304,1530,l),
(789,-1,l),
(592,-1,l),
(66,1530,l)
);
}
);
width = 1366;
}
);
unicode = 86;
},
{
category = Letter;
glyphname = W;
layers = (
{
layerId = "d8941333-dd91-4113-af16-e7b241417dfa";
name = Fore;
shapes = (
{
closed = 1;
nodes = (
(218,1530,l),
(514,374,l),
(566,130,l),
(624,374,l),
(932,1530,l),
(1131,1530,l),
(1498,122,l),
(1551,378,l),
(1833,1530,l),
(2013,1530,l),
(1621,0,l),
(1367,0,l),
(1074,1094,l),
(1029,1352,l),
(982,1094,l),
(680,0,l),
(446,0,l),
(34,1530,l)
);
}
);
width = 2044;
}
);
unicode = 87;
},
{
category = Letter;
glyphname = X;
layers = (
{
layerId = "d8941333-dd91-4113-af16-e7b241417dfa";
name = Fore;
shapes = (
{
closed = 1;
nodes = (
(68,1530,l),
(262,1530,l),
(658,897,l),
(1045,1530,l),
(1240,1530,l),
(763,786,l),
(1293,0,l),
(1090,0,l),
(661,661,l),
(259,0,l),
(68,0,l),
(555,782,l)
);
}
);
width = 1360;
}
);
unicode = 88;
},
{
category = Letter;
glyphname = Y;
layers = (
{
layerId = "d8941333-dd91-4113-af16-e7b241417dfa";
name = Fore;
shapes = (
{
closed = 1;
nodes = (
(13,1530,l),
(199,1530,l),
(526,873,l),
(600,704,l),
(673,876,l),
(993,1530,l),
(1181,1530,l),
(682,565,l),
(681,0,l),
(513,0,l),
(512,565,l)
);
}
);
width = 1194;
}
);
unicode = 89;
},
{
category = Letter;
glyphname = Z;
layers = (
{
layerId = "d8941333-dd91-4113-af16-e7b241417dfa";
name = Fore;
shapes = (
{
closed = 1;
nodes = (
(871,1387,l),
(158,1387,l),
(158,1530,l),
(1080,1530,l),
(1080,1442,l),
(318,141,l),
(1074,141,l),
(1074,0,l),
(106,0,l),
(106,85,l)
);
}
);
width = 1194;
}
);
unicode = 90;
},
{
category = Letter;
glyphname = bracketleft;
layers = (
{
layerId = "d8941333-dd91-4113-af16-e7b241417dfa";
name = Fore;
shapes = (
{
closed = 1;
nodes = (
(380,-158,l),
(627,-159,l),
(627,-272,l),
(230,-272,l),
(230,1909,l),
(627,1909,l),
(627,1795,l),
(380,1795,l)
);
}
);
width = 851;
}
);
unicode = 91;
},
{
category = Letter;
glyphname = backslash;
layers = (
{
layerId = "d8941333-dd91-4113-af16-e7b241417dfa";
name = Fore;
shapes = (
{
closed = 1;
nodes = (
(835,-73,l),
(152,1867,l),
(7,1867,l),
(686,-73,l)
);
}
);
width = 854;
}
);
unicode = 92;
},
{
category = Letter;
glyphname = bracketright;
layers = (
{
layerId = "d8941333-dd91-4113-af16-e7b241417dfa";
name = Fore;
shapes = (
{
closed = 1;
nodes = (
(463,1797,l),
(216,1798,l),
(216,1911,l),
(613,1911,l),
(613,-270,l),
(216,-270,l),
(216,-156,l),
(463,-156,l)
);
}
);
width = 852;
}
);
unicode = 93;
},
{
category = Letter;
glyphname = asciicircum;
layers = (
{
layerId = "d8941333-dd91-4113-af16-e7b241417dfa";
name = Fore;
shapes = (
{
closed = 1;
nodes = (
(538,1569,l),
(676,1569,l),
(1079,816,l),
(944,778,l),
(605,1411,l),
(281,778,l),
(150,816,l)
);
}
);
width = 1229;
}
);
unicode = 94;
},
{
category = Letter;
glyphname = underscore;
layers = (
{
layerId = "d8941333-dd91-4113-af16-e7b241417dfa";
name = Fore;
shapes = (
{
closed = 1;
nodes = (
(861,-303,l),
(-7,-303,l),
(-7,-185,l),
(861,-185,l)
);
}
);
width = 854;
}
);
unicode = 95;
},
{
category = Letter;
glyphname = grave;
layers = (
{
layerId = "d8941333-dd91-4113-af16-e7b241417dfa";
name = Fore;
shapes = (
{
closed = 1;
nodes = (
(134,1839,l),
(459,1486,l),
(376,1399,l),
(9,1714,l)
);
}
);
width = 510;
}
);
unicode = 96;
},
{
category = Letter;
glyphname = a;
layers = (
{
layerId = "d8941333-dd91-4113-af16-e7b241417dfa";
name = Fore;
shapes = (
{
closed = 1;
nodes = (
(1134,223,o),
(1153,8,q),
(1005,-4,l),
(980,135,l),
(853,33,o),
(644,-7,q),
(576,-20,o),
(523,-20,q),
(470,-20,o),
(429.5,-15,q),
(389,-10,o),
(351.5,4.5,q),
(314,19,o),
(282,45,q),
(250,71,o),
(226,114,q),
(175,205,o),
(175,332.5,q),
(175,460,o),
(193.5,530.5,q),
(212,601,o),
(255,648,q),
(340,741,o),
(541,741,q),
(742,741,o),
(970,665,q),
(970,795,l),
(970,1012,o),
(791,1052,q),
(733,1065,o),
(658,1065,q),
(487,1065,o),
(303,997,q),
(266,1141,l),
(317,1175,o),
(526,1202,q),
(592,1210,o),
(684.5,1210,q),
(777,1210,o),
(866,1188,q),
(955,1166,o),
(1014,1116,q),
(1134,1017,o),
(1134,795,q),
(1134,422,l)
);
},
{
closed = 1;
nodes = (
(732,599,o),
(534,599,q),
(412,599,o),
(372,529,q),
(345,480,o),
(345,384,q),
(345,288,o),
(355.5,245,q),
(366,202,o),
(390,174,q),
(437,121,o),
(545,121,q),
(714,121,o),
(880,208,q),
(931,234,o),
(972,266,q),
(966,374,o),
(966,540,q)
);
}
);
width = 1364;
}
);
unicode = 97;
},
{
category = Letter;
glyphname = b;
layers = (
{
layerId = "d8941333-dd91-4113-af16-e7b241417dfa";
name = Fore;
shapes = (
{
closed = 1;
nodes = (
(358,0,l),
(217,0,l),
(217,1702,l),
(383,1718,l),
(383,1076,l),
(590,1210,o),
(783,1210,q),
(1051,1210,o),
(1123,1045,q),
(1168,941,o),
(1174,753,q),
(1176,662,o),
(1176,553,q),
(1176,473,l),
(1176,336,o),
(1158.5,267,q),
(1141,198,o),
(1114,148.5,q),
(1087,99,o),
(1040,62,q),
(938,-20,o),
(748,-20,q),
(558,-20,o),
(379,111,q)
);
},
{
closed = 1;
nodes = (
(595,127,o),
(740,127,q),
(752,127,l),
(923,127,o),
(972,222,q),
(998,270,o),
(1004,347,q),
(1010,424,o),
(1010,532,q),
(1010,676,l),
(1010,899,o),
(959,976,q),
(909,1053,o),
(769,1053,q),
(744,1053,l),
(619,1053,o),
(454,979,q),
(411,960,o),
(383,944,q),
(383,242,l)
);
}
);
width = 1364;
}
);
unicode = 98;
},
{
category = Letter;
glyphname = c;
layers = (
{
layerId = "d8941333-dd91-4113-af16-e7b241417dfa";
name = Fore;
shapes = (
{
closed = 1;
nodes = (
(911,-20,o),
(669,-20,q),
(526,-20,o),
(459,2,q),
(288,60,o),
(235,199,q),
(198,296,o),
(192,408,q),
(186,520,o),
(186,597,q),
(186,674,o),
(190,747.5,q),
(194,821,o),
(209.5,889,q),
(225,957,o),
(257,1015.5,q),
(289,1074,o),
(344,1118,q),
(463,1210,o),
(686,1210,q),
(850,1210,o),
(988,1162,q),
(1025,1150,o),
(1044,1139,q),
(994,991,l),
(802,1065,o),
(679.5,1065,q),
(557,1065,o),
(499.5,1037,q),
(442,1009,o),
(410,952,q),
(356,854,o),
(356,592,q),
(356,487,o),
(363,400.5,q),
(370,314,o),
(398,252,q),
(457,124,o),
(641.5,124,q),
(826,124,o),
(1000,188,q),
(1050,53,l)
);
}
);
width = 1196;
}
);
unicode = 99;
},
{
category = Letter;
glyphname = d;
layers = (
{
layerId = "d8941333-dd91-4113-af16-e7b241417dfa";
name = Fore;
shapes = (
{
closed = 1;
nodes = (
(785,-20,o),
(567,-20,q),
(326,-20,o),
(246,157,q),
(200,257,o),
(194.5,368.5,q),
(189,480,o),
(189,564.5,q),
(189,649,o),
(190.5,735,q),
(192,821,o),
(203,894,q),
(214,967,o),
(237.5,1025.5,q),
(261,1084,o),
(305,1125,q),
(396,1210,o),
(605.5,1210,q),
(815,1210,o),
(984,1137,q),
(984,1702,l),
(1150,1718,l),
(1150,547,l),
(1150,202,o),
(1169,8,q),
(1020,-4,l),
(996,133,l)
);
},
{
closed = 1;
nodes = (
(804,1060,o),
(636,1060,q),
(514,1060,o),
(475,1040,q),
(436,1020,o),
(415.5,988,q),
(395,956,o),
(382,900,q),
(359,795,o),
(359,554,q),
(359,532,l),
(359,307,o),
(408,221,q),
(461,130,o),
(605,130,q),
(620,130,l),
(758,130,o),
(914,218,q),
(957,242,o),
(988,266,q),
(988,268,l),
(983,361,o),
(983,555,q),
(984,1000,l)
);
}
);
width = 1364;
}
);
unicode = 100;
},
{
category = Letter;
glyphname = e;
layers = (
{
layerId = "d8941333-dd91-4113-af16-e7b241417dfa";
name = Fore;
shapes = (
{
closed = 1;
nodes = (
(948,-20,o),
(698,-20,q),
(553,-20,o),
(452,10,q),
(291,56,o),
(238,200,q),
(189,335,o),
(189,600,q),
(189,651,l),
(189,968,o),
(321,1096,q),
(440,1210,o),
(718,1210,q),
(989,1210,o),
(1088,1076,q),
(1136,1011,o),
(1151.5,918.5,q),
(1167,826,o),
(1167,742,q),
(1167,611,o),
(1161,539,q),
(1020,533,o),
(908,533,q),
(908,533,o),
(747,533,q),
(495,533,o),
(359,555,q),
(359,325,o),
(417,234,q),
(488,123,o),
(700,123,q),
(912,123,o),
(1106,206,q),
(1155,63,l)
);
},
{
closed = 1;
nodes = (
(998,768,l),
(998,925,o),
(937,992,q),
(869,1067,o),
(702,1067,q),
(502,1067,o),
(429,980,q),
(359,897,o),
(359,672,q),
(998,672,l)
);
}
);
width = 1364;
}
);
unicode = 101;
},
{
category = Letter;
glyphname = f;
layers = (
{
layerId = "d8941333-dd91-4113-af16-e7b241417dfa";
name = Fore;
shapes = (
{
closed = 1;
nodes = (
(427,1509,o),
(427,1410.5,q),
(427,1312,o),
(464,1190,q),
(747,1190,l),
(747,1051,l),
(462,1051,l),
(462,0,l),
(301,0,l),
(301,1051,l),
(102,1051,l),
(102,1174,l),
(299,1190,l),
(286,1217,o),
(274,1307,q),
(262,1397,o),
(262,1436,q),
(262,1720,o),
(594,1720,q),
(714,1720,o),
(821,1694,q),
(791,1545,l),
(661,1576,o),
(584,1576,q),
(507,1576,o),
(467,1542.5,q)
);
}
);
width = 854;
}
);
unicode = 102;
},
{
category = Letter;
glyphname = g;
layers = (
{
layerId = "d8941333-dd91-4113-af16-e7b241417dfa";
name = Fore;
shapes = (
{
closed = 1;
nodes = (
(1005,1190,l),
(1149,1190,l),
(1150,22,l),
(1150,-235,o),
(1049,-352,q),
(941,-476,o),
(684,-476,q),
(484,-476,o),
(329,-422,q),
(290,-409,o),
(269,-398,q),
(321,-257,l),
(339,-263,o),
(374,-276.5,q),
(409,-290,o),
(458,-303,q),
(582,-336,o),
(685.5,-336,q),
(789,-336,o),
(845,-315,q),
(901,-294,o),
(932,-250,q),
(984,-176,o),
(984,19,q),
(984,114,l),
(793,-20,o),
(580,-20,q),
(331,-20,o),
(248,157,q),
(200,257,o),
(192,410,q),
(189,480,o),
(189,564.5,q),
(189,649,o),
(190.5,735,q),
(192,821,o),
(203,894,q),
(214,967,o),
(237.5,1025.5,q),
(261,1084,o),
(305,1125,q),
(396,1210,o),
(585.5,1210,q),
(775,1210,o),
(989,1108,q)
);
},
{
closed = 1;
nodes = (
(804,1060,o),
(636,1060,q),
(514,1060,o),
(475,1040,q),
(436,1020,o),
(415.5,988,q),
(395,956,o),
(382,900,q),
(359,795,o),
(359,554,q),
(359,532,l),
(359,310,o),
(414,221,q),
(469,130,o),
(615,130,q),
(630,130,l),
(768,130,o),
(912,206,q),
(953,227,o),
(984,249,q),
(984,970,l)
);
}
);
width = 1364;
}
);
unicode = 103;
},
{
category = Letter;
glyphname = h;
layers = (
{
layerId = "d8941333-dd91-4113-af16-e7b241417dfa";
name = Fore;
shapes = (
{
closed = 1;
nodes = (
(586,1055,o),
(390,940,q),
(390,0,l),
(224,0,l),
(224,1702,l),
(386,1718,l),
(386,1067,l),
(489,1155,o),
(654,1194,q),
(720,1210,o),
(810,1210,q),
(900,1210,o),
(968,1189.5,q),
(1036,1169,o),
(1076,1124,q),
(1148,1043,o),
(1148,829,q),
(1148,0,l),
(980,0,l),
(980,799,l),
(980,943,o),
(952,984.5,q),
(924,1026,o),
(885.5,1040.5,q),
(847,1055,o),
(785,1055,q)
);
}
);
width = 1364;
}
);
unicode = 104;
},
{
category = Letter;
glyphname = i;
layers = (
{
layerId = "d8941333-dd91-4113-af16-e7b241417dfa";
name = Fore;
shapes = (
{
closed = 1;
nodes = (
(275,1475,o),
(256,1494,q),
(226,1525,o),
(226,1579.5,q),
(226,1634,o),
(232.5,1657.5,q),
(239,1681,o),
(252,1694,q),
(276,1718,o),
(325.5,1718,q),
(375,1718,o),
(396.5,1713,q),
(418,1708,o),
(432,1694,q),
(456,1670,o),
(456,1615.5,q),
(456,1561,o),
(450.5,1537.5,q),
(445,1514,o),
(432,1500,q),
(407,1475,o),
(342,1475,q)
);
},
{
closed = 1;
nodes = (
(425,1190,l),
(425,0,l),
(263,0,l),
(261,1190,l)
);
}
);
width = 683;
}
);
unicode = 105;
},
{
category = Letter;
glyphname = j;
layers = (
{
layerId = "d8941333-dd91-4113-af16-e7b241417dfa";
name = Fore;
shapes = (
{
closed = 1;
nodes = (
(272,1475,o),
(253,1494,q),
(223,1525,o),
(223,1579.5,q),
(223,1634,o),
(229.5,1657.5,q),
(236,1681,o),
(250,1694,q),
(273,1718,o),
(322.5,1718,q),
(372,1718,o),
(393.5,1713,q),
(415,1708,o),
(428,1694,q),
(453,1670,o),
(453,1615.5,q),
(453,1561,o),
(447.5,1537.5,q),
(442,1514,o),
(428,1500,q),
(404,1475,o),
(339,1475,q)
);
},
{
closed = 1;
nodes = (
(144,-340,o),
(185.5,-335.5,q),
(227,-331,o),
(243.5,-302,q),
(260,-273,o),
(260,-208,q),
(260,1190,l),
(421,1190,l),
(421,-193,l),
(421,-326,o),
(378,-392,q),
(325,-475,o),
(194,-475,q),
(71,-475,o),
(8,-440,q),
(53,-317,l)
);
}
);
width = 683;
}
);
unicode = 106;
},
{
category = Letter;
glyphname = k;
layers = (
{
layerId = "d8941333-dd91-4113-af16-e7b241417dfa";
name = Fore;
shapes = (
{
closed = 1;
nodes = (
(386,1716,l),
(386,684,l),
(426,676,o),
(482.5,725,q),
(539,774,o),
(583,818.5,q),
(627,863,o),
(674,916,q),
(843,1111,o),
(896,1190,q),
(1094,1190,l),
(1072,1140,o),
(993,1048,q),
(859,897,l),
(750,780,o),
(684.5,724,q),
(619,668,o),
(598,660,q),
(598,650,l),
(628,635,l),
(693,604,o),
(798,470,q),
(1171,0,l),
(961,0,l),
(707,333,l),
(531,563,o),
(438,571,q),
(416,573,l),
(406,574,o),
(398,573.5,q),
(390,573,o),
(386,573,q),
(386,0,l),
(220,0,l),
(220,1698,l)
);
}
);
width = 1192;
}
);
unicode = 107;
},
{
category = Letter;
glyphname = l;
layers = (
{
layerId = "d8941333-dd91-4113-af16-e7b241417dfa";
name = Fore;
shapes = (
{
closed = 1;
nodes = (
(424,1714,l),
(424,0,l),
(261,0,l),
(259,1700,l)
);
}
);
width = 683;
}
);
unicode = 108;
},
{
category = Letter;
glyphname = m;
layers = (
{
layerId = "d8941333-dd91-4113-af16-e7b241417dfa";
name = Fore;
shapes = (
{
closed = 1;
nodes = (
(584,1054,o),
(391,939,q),
(391,0,l),
(225,0,l),
(225,1190,l),
(371,1190,l),
(387,1067,l),
(562,1210,o),
(779,1210,q),
(903,1210,o),
(974.5,1174.5,q),
(1046,1139,o),
(1078,1058,q),
(1299,1210,o),
(1498,1210,q),
(1686,1210,o),
(1759,1124,q),
(1829,1041,o),
(1829,829,q),
(1829,0,l),
(1661,0,l),
(1661,798,l),
(1661,942,o),
(1633,983.5,q),
(1605,1025,o),
(1566.5,1039.5,q),
(1528,1054,o),
(1476.5,1054,q),
(1425,1054,o),
(1379.5,1044.5,q),
(1334,1035,o),
(1287,1019,q),
(1192,986,o),
(1105,935,q),
(1110,875,o),
(1110,829,q),
(1110,0,l),
(942,0,l),
(942,798,l),
(942,942,o),
(914,983.5,q),
(886,1025,o),
(847.5,1039.5,q),
(809,1054,o),
(747,1054,q)
);
}
);
width = 2047;
}
);
unicode = 109;
},
{
category = Letter;
glyphname = n;
layers = (
{
layerId = "d8941333-dd91-4113-af16-e7b241417dfa";
name = Fore;
shapes = (
{
closed = 1;
nodes = (
(591,1054,o),
(389,939,q),
(389,0,l),
(223,0,l),
(223,1190,l),
(369,1190,l),
(385,1067,l),
(494,1156,o),
(656,1194,q),
(722,1210,o),
(811,1210,q),
(900,1210,o),
(968,1189.5,q),
(1036,1169,o),
(1076,1124,q),
(1149,1043,o),
(1149,829,q),
(1149,0,l),
(981,0,l),
(981,798,l),
(981,942,o),
(953,983.5,q),
(925,1025,o),
(886.5,1039.5,q),
(848,1054,o),
(786,1054,q)
);
}
);
width = 1364;
}
);
unicode = 110;
},
{
category = Letter;
glyphname = o;
layers = (
{
layerId = "d8941333-dd91-4113-af16-e7b241417dfa";
name = Fore;
shapes = (
{
closed = 1;
nodes = (
(188,819,o),
(211,909,q),
(234,999,o),
(267.5,1051.5,q),
(301,1104,o),
(358,1139,q),
(472,1210,o),
(695,1210,q),
(1017,1210,o),
(1109,1051,q),
(1164,955,o),
(1172,780,q),
(1175,697,o),
(1175,597,q),
(1175,497,o),
(1168.5,410.5,q),
(1162,324,o),
(1143,255,q),
(1124,186,o),
(1090,134.5,q),
(1056,83,o),
(1000,48,q),
(890,-20,o),
(679,-20,q),
(363,-20,o),
(264,136,q),
(203,233,o),
(193,408,q),
(188,492,o),
(188,592,q)
);
},
{
closed = 1;
nodes = (
(605,121,o),
(699.5,121,q),
(794,121,o),
(858.5,148,q),
(923,175,o),
(955.5,234.5,q),
(988,294,o),
(996.5,389,q),
(1005,484,o),
(1005,610,q),
(1005,736,o),
(997.5,820,q),
(990,904,o),
(960,959,q),
(900,1067,o),
(693,1067,q),
(474,1067,o),
(408,959,q),
(375,904,o),
(366,819,q),
(357,734,o),
(357,634,q),
(357,534,o),
(359.5,464.5,q),
(362,395,o),
(372.5,339.5,q),
(383,284,o),
(403.5,243,q),
(424,202,o),
(460,175,q),
(496,148,o),
(550.5,134.5,q)
);
}
);
width = 1363;
}
);
unicode = 111;
},
{
category = Letter;
glyphname = p;
layers = (
{
layerId = "d8941333-dd91-4113-af16-e7b241417dfa";
name = Fore;
shapes = (
{
closed = 1;
nodes = (
(383,-455,l),
(217,-455,l),
(217,1190,l),
(352,1190,l),
(371,1067,l),
(488,1155,o),
(676,1196,q),
(744,1210,o),
(824,1210,q),
(904,1210,o),
(965.5,1189,q),
(1027,1168,o),
(1067,1130.5,q),
(1107,1093,o),
(1129,1041,q),
(1151,989,o),
(1162,928,q),
(1176,844,o),
(1176,660,q),
(1176,637,l),
(1176,403,o),
(1160,313,q),
(1144,223,o),
(1118,164.5,q),
(1092,106,o),
(1046,65,q),
(951,-20,o),
(752,-20,q),
(553,-20,o),
(383,71,q)
);
},
{
closed = 1;
nodes = (
(553,130,o),
(740,130,q),
(862,130,o),
(918,175,q),
(994,237,o),
(1003,464,q),
(1006,539,o),
(1006,636,q),
(1006,658,l),
(1006,888,o),
(966,966,q),
(921,1055,o),
(780,1055,q),
(765,1055,l),
(618,1055,o),
(460,982,q),
(414,961,o),
(383,939,q),
(383,208,l)
);
}
);
width = 1364;
}
);
unicode = 112;
},
{
category = Letter;
glyphname = q;
layers = (
{
layerId = "d8941333-dd91-4113-af16-e7b241417dfa";
name = Fore;
shapes = (
{
closed = 1;
nodes = (
(793,-20,o),
(580,-20,q),
(331,-20,o),
(248,157,q),
(200,257,o),
(192,410,q),
(189,480,o),
(189,564.5,q),
(189,649,o),
(190.5,735,q),
(192,821,o),
(203,894,q),
(214,967,o),
(237.5,1025.5,q),
(261,1084,o),
(305,1125,q),
(396,1210,o),
(585.5,1210,q),
(775,1210,o),
(989,1108,q),
(1005,1190,l),
(1149,1190,l),
(1150,-455,l),
(984,-455,l),
(984,114,l)
);
},
{
closed = 1;
nodes = (
(804,1060,o),
(636,1060,q),
(514,1060,o),
(475,1040,q),
(436,1020,o),
(415.5,988,q),
(395,956,o),
(382,900,q),
(359,795,o),
(359,554,q),
(359,532,l),
(359,310,o),
(414,221,q),
(469,130,o),
(615,130,q),
(630,130,l),
(768,130,o),
(912,206,q),
(953,227,o),
(984,249,q),
(984,970,l)
);
}
);
width = 1364;
}
);
unicode = 113;
},
{
category = Letter;
glyphname = r;
layers = (
{
layerId = "d8941333-dd91-4113-af16-e7b241417dfa";
name = Fore;
shapes = (
{
closed = 1;
nodes = (
(522,1045,o),
(389,917,q),
(389,0,l),
(223,0,l),
(223,1190,l),
(369,1190,l),
(385,1032,l),
(432,1105,o),
(486.5,1146,q),
(541,1187,o),
(576,1196,q),
(626,1210,o),
(671,1210,q),
(716,1210,o),
(784,1192,q),
(769,1033,l),
(718,1045,o),
(650,1045,q)
);
}
);
width = 854;
}
);
unicode = 114;
},
{
category = Letter;
glyphname = s;
layers = (
{
layerId = "d8941333-dd91-4113-af16-e7b241417dfa";
name = Fore;
shapes = (
{
closed = 1;
nodes = (
(431,121,o),
(639,121,q),
(812,121,o),
(842,244,q),
(852,286,o),
(852,346.5,q),
(852,407,o),
(838,440.5,q),
(824,474,o),
(791,490.5,q),
(758,507,o),
(703.5,515,q),
(649,523,o),
(565,537.5,q),
(481,552,o),
(411,570,q),
(341,588,o),
(292,622,q),
(188,695,o),
(192,868,q),
(192,893,l),
(192,1075,o),
(312,1152,q),
(428,1228,o),
(695,1204,q),
(877,1187,o),
(985,1141,q),
(938,990,l),
(818,1041,o),
(650,1064,q),
(598,1071,o),
(552.5,1071,q),
(507,1071,o),
(470,1064,q),
(433,1057,o),
(408,1038,q),
(360,999,o),
(358,893,q),
(355,768,o),
(428,734,q),
(498,701,o),
(594,688.5,q),
(690,676,o),
(751,666.5,q),
(812,657,o),
(862,641,q),
(912,625,o),
(948,590,q),
(1023,519,o),
(1021,343,q),
(1016,36,o),
(765,-7,q),
(689,-20,o),
(613,-20,q),
(537,-20,o),
(473.5,-10.5,q),
(410,-1,o),
(352,16,q),
(242,47,o),
(153,98,q),
(225,236,l)
);
}
);
width = 1194;
}
);
unicode = 115;
},
{
category = Letter;
glyphname = t;
layers = (
{
layerId = "d8941333-dd91-4113-af16-e7b241417dfa";
name = Fore;
shapes = (
{
closed = 1;
nodes = (
(646,-20,o),
(508,-20,q),
(258,-20,o),
(224,194,q),
(216,245,o),
(216,342,q),
(216,1051,l),
(72,1051,l),
(72,1174,l),
(216,1190,l),
(242,1462,l),
(381,1462,l),
(381,1190,l),
(728,1190,l),
(728,1051,l),
(381,1051,l),
(381,345,l),
(381,222,o),
(399,188,q),
(432,126,o),
(531,126,q),
(630,126,o),
(752,187,q),
(809,57,l)
);
}
);
width = 854;
}
);
unicode = 116;
},
{
category = Letter;
glyphname = u;
layers = (
{
layerId = "d8941333-dd91-4113-af16-e7b241417dfa";
name = Fore;
shapes = (
{
closed = 1;
nodes = (
(1123,194,o),
(1142,8,q),
(993,-4,l),
(969,137,l),
(852,40,o),
(696,-3,q),
(634,-20,o),
(548.5,-20,q),
(463,-20,o),
(395.5,0.5,q),
(328,21,o),
(288,66,q),
(215,147,o),
(215,361,q),
(215,1190,l),
(383,1190,l),
(383,388,l),
(383,244,o),
(411,202.5,q),
(439,161,o),
(477.5,146.5,q),
(516,132,o),
(569,132,q),
(622,132,o),
(671.5,140.5,q),
(721,149,o),
(771,165,q),
(876,199,o),
(961,258,q),
(961,259,l),
(957,335,o),
(957,555,q),
(957,1190,l),
(1123,1190,l),
(1123,524,l)
);
}
);
width = 1364;
}
);
unicode = 117;
},
{
category = Letter;
glyphname = v;
layers = (
{
layerId = "d8941333-dd91-4113-af16-e7b241417dfa";
name = Fore;
shapes = (
{
closed = 1;
nodes = (
(261,1190,l),
(573,219,l),
(603,120,l),
(631,219,l),
(929,1190,l),
(1110,1190,l),
(708,0,l),
(490,0,l),
(82,1190,l)
);
}
);
width = 1193;
}
);
unicode = 118;
},
{
category = Letter;
glyphname = w;
layers = (
{
layerId = "d8941333-dd91-4113-af16-e7b241417dfa";
name = Fore;
shapes = (
{
closed = 1;
nodes = (
(271,1190,l),
(523,316,l),
(568,125,l),
(601,285,l),
(861,1190,l),
(1025,1190,l),
(1281,316,l),
(1325,123,l),
(1357,286,l),
(1605,1190,l),
(1785,1190,l),
(1433,0,l),
(1214,0,l),
(986,763,l),
(940,997,l),
(899,763,l),
(672,0,l),
(463,0,l),
(93,1190,l)
);
}
);
width = 1875;
}
);
unicode = 119;
},
{
category = Letter;
glyphname = x;
layers = (
{
layerId = "d8941333-dd91-4113-af16-e7b241417dfa";
name = Fore;
shapes = (
{
closed = 1;
nodes = (
(100,1190,l),
(294,1190,l),
(590,709,l),
(891,1190,l),
(1082,1190,l),
(694,608,l),
(1105,0,l),
(913,0,l),
(589,495,l),
(271,0,l),
(88,0,l),
(482,603,l)
);
}
);
width = 1193;
}
);
unicode = 120;
},
{
category = Letter;
glyphname = y;
layers = (
{
layerId = "d8941333-dd91-4113-af16-e7b241417dfa";
name = Fore;
shapes = (
{
closed = 1;
nodes = (
(270,-314,o),
(316.5,-314,q),
(363,-314,o),
(377.5,-311.5,q),
(392,-309,o),
(407,-301,q),
(442,-282,o),
(459,-239,q),
(501,-137,o),
(532,-15,q),
(73,1190,l),
(258,1190,l),
(568,313,l),
(615,159,l),
(658,314,l),
(932,1190,l),
(1106,1190,l),
(604,-282,l),
(549,-454,o),
(350,-454,q),
(224,-454,o),
(152,-418,q),
(197,-288,l)
);
}
);
width = 1192;
}
);
unicode = 121;
},
{
category = Letter;
glyphname = z;
layers = (
{
layerId = "d8941333-dd91-4113-af16-e7b241417dfa";
name = Fore;
shapes = (
{
closed = 1;
nodes = (
(715,1052,l),
(93,1052,l),
(93,1190,l),
(917,1190,l),
(917,1077,l),
(310,139,l),
(942,139,l),
(942,0,l),
(106,0,l),
(106,113,l)
);
}
);
width = 1024;
}
);
unicode = 122;
},
{
category = Letter;
glyphname = braceleft;
layers = (
{
layerId = "d8941333-dd91-4113-af16-e7b241417dfa";
name = Fore;
shapes = (
{
closed = 1;
nodes = (
(590,1911,o),
(525,1911,q),
(381,1911,o),
(320,1850,q),
(261,1789,o),
(261,1644,q),
(261,1109,l),
(261,1022,o),
(218,987,q),
(175,952,o),
(21,916,q),
(21,758,l),
(171,723,o),
(207.5,692,q),
(244,661,o),
(252.5,631.5,q),
(261,602,o),
(261,559,q),
(261,-2,l),
(261,-147,o),
(320,-208,q),
(381,-269,o),
(516,-269,q),
(590,-269,o),
(654,-254,q),
(638,-138,l),
(574,-147,o),
(536,-147,q),
(498,-147,o),
(476,-141,q),
(454,-135,o),
(439,-120,q),
(411,-92,o),
(411,-21,q),
(411,567,l),
(411,674,o),
(379,717,q),
(313,805,o),
(149,837,q),
(382,883,o),
(405,1024,q),
(411,1065,o),
(411,1107,q),
(411,1663,l),
(411,1734,o),
(433,1756,q),
(466,1789,o),
(520,1789,q),
(574,1789,o),
(638,1780,q),
(654,1896,l)
);
}
);
width = 851;
}
);
unicode = 123;
},
{
category = Letter;
glyphname = bar;
layers = (
{
layerId = "d8941333-dd91-4113-af16-e7b241417dfa";
name = Fore;
shapes = (
{
closed = 1;
nodes = (
(502,2000,l),
(502,-178,l),
(352,-178,l),
(352,2000,l)
);
}
);
width = 854;
}
);
unicode = 124;
},
{
category = Letter;
glyphname = braceright;
layers = (
{
layerId = "d8941333-dd91-4113-af16-e7b241417dfa";
name = Fore;
shapes = (
{
closed = 1;
nodes = (
(253,1911,o),
(318,1911,q),
(462,1911,o),
(523,1850,q),
(582,1789,o),
(582,1644,q),
(582,1109,l),
(582,1022,o),
(625,987,q),
(668,952,o),
(822,916,q),
(822,758,l),
(672,723,o),
(635.5,692,q),
(599,661,o),
(590.5,631.5,q),
(582,602,o),
(582,559,q),
(582,-2,l),
(582,-147,o),
(523,-208,q),
(462,-269,o),
(327,-269,q),
(253,-269,o),
(189,-254,q),
(205,-138,l),
(269,-147,o),
(307,-147,q),
(345,-147,o),
(367,-141,q),
(389,-135,o),
(404,-120,q),
(432,-92,o),
(432,-21,q),
(432,567,l),
(432,674,o),
(464,717,q),
(530,805,o),
(694,837,q),
(461,883,o),
(438,1024,q),
(432,1065,o),
(432,1107,q),
(432,1663,l),
(432,1734,o),
(410,1756,q),
(377,1789,o),
(323,1789,q),
(269,1789,o),
(205,1780,q),
(189,1896,l)
);
}
);
width = 852;
}
);
unicode = 125;
},
{
category = Letter;
glyphname = asciitilde;
layers = (
{
layerId = "d8941333-dd91-4113-af16-e7b241417dfa";
name = Fore;
shapes = (
{
closed = 1;
nodes = (
(388,631,o),
(255,445,q),
(156,528,l),
(234,680,o),
(351,746,q),
(433,793,o),
(508,793,q),
(583,793,o),
(626.5,780,q),
(670,767,o),
(709,747.5,q),
(748,728,o),
(784,705,q),
(820,682,o),
(855,662,q),
(937,617,o),
(1003,617,q),
(1146,617,o),
(1279,803,q),
(1378,720,l),
(1242,454,o),
(1001,454,q),
(889,454,o),
(751,542,q),
(664,598,o),
(617.5,614.5,q),
(571,631,o),
(530,631,q)
);
}
);
width = 1535;
}
);
unicode = 126;
},
{
category = Letter;
glyphname = exclamdown;
layers = (
{
layerId = "d8941333-dd91-4113-af16-e7b241417dfa";
name = Fore;
shapes = (
{
closed = 1;
nodes = (
(168,-339,l),
(192,779,l),
(323,779,l),
(356,-339,l)
);
},
{
closed = 1;
nodes = (
(372,1118,o),
(372,1078.5,q),
(372,1039,o),
(366.5,1014,q),
(361,989,o),
(348,975,q),
(324,949,o),
(272,949,q),
(220,949,o),
(197.5,954.5,q),
(175,960,o),
(162,975,q),
(139,1000,o),
(139,1078,q),
(139,1156,o),
(157,1177,q),
(185,1210,o),
(255,1210,q),
(325,1210,o),
(343.5,1189.5,q),
(362,1169,o),
(367,1143.5,q)
);
}
);
width = 512;
}
);
unicode = 161;
},
{
category = Letter;
glyphname = cent;
layers = (
{
layerId = "d8941333-dd91-4113-af16-e7b241417dfa";
name = Fore;
shapes = (
{
closed = 1;
nodes = (
(895,154,o),
(686,146,q),
(686,-168,l),
(546,-168,l),
(546,149,l),
(352,165,o),
(255,281,q),
(174,367,o),
(162,553,q),
(158,614,o),
(158,679,q),
(158,744,o),
(161,803.5,q),
(164,863,o),
(176.5,918.5,q),
(189,974,o),
(213.5,1024,q),
(238,1074,o),
(282,1114,q),
(374,1199,o),
(546,1220,q),
(546,1540,l),
(686,1540,l),
(686,1225,l),
(905,1217,o),
(1016,1155,q),
(966,1007,l),
(774,1081,o),
(651.5,1081,q),
(529,1081,o),
(471.5,1057.5,q),
(414,1034,o),
(382,984,q),
(328,901,o),
(328,678,q),
(328,533,o),
(341.5,477.5,q),
(355,422,o),
(376,389,q),
(397,356,o),
(434,334,q),
(508,290,o),
(653,290,q),
(798,290,o),
(969,354,q),
(1022,219,l)
);
}
);
width = 1202;
}
);
unicode = 162;
},
{
category = Letter;
glyphname = sterling;
layers = (
{
layerId = "d8941333-dd91-4113-af16-e7b241417dfa";
name = Fore;
shapes = (
{
closed = 1;
nodes = (
(280,999,o),
(280,1180,q),
(280,1445,o),
(529,1520,q),
(616,1547,o),
(699.5,1547,q),
(783,1547,o),
(835,1542,q),
(887,1537,o),
(941,1528,q),
(1057,1507,o),
(1143,1472,q),
(1088,1322,l),
(993,1372,o),
(891.5,1389.5,q),
(790,1407,o),
(724,1407,q),
(658,1407,o),
(605,1395,q),
(552,1383,o),
(519,1354,q),
(456,1299,o),
(456,1157,q),
(456,1021,o),
(538,896,q),
(561,861,o),
(585,839,q),
(1020,839,l),
(1020,694,l),
(585,694,l),
(498,147,l),
(1143,147,l),
(1143,0,l),
(201,0,l),
(201,146,l),
(334,146,l),
(420,694,l),
(201,694,l),
(201,839,l),
(404,839,l)
);
}
);
width = 1194;
}
);
unicode = 163;
},
{
category = Letter;
glyphname = currency;
layers = (
{
layerId = "d8941333-dd91-4113-af16-e7b241417dfa";
name = Fore;
shapes = (
{
closed = 1;
nodes = (
(1166,522,o),
(1094,427,q),
(1319,203,l),
(1231,116,l),
(996,350,l),
(910,310,o),
(762.5,310,q),
(615,310,o),
(530,349,q),
(300,118,l),
(213,205,l),
(434,423,l),
(366,513,o),
(366,731.5,q),
(366,950,o),
(427,1034,q),
(211,1250,l),
(298,1338,l),
(525,1111,l),
(523,1109,l),
(611,1148,o),
(770,1148,q),
(929,1148,o),
(1012,1114,q),
(1237,1340,l),
(1322,1255,l),
(1108,1041,l),
(1145,990,o),
(1155.5,913,q),
(1166,836,o),
(1166,733,q)
);
},
{
closed = 1;
nodes = (
(851,426,o),
(903.5,441.5,q),
(956,457,o),
(986,494,q),
(1036,557,o),
(1036,751,q),
(1036,920,o),
(984,974,q),
(932,1031,o),
(775,1031,q),
(607,1031,o),
(550,974,q),
(495,918,o),
(495,748,q),
(495,562,o),
(550,494,q),
(605,426,o),
(768,426,q)
);
}
);
width = 1533;
}
);
unicode = 164;
},
{
category = Letter;
glyphname = yen;
layers = (
{
layerId = "d8941333-dd91-4113-af16-e7b241417dfa";
name = Fore;
shapes = (
{
closed = 1;
nodes = (
(440,818,l),
(65,1530,l),
(249,1530,l),
(604,818,l),
(606,818,l),
(951,1530,l),
(1138,1530,l),
(766,818,l),
(1073,818,l),
(1073,683,l),
(128,683,l),
(128,818,l)
);
},
{
closed = 1;
nodes = (
(1073,502,l),
(1073,367,l),
(682,367,l),
(682,0,l),
(511,0,l),
(511,367,l),
(128,367,l),
(128,502,l)
);
}
);
width = 1194;
}
);
unicode = 165;
},
{
category = Letter;
glyphname = brokenbar;
layers = (
{
layerId = "d8941333-dd91-4113-af16-e7b241417dfa";
name = Fore;
shapes = (
{
closed = 1;
nodes = (
(502,2000,l),
(502,1068,l),
(352,1068,l),
(352,2000,l)
);
},
{
closed = 1;
nodes = (
(502,754,l),
(502,-178,l),
(352,-178,l),
(352,754,l)
);
}
);
width = 854;
}
);
unicode = 166;
},
{
category = Letter;
glyphname = section;
layers = (
{
layerId = "d8941333-dd91-4113-af16-e7b241417dfa";
name = Fore;
shapes = (
{
closed = 1;
nodes = (
(192,1549,o),
(557,1549,q),
(571,1549,l),
(822,1549,o),
(985,1480,q),
(938,1329,l),
(818,1380,o),
(650,1403,q),
(598,1410,o),
(552.5,1410,q),
(507,1410,o),
(470,1403,q),
(433,1396,o),
(408,1376,q),
(358,1338,o),
(358,1232,q),
(358,1224,l),
(358,1106,o),
(429,1074,q),
(500,1042,o),
(594,1029.5,q),
(688,1017,o),
(748.5,1007,q),
(809,997,o),
(859,981.5,q),
(909,966,o),
(945,932,q),
(1021,862,o),
(1021,693,q),
(1021,682,l),
(1021,538,o),
(944,458,q),
(911,423,o),
(888,408,q),
(1021,348,o),
(1021,135,q),
(1021,124,l),
(1021,-183,o),
(766,-226,q),
(689,-239,o),
(613,-239,q),
(537,-239,o),
(473.5,-229.5,q),
(410,-220,o),
(352,-204,q),
(242,-172,o),
(153,-121,q),
(225,17,l),
(431,-98,o),
(639,-98,q),
(812,-98,o),
(842,26,q),
(852,67,o),
(852,127.5,q),
(852,188,o),
(838,221,q),
(824,254,o),
(791,270,q),
(758,286,o),
(703.5,293.5,q),
(649,301,o),
(567,315,q),
(520,323,l),
(469,329,o),
(423,345,q),
(306,375,o),
(254,436,q),
(192,507,o),
(192,639,q),
(192,674,l),
(192,816,o),
(288,886,q),
(313,905,o),
(358,931,q),
(232,979,o),
(203,1094,q),
(192,1138,o),
(192,1197,q),
(192,1232,l)
);
},
{
closed = 1;
nodes = (
(358,860,o),
(358,666,q),
(358,545,o),
(429,508,q),
(496,473,o),
(594,461.5,q),
(692,450,o),
(754,441,q),
(835,476,o),
(848,600,q),
(852,638,o),
(852,692,q),
(852,746,o),
(838,780.5,q),
(824,815,o),
(791,833,q),
(758,851,o),
(704,860,q),
(497,895,l)
);
}
);
width = 1229;
}
);
unicode = 167;
},
{
category = Letter;
glyphname = dieresis;
layers = (
{
layerId = "d8941333-dd91-4113-af16-e7b241417dfa";
name = Fore;
shapes = (
{
closed = 1;
nodes = (
(736,1481,o),
(718,1499,q),
(690,1528,o),
(690,1580,q),
(690,1632,o),
(696,1654.5,q),
(702,1677,o),
(714,1690,q),
(737,1712,o),
(783.5,1712,q),
(830,1712,o),
(851,1707,q),
(872,1702,o),
(884,1690,q),
(908,1666,o),
(908,1614.5,q),
(908,1563,o),
(902.5,1540.5,q),
(897,1518,o),
(884,1504,q),
(863,1481,o),
(799,1481,q)
);
},
{
closed = 1;
nodes = (
(278,1481,o),
(260,1499,q),
(232,1528,o),
(232,1580,q),
(232,1632,o),
(238,1654.5,q),
(244,1677,o),
(256,1690,q),
(279,1712,o),
(325.5,1712,q),
(372,1712,o),
(392.5,1707,q),
(413,1702,o),
(426,1690,q),
(448,1667,o),
(448,1615,q),
(448,1563,o),
(443,1540.5,q),
(438,1518,o),
(426,1504,q),
(404,1481,o),
(341,1481,q)
);
}
);
width = 1139;
}
);
unicode = 168;
},
{
category = Letter;
glyphname = copyright;
layers = (
{
layerId = "d8941333-dd91-4113-af16-e7b241417dfa";
name = Fore;
shapes = (
{
closed = 1;
nodes = (
(193,750,o),
(193,845,q),
(193,940,o),
(197,1032,q),
(201,1124,o),
(220.5,1201.5,q),
(240,1279,o),
(280,1340,q),
(320,1401,o),
(392,1443,q),
(543,1530,o),
(845,1530,q),
(1164,1530,o),
(1312,1454,q),
(1447,1384,o),
(1487,1223,q),
(1513,1118,o),
(1513,929.5,q),
(1513,741,o),
(1509.5,655.5,q),
(1506,570,o),
(1487,496.5,q),
(1468,423,o),
(1427.5,363.5,q),
(1387,304,o),
(1313,262,q),
(1159,173,o),
(847,173,q),
(411,173,o),
(280,376,q),
(206,491,o),
(197,668,q)
);
},
{
closed = 1;
nodes = (
(362,473,o),
(420,410,q),
(478,347,o),
(581.5,319.5,q),
(685,292,o),
(825.5,292,q),
(966,292,o),
(1051.5,303,q),
(1137,314,o),
(1196.5,338.5,q),
(1256,363,o),
(1293,404,q),
(1330,445,o),
(1350,504,q),
(1386,608,o),
(1386,782,q),
(1386,956,o),
(1379,1048.5,q),
(1372,1141,o),
(1351.5,1205.5,q),
(1331,1270,o),
(1294.5,1310,q),
(1258,1350,o),
(1198,1372,q),
(1095,1411,o),
(849,1411,q),
(617,1411,o),
(515,1373,q),
(401,1330,o),
(358,1206,q),
(319,1093,o),
(319,886.5,q),
(319,680,o),
(340.5,576.5,q)
);
},
{
closed = 1;
nodes = (
(1012,490,o),
(854,490,q),
(688,490,o),
(616,571,q),
(539,656,o),
(539,854,q),
(539,1016,o),
(598,1098,q),
(679,1212,o),
(891,1212,q),
(1039,1212,o),
(1143,1160,q),
(1093,1036,l),
(1004,1086,o),
(884,1086,q),
(765,1086,o),
(726,1036,q),
(691,990,o),
(691,849,q),
(691,719,o),
(712.5,681,q),
(734,643,o),
(767.5,628,q),
(801,613,o),
(896,613,q),
(991,613,o),
(1096,655,q),
(1133,545,l)
);
}
);
width = 1707;
}
);
unicode = 169;
},
{
category = Letter;
glyphname = ordfeminine;
layers = (
{
layerId = "d8941333-dd91-4113-af16-e7b241417dfa";
name = Fore;
shapes = (
{
closed = 1;
nodes = (
(857,810,o),
(872,647,q),
(732,639,l),
(713,742,l),
(621,667,o),
(466,638,q),
(417,628,o),
(370,628,q),
(323,628,o),
(277.5,637,q),
(232,646,o),
(196,676,q),
(114,743,o),
(114,916,q),
(114,1146,o),
(265,1200,q),
(319,1220,o),
(396,1220,q),
(547,1220,o),
(705,1159,q),
(705,1237,l),
(705,1388,o),
(575,1412,q),
(533,1419,o),
(479,1419,q),
(357,1419,o),
(212,1368,q),
(182,1496,l),
(227,1522,o),
(328,1536,q),
(429,1550,o),
(500,1550,q),
(571,1550,o),
(641.5,1533,q),
(712,1516,o),
(760,1478,q),
(857,1403,o),
(857,1237,q),
(857,959,l)
);
},
{
closed = 1;
nodes = (
(551,1095,o),
(406,1095,q),
(319,1095,o),
(292,1042,q),
(273,1004,o),
(273,932.5,q),
(273,861,o),
(280,831.5,q),
(287,802,o),
(304,784,q),
(335,750,o),
(394,750,q),
(453,750,o),
(492,758,q),
(531,766,o),
(569,780,q),
(645,807,o),
(707,854,q),
(702,949,o),
(702,1054,q)
);
}
);
width = 1024;
}
);
unicode = 170;
},
{
category = Letter;
glyphname = guillemotleft;
layers = (
{
layerId = "d8941333-dd91-4113-af16-e7b241417dfa";
name = Fore;
shapes = (
{
closed = 1;
nodes = (
(727,182,l),
(644,89,l),
(169,516,l),
(169,648,l),
(634,1082,l),
(725,996,l),
(336,584,l)
);
},
{
closed = 1;
nodes = (
(1336,182,l),
(1253,89,l),
(778,516,l),
(778,648,l),
(1243,1082,l),
(1334,996,l),
(945,584,l)
);
}
);
width = 1533;
}
);
unicode = 171;
},
{
category = Letter;
glyphname = logicalnot;
layers = (
{
layerId = "d8941333-dd91-4113-af16-e7b241417dfa";
name = Fore;
shapes = (
{
closed = 1;
nodes = (
(1196,897,l),
(1196,385,l),
(1067,385,l),
(1067,775,l),
(168,775,l),
(168,897,l)
);
}
);
width = 1364;
}
);
unicode = 172;
},
{
category = Letter;
glyphname = registered;
layers = (
{
layerId = "d8941333-dd91-4113-af16-e7b241417dfa";
name = Fore;
shapes = (
{
closed = 1;
nodes = (
(193,750,o),
(193,845,q),
(193,940,o),
(197,1032,q),
(201,1124,o),
(220.5,1201.5,q),
(240,1279,o),
(280,1340,q),
(320,1401,o),
(392,1443,q),
(543,1530,o),
(845,1530,q),
(1164,1530,o),
(1312,1454,q),
(1447,1384,o),
(1487,1223,q),
(1513,1118,o),
(1513,929.5,q),
(1513,741,o),
(1509.5,655.5,q),
(1506,570,o),
(1487,496.5,q),
(1468,423,o),
(1427.5,363.5,q),
(1387,304,o),
(1313,262,q),
(1159,173,o),
(847,173,q),
(411,173,o),
(280,376,q),
(206,491,o),
(197,668,q)
);
},
{
closed = 1;
nodes = (
(362,473,o),
(420,410,q),
(478,347,o),
(581.5,319.5,q),
(685,292,o),
(826,292,q),
(967,292,o),
(1053,303,q),
(1139,314,o),
(1199,339,q),
(1259,364,o),
(1295.5,405.5,q),
(1332,447,o),
(1352,508,q),
(1386,612,o),
(1386,788,q),
(1386,964,o),
(1378.5,1054.5,q),
(1371,1145,o),
(1350.5,1208.5,q),
(1330,1272,o),
(1293,1311.5,q),
(1256,1351,o),
(1196,1373,q),
(1094,1411,o),
(849,1411,q),
(617,1411,o),
(515,1373,q),
(401,1330,o),
(358,1206,q),
(319,1093,o),
(319,886.5,q),
(319,680,o),
(340.5,576.5,q)
);
},
{
closed = 1;
nodes = (
(772,1205,o),
(882.5,1205,q),
(993,1205,o),
(1043.5,1192.5,q),
(1094,1180,o),
(1122,1156,q),
(1173,1115,o),
(1173,1035.5,q),
(1173,956,o),
(1164,909.5,q),
(1155,863,o),
(1134,831,q),
(1091,768,o),
(985,754,q),
(1002,737,o),
(1018,719,q),
(1187,509,l),
(1037,509,l),
(869,718,l),
(854,737,o),
(842,749,q),
(805,750,o),
(762,751,q),
(719,752,o),
(688,754,q),
(688,509,l),
(559,509,l),
(559,1190,l)
);
},
{
closed = 1;
nodes = (
(1038,949,o),
(1038,1002.5,q),
(1038,1056,o),
(995,1080,q),
(970,1094,o),
(879,1094,q),
(788,1094,o),
(688,1087,q),
(688,858,l),
(732,856,o),
(768,856,q),
(810,856,o),
(861,856,q),
(912,856,o),
(948.5,860.5,q),
(985,865,o),
(1005,879.5,q),
(1025,894,o),
(1031.5,921.5,q)
);
}
);
width = 1707;
}
);
unicode = 174;
},
{
category = Letter;
glyphname = macron;
layers = (
{
layerId = "d8941333-dd91-4113-af16-e7b241417dfa";
name = Fore;
shapes = (
{
closed = 1;
nodes = (
(727,1663,l),
(727,1528,l),
(128,1528,l),
(128,1663,l)
);
}
);
width = 856;
}
);
unicode = 175;
},
{
category = Letter;
glyphname = degree;
layers = (
{
layerId = "d8941333-dd91-4113-af16-e7b241417dfa";
name = Fore;
shapes = (
{
closed = 1;
nodes = (
(449,1117,o),
(395,1139.5,q),
(341,1162,o),
(302,1201,q),
(219,1284,o),
(219,1407,q),
(219,1531,o),
(302,1614,q),
(386,1698,o),
(513,1698,q),
(644,1698,o),
(726,1615,q),
(806,1533,o),
(806,1407,q),
(806,1285,o),
(720,1201,q),
(634,1117,o),
(512,1117,q)
);
},
{
closed = 1;
nodes = (
(474,1242,o),
(512,1242,q),
(550,1242,o),
(580,1254.5,q),
(610,1267,o),
(632,1289,q),
(678,1335,o),
(678,1407,q),
(678,1526,o),
(584,1564,q),
(553,1576,o),
(514,1576,q),
(475,1576,o),
(444,1563.5,q),
(413,1551,o),
(392,1528,q),
(346,1481,o),
(346,1407,q),
(346,1294,o),
(444,1254,q)
);
}
);
width = 1025;
}
);
unicode = 176;
},
{
category = Letter;
glyphname = plusminus;
layers = (
{
layerId = "d8941333-dd91-4113-af16-e7b241417dfa";
name = Fore;
shapes = (
{
closed = 1;
nodes = (
(694,806,l),
(694,1319,l),
(836,1319,l),
(836,806,l),
(1351,806,l),
(1351,673,l),
(836,673,l),
(836,265,l),
(694,265,l),
(694,673,l),
(180,673,l),
(180,806,l)
);
},
{
closed = 1;
nodes = (
(1321,134,l),
(1321,1,l),
(209,1,l),
(209,134,l)
);
}
);
width = 1533;
}
);
unicode = 177;
},
{
category = Letter;
glyphname = twosuperior;
layers = (
{
layerId = "d8941333-dd91-4113-af16-e7b241417dfa";
name = Fore;
shapes = (
{
closed = 1;
nodes = (
(328,1669,o),
(198,1586,q),
(139,1712,l),
(217,1770,o),
(368,1796,q),
(422,1806,o),
(479.5,1806,q),
(537,1806,o),
(595.5,1796,q),
(654,1786,o),
(700,1760,q),
(805,1700,o),
(805,1572,q),
(805,1389,o),
(551,1178,q),
(472,1113,o),
(377,1043,q),
(359,1032,l),
(839,1033,l),
(839,900,l),
(169,900,l),
(154,1013,l),
(417,1195,o),
(556,1378,q),
(638,1484,o),
(638,1554,q),
(638,1651,o),
(526,1665,q),
(494,1669,o),
(460,1669,q)
);
}
);
width = 1025;
}
);
unicode = 178;
},
{
category = Letter;
glyphname = threesuperior;
layers = (
{
layerId = "d8941333-dd91-4113-af16-e7b241417dfa";
name = Fore;
shapes = (
{
closed = 1;
nodes = (
(794,1423,o),
(608,1377,q),
(785,1377,o),
(818,1256,q),
(829,1215,o),
(829,1149.5,q),
(829,1084,o),
(802,1031,q),
(775,978,o),
(728,946,q),
(641,884,o),
(509,884,q),
(297,884,o),
(141,943,q),
(182,1074,l),
(334,1007,o),
(494,1007,q),
(639,1007,o),
(668,1095,q),
(678,1127,o),
(678,1173.5,q),
(678,1220,o),
(661.5,1245.5,q),
(645,1271,o),
(620,1283,q),
(583,1300,o),
(515.5,1300,q),
(448,1300,o),
(310,1280,q),
(294,1397,l),
(582,1435,o),
(632,1518,q),
(648,1545,o),
(648,1577.5,q),
(648,1610,o),
(632,1630,q),
(616,1650,o),
(590,1660,q),
(552,1675,o),
(490,1675,q),
(428,1675,o),
(388,1668,q),
(348,1661,o),
(313,1652,q),
(246,1633,o),
(207,1610,q),
(150,1719,l),
(270,1806,o),
(482,1806,q),
(684,1806,o),
(764,1700,q),
(794,1661,o),
(794,1603,q)
);
}
);
width = 1025;
}
);
unicode = 179;
},
{
category = Letter;
glyphname = acute;
layers = (
{
layerId = "d8941333-dd91-4113-af16-e7b241417dfa";
name = Fore;
shapes = (
{
closed = 1;
nodes = (
(349,1837,l),
(479,1716,l),
(109,1399,l),
(26,1486,l)
);
}
);
width = 510;
}
);
unicode = 180;
},
{
category = Letter;
glyphname = mu;
layers = (
{
layerId = "d8941333-dd91-4113-af16-e7b241417dfa";
name = Fore;
shapes = (
{
closed = 1;
nodes = (
(438,-20,o),
(361,51,q),
(387,-457,l),
(216,-457,l),
(216,1190,l),
(383,1190,l),
(383,388,l),
(383,243,o),
(421,192,q),
(466,132,o),
(601,132,q),
(778,132,o),
(961,258,q),
(961,259,l),
(957,335,o),
(957,555,q),
(957,1190,l),
(1123,1190,l),
(1123,524,l),
(1123,194,o),
(1142,8,q),
(993,-4,l),
(969,137,l),
(852,40,o),
(696,-3,q),
(634,-20,o),
(567,-20,q)
);
}
);
width = 1362;
}
);
unicode = (181,956);
},
{
category = Letter;
glyphname = paragraph;
layers = (
{
layerId = "d8941333-dd91-4113-af16-e7b241417dfa";
name = Fore;
shapes = (
{
closed = 1;
nodes = (
(810,506,o),
(770,506,q),
(527,506,o),
(392,643,q),
(255,781,o),
(255,1031,q),
(255,1296,o),
(424,1420,q),
(575,1530,o),
(863,1530,q),
(1396,1530,l),
(1396,0,l),
(1226,1,l),
(1226,1377,l),
(1026,1363,l),
(1026,0,l),
(856,0,l),
(856,510,l)
);
}
);
width = 1704;
}
);
unicode = 182;
},
{
category = Letter;
glyphname = periodcentered;
layers = (
{
layerId = "d8941333-dd91-4113-af16-e7b241417dfa";
name = Fore;
shapes = (
{
closed = 1;
nodes = (
(139,573,o),
(139,612.5,q),
(139,652,o),
(144.5,677,q),
(150,702,o),
(164,716,q),
(187,742,o),
(239,742,q),
(291,742,o),
(313.5,736.5,q),
(336,731,o),
(349,716,q),
(372,691,o),
(372,613,q),
(372,535,o),
(354,514,q),
(326,481,o),
(256,481,q),
(186,481,o),
(167.5,501.5,q),
(149,522,o),
(144,547.5,q)
);
}
);
width = 512;
}
);
unicode = 183;
},
{
category = Letter;
glyphname = cedilla;
layers = (
{
layerId = "d8941333-dd91-4113-af16-e7b241417dfa";
name = Fore;
shapes = (
{
closed = 1;
nodes = (
(281,-113,o),
(174,1,q),
(175,11,l),
(247,48,l),
(421,-57,o),
(421,-229,q),
(421,-326,o),
(364.5,-377,q),
(308,-428,o),
(205,-428,q),
(118,-428,o),
(71,-409,q),
(96,-281,l),
(143,-291,o),
(182.5,-291,q),
(222,-291,o),
(251.5,-270,q),
(281,-249,o),
(281,-203,q)
);
}
);
width = 511;
}
);
unicode = 184;
},
{
category = Letter;
glyphname = onesuperior;
layers = (
{
layerId = "d8941333-dd91-4113-af16-e7b241417dfa";
name = Fore;
shapes = (
{
closed = 1;
nodes = (
(110,1613,l),
(90,1737,l),
(446,1793,l),
(446,901,l),
(295,901,l),
(295,1644,l)
);
}
);
width = 683;
}
);
unicode = 185;
},
{
category = Letter;
glyphname = ordmasculine;
layers = (
{
layerId = "d8941333-dd91-4113-af16-e7b241417dfa";
name = Fore;
shapes = (
{
closed = 1;
nodes = (
(723,628,o),
(615,628,q),
(507,628,o),
(444,641.5,q),
(381,655,o),
(338.5,681.5,q),
(296,708,o),
(270.5,747,q),
(245,786,o),
(232,837,q),
(211,919,o),
(211,1057.5,q),
(211,1196,o),
(222,1282,q),
(233,1368,o),
(274,1428,q),
(356,1549,o),
(608,1549,q),
(859,1549,o),
(932,1428,q),
(975,1354,o),
(980,1224,q),
(983,1163,o),
(983,1070.5,q),
(983,978,o),
(970.5,891,q),
(958,804,o),
(917,745.5,q),
(876,687,o),
(799.5,657.5,q)
);
},
{
closed = 1;
nodes = (
(516,744,o),
(586,744,q),
(656,744,o),
(695,753,q),
(734,762,o),
(759,780.5,q),
(784,799,o),
(797.5,828,q),
(811,857,o),
(817,898,q),
(825,952,o),
(825,1109,q),
(825,1155,l),
(825,1224,o),
(820.5,1276.5,q),
(816,1329,o),
(795,1364,q),
(753,1433,o),
(607,1433,q),
(442,1433,o),
(398,1352,q),
(376,1311,o),
(372.5,1249.5,q),
(369,1188,o),
(369,1106,q),
(369,1053,l),
(369,976,o),
(373.5,918.5,q),
(378,861,o),
(400.5,822,q),
(423,783,o),
(469.5,763.5,q)
);
}
);
width = 1194;
}
);
unicode = 186;
},
{
category = Letter;
glyphname = guillemotright;
layers = (
{
layerId = "d8941333-dd91-4113-af16-e7b241417dfa";
name = Fore;
shapes = (
{
closed = 1;
nodes = (
(186,993,l),
(269,1086,l),
(744,659,l),
(744,527,l),
(279,93,l),
(188,179,l),
(577,591,l)
);
},
{
closed = 1;
nodes = (
(802,993,l),
(885,1086,l),
(1360,659,l),
(1360,527,l),
(895,93,l),
(804,179,l),
(1193,591,l)
);
}
);
width = 1529;
}
);
unicode = 187;
},
{
category = Letter;
glyphname = onequarter;
layers = (
{
layerId = "d8941333-dd91-4113-af16-e7b241417dfa";
name = Fore;
shapes = (
{
closed = 1;
nodes = (
(41,1353,l),
(21,1477,l),
(377,1533,l),
(377,641,l),
(226,641,l),
(226,1384,l)
);
},
{
closed = 1;
nodes = (
(1307,905,l),
(1516,905,l),
(1516,343,l),
(1657,343,l),
(1657,232,l),
(1516,219,l),
(1516,-1,l),
(1365,-1,l),
(1365,217,l),
(831,217,l),
(831,319,l)
);
},
{
closed = 1;
nodes = (
(1364,775,l),
(1350,760,o),
(1330,736,q),
(1007,343,l),
(1364,343,l)
);
},
{
closed = 1;
nodes = (
(1217,1531,l),
(357,0,l),
(208,0,l),
(1065,1531,l)
);
}
);
width = 1705;
}
);
unicode = 188;
},
{
category = Letter;
glyphname = onehalf;
layers = (
{
layerId = "d8941333-dd91-4113-af16-e7b241417dfa";
name = Fore;
shapes = (
{
closed = 1;
nodes = (
(116,1353,l),
(96,1477,l),
(452,1533,l),
(452,641,l),
(301,641,l),
(301,1384,l)
);
},
{
closed = 1;
nodes = (
(1237,769,o),
(1107,686,q),
(1048,812,l),
(1126,870,o),
(1278,896,q),
(1331,906,o),
(1388.5,906,q),
(1446,906,o),
(1504.5,896,q),
(1563,886,o),
(1610,860,q),
(1714,800,o),
(1714,672,q),
(1714,489,o),
(1460,278,q),
(1381,213,o),
(1286,143,q),
(1268,132,l),
(1748,133,l),
(1748,0,l),
(1078,0,l),
(1063,113,l),
(1326,295,o),
(1466,478,q),
(1547,584,o),
(1547,654,q),
(1547,751,o),
(1436,765,q),
(1403,769,o),
(1369,769,q)
);
},
{
closed = 1;
nodes = (
(1281,1531,l),
(421,0,l),
(272,0,l),
(1129,1531,l)
);
}
);
width = 1875;
}
);
unicode = 189;
},
{
category = Letter;
glyphname = threequarters;
layers = (
{
layerId = "d8941333-dd91-4113-af16-e7b241417dfa";
name = Fore;
shapes = (
{
closed = 1;
nodes = (
(699,1167,o),
(513,1121,q),
(690,1121,o),
(723,1000,q),
(734,959,o),
(734,893.5,q),
(734,828,o),
(707,775,q),
(680,722,o),
(634,690,q),
(546,628,o),
(414,628,q),
(202,628,o),
(46,687,q),
(87,818,l),
(239,751,o),
(399,751,q),
(544,751,o),
(572,839,q),
(583,871,o),
(583,917.5,q),
(583,964,o),
(566.5,989.5,q),
(550,1015,o),
(524,1027,q),
(488,1044,o),
(420,1044,q),
(352,1044,o),
(215,1024,q),
(199,1141,l),
(487,1179,o),
(537,1262,q),
(553,1289,o),
(553,1321.5,q),
(553,1354,o),
(537,1374,q),
(521,1394,o),
(496,1404,q),
(457,1419,o),
(395,1419,q),
(333,1419,o),
(293,1412,q),
(253,1405,o),
(218,1396,q),
(151,1377,o),
(112,1354,q),
(55,1463,l),
(175,1550,o),
(387,1550,q),
(589,1550,o),
(670,1444,q),
(699,1405,o),
(699,1347,q)
);
},
{
closed = 1;
nodes = (
(1659,905,l),
(1868,905,l),
(1868,343,l),
(2009,343,l),
(2009,232,l),
(1868,219,l),
(1868,-1,l),
(1717,-1,l),
(1717,217,l),
(1183,217,l),
(1183,319,l)
);
},
{
closed = 1;
nodes = (
(1716,775,l),
(1702,760,o),
(1682,736,q),
(1359,343,l),
(1716,343,l)
);
},
{
closed = 1;
nodes = (
(1551,1531,l),
(691,0,l),
(542,0,l),
(1399,1531,l)
);
}
);
width = 2045;
}
);
unicode = 190;
},
{
category = Letter;
glyphname = questiondown;
layers = (
{
layerId = "d8941333-dd91-4113-af16-e7b241417dfa";
name = Fore;
shapes = (
{
closed = 1;
nodes = (
(691,571,o),
(653,533,q),
(399,271,l),
(339,207,o),
(327,173,q),
(312,128,o),
(312,80,q),
(312,32,o),
(313,10,q),
(314,-12,o),
(318,-27,q),
(325,-55,o),
(344.5,-68.5,q),
(364,-82,o),
(404.5,-98.5,q),
(445,-115,o),
(507,-134,q),
(654,-179,o),
(821,-199,q),
(788,-369,l),
(491,-328,o),
(298,-233,q),
(178,-173,o),
(155,-90,q),
(143,-47,o),
(143,22,q),
(143,91,o),
(147,129.5,q),
(151,168,o),
(161.5,200,q),
(172,232,o),
(191,261.5,q),
(210,291,o),
(239.5,324,q),
(269,357,o),
(311,396,q),
(519,586,l),
(541,778,l),
(664,778,l),
(684,627,l)
);
},
{
closed = 1;
nodes = (
(714,1117,o),
(714,1077.5,q),
(714,1038,o),
(708.5,1013,q),
(703,988,o),
(690,974,q),
(666,948,o),
(614,948,q),
(562,948,o),
(539.5,953.5,q),
(517,959,o),
(504,974,q),
(481,999,o),
(481,1077,q),
(481,1155,o),
(499,1176,q),
(527,1209,o),
(597,1209,q),
(667,1209,o),
(685.5,1188.5,q),
(704,1168,o),
(709,1142.5,q)
);
}
);
width = 1024;
}
);
unicode = 191;
},
{
category = Letter;
glyphname = Agrave;
layers = (
{
layerId = "d8941333-dd91-4113-af16-e7b241417dfa";
name = Fore;
shapes = (
{
closed = 1;
nodes = (
(783,1530,l),
(1318,0,l),
(1137,0,l),
(985,449,l),
(369,449,l),
(225,0,l),
(49,0,l),
(550,1530,l)
);
},
{
closed = 1;
nodes = (
(667,1395,l),
(636,1281,l),
(415,592,l),
(937,592,l)
);
},
{
closed = 1;
nodes = (
(437,2000,l),
(858,1741,l),
(808,1649,l),
(353,1836,l)
);
}
);
width = 1364;
}
);
unicode = 192;
},
{
category = Letter;
glyphname = Aacute;
layers = (
{
layerId = "d8941333-dd91-4113-af16-e7b241417dfa";
name = Fore;
shapes = (
{
closed = 1;
nodes = (
(783,1530,l),
(1318,0,l),
(1137,0,l),
(985,449,l),
(369,449,l),
(225,0,l),
(49,0,l),
(550,1530,l)
);
},
{
closed = 1;
nodes = (
(667,1395,l),
(636,1281,l),
(415,592,l),
(937,592,l)
);
},
{
closed = 1;
nodes = (
(873,2000,l),
(966,1841,l),
(507,1649,l),
(457,1741,l)
);
}
);
width = 1364;
}
);
unicode = 193;
},
{
category = Letter;
glyphname = Acircumflex;
layers = (
{
layerId = "d8941333-dd91-4113-af16-e7b241417dfa";
name = Fore;
shapes = (
{
closed = 1;
nodes = (
(783,1530,l),
(1318,0,l),
(1137,0,l),
(985,449,l),
(369,449,l),
(225,0,l),
(49,0,l),
(550,1530,l)
);
},
{
closed = 1;
nodes = (
(667,1395,l),
(636,1281,l),
(415,592,l),
(937,592,l)
);
},
{
closed = 1;
nodes = (
(586,1991,l),
(746,1991,l),
(979,1743,l),
(902,1663,l),
(665,1863,l),
(436,1662,l),
(362,1744,l)
);
}
);
width = 1364;
}
);
unicode = 194;
},
{
category = Letter;
glyphname = Atilde;
layers = (
{
layerId = "d8941333-dd91-4113-af16-e7b241417dfa";
name = Fore;
shapes = (
{
closed = 1;
nodes = (
(783,1530,l),
(1318,0,l),
(1137,0,l),
(985,449,l),
(369,449,l),
(225,0,l),
(49,0,l),
(550,1530,l)
);
},
{
closed = 1;
nodes = (
(667,1395,l),
(636,1281,l),
(415,592,l),
(937,592,l)
);
},
{
closed = 1;
nodes = (
(959,1696,o),
(792,1696,q),
(744,1696,o),
(659,1756,q),
(628,1778,o),
(597.5,1796.5,q),
(567,1815,o),
(543,1815,q),
(519,1815,o),
(498.5,1805,q),
(478,1795,o),
(455,1779,q),
(432,1763,o),
(408,1742,q),
(362,1702,l),
(291,1765,l),
(347,1868,o),
(417.5,1914.5,q),
(488,1961,o),
(557,1961,q),
(570,1961,l),
(625,1961,o),
(706,1904,q),
(762,1865,l),
(788,1847,o),
(811,1847,q),
(834,1847,o),
(854,1858.5,q),
(874,1870,o),
(893.5,1889,q),
(913,1908,o),
(932,1932,q),
(971,1982,l),
(1058,1926,l)
);
}
);
width = 1364;
}
);
unicode = 195;
},
{
category = Letter;
glyphname = Adieresis;
layers = (
{
layerId = "d8941333-dd91-4113-af16-e7b241417dfa";
name = Fore;
shapes = (
{
closed = 1;
nodes = (
(783,1530,l),
(1318,0,l),
(1137,0,l),
(985,449,l),
(369,449,l),
(225,0,l),
(49,0,l),
(550,1530,l)
);
},
{
closed = 1;
nodes = (
(667,1395,l),
(636,1281,l),
(415,592,l),
(937,592,l)
);
},
{
closed = 1;
nodes = (
(827,1717,o),
(809,1735,q),
(781,1764,o),
(781,1816,q),
(781,1868,o),
(787,1890.5,q),
(793,1913,o),
(805,1926,q),
(828,1948,o),
(874.5,1948,q),
(921,1948,o),
(942,1943,q),
(963,1938,o),
(975,1926,q),
(999,1902,o),
(999,1850.5,q),
(999,1799,o),
(993.5,1776.5,q),
(988,1754,o),
(975,1740,q),
(954,1717,o),
(890,1717,q)
);
},
{
closed = 1;
nodes = (
(369,1717,o),
(351,1735,q),
(323,1764,o),
(323,1816,q),
(323,1868,o),
(329,1890.5,q),
(335,1913,o),
(347,1926,q),
(370,1948,o),
(416.5,1948,q),
(463,1948,o),
(483.5,1943,q),
(504,1938,o),
(517,1926,q),
(539,1903,o),
(539,1851,q),
(539,1799,o),
(534,1776.5,q),
(529,1754,o),
(517,1740,q),
(495,1717,o),
(432,1717,q)
);
}
);
width = 1364;
}
);
unicode = 196;
},
{
category = Letter;
glyphname = Aring;
layers = (
{
layerId = "d8941333-dd91-4113-af16-e7b241417dfa";
name = Fore;
shapes = (
{
closed = 1;
nodes = (
(783,1530,l),
(1318,0,l),
(1137,0,l),
(985,449,l),
(369,449,l),
(225,0,l),
(49,0,l),
(550,1530,l)
);
},
{
closed = 1;
nodes = (
(667,1395,l),
(636,1281,l),
(415,592,l),
(937,592,l)
);
},
{
closed = 1;
nodes = (
(496,1592,o),
(443,1701,q),
(424,1739,o),
(424,1794.5,q),
(424,1850,o),
(442.5,1889,q),
(461,1928,o),
(493,1953,q),
(553,2000,o),
(659,2000,q),
(823,2000,o),
(875,1889,q),
(894,1850,o),
(894,1794.5,q),
(894,1739,o),
(875.5,1701,q),
(857,1663,o),
(825,1639,q),
(762,1592,o),
(659,1592,q)
);
},
{
closed = 1;
nodes = (
(547,1699,o),
(657,1699,q),
(767,1699,o),
(767,1794,q),
(767,1894,o),
(657,1894,q),
(547,1894,o),
(547,1794,q)
);
}
);
width = 1364;
}
);
unicode = 197;
},
{
category = Letter;
glyphname = AE;
layers = (
{
layerId = "d8941333-dd91-4113-af16-e7b241417dfa";
name = Fore;
shapes = (
{
closed = 1;
nodes = (
(1784,1530,l),
(1784,1382,l),
(1138,1382,l),
(1138,854,l),
(1649,854,l),
(1649,707,l),
(1138,707,l),
(1138,147,l),
(1811,147,l),
(1811,0,l),
(968,0,l),
(968,420,l),
(452,420,l),
(239,0,l),
(47,0,l),
(845,1530,l)
);
},
{
closed = 1;
nodes = (
(968,1437,l),
(524,563,l),
(968,563,l)
);
}
);
width = 1875;
}
);
unicode = 198;
},
{
category = Letter;
glyphname = Ccedilla;
layers = (
{
layerId = "d8941333-dd91-4113-af16-e7b241417dfa";
name = Fore;
shapes = (
{
closed = 1;
nodes = (
(934,124,o),
(1099,187,q),
(1143,49,l),
(1067,11,o),
(960,-4.5,q),
(853,-20,o),
(771,-20,q),
(757,-20,l),
(401,-20,o),
(280,184,q),
(206,308,o),
(190,518,q),
(183,619,o),
(183,739,q),
(183,859,o),
(189.5,967.5,q),
(196,1076,o),
(216,1166.5,q),
(236,1257,o),
(274,1328,q),
(312,1399,o),
(376,1448,q),
(506,1550,o),
(754,1550,q),
(914,1550,o),
(1011.5,1529.5,q),
(1109,1509,o),
(1143,1496,q),
(1098,1338,l),
(903,1406,o),
(764.5,1406,q),
(626,1406,o),
(551.5,1372.5,q),
(477,1339,o),
(435,1262,q),
(362,1130,o),
(362,759,q),
(362,685,l),
(362,380,o),
(441,259,q),
(529,124,o),
(762,124,q),
(771,124,l)
);
},
{
closed = 1;
nodes = (
(772,-113,o),
(665,1,q),
(666,11,l),
(738,48,l),
(912,-57,o),
(912,-229,q),
(912,-326,o),
(855.5,-377,q),
(799,-428,o),
(696,-428,q),
(609,-428,o),
(562,-409,q),
(587,-281,l),
(634,-291,o),
(673.5,-291,q),
(713,-291,o),
(742.5,-270,q),
(772,-249,o),
(772,-203,q)
);
}
);
width = 1194;
}
);
unicode = 199;
},
{
category = Letter;
glyphname = Egrave;
layers = (
{
layerId = "d8941333-dd91-4113-af16-e7b241417dfa";
name = Fore;
shapes = (
{
closed = 1;
nodes = (
(1103,1530,l),
(1103,1382,l),
(406,1382,l),
(406,854,l),
(968,854,l),
(968,707,l),
(406,707,l),
(406,147,l),
(1130,147,l),
(1130,0,l),
(236,0,l),
(236,1530,l)
);
},
{
closed = 1;
nodes = (
(478,2000,l),
(899,1741,l),
(849,1649,l),
(394,1836,l)
);
}
);
width = 1195;
}
);
unicode = 200;
},
{
category = Letter;
glyphname = Eacute;
layers = (
{
layerId = "d8941333-dd91-4113-af16-e7b241417dfa";
name = Fore;
shapes = (
{
closed = 1;
nodes = (
(1103,1530,l),
(1103,1382,l),
(406,1382,l),
(406,854,l),
(968,854,l),
(968,707,l),
(406,707,l),
(406,147,l),
(1130,147,l),
(1130,0,l),
(236,0,l),
(236,1530,l)
);
},
{
closed = 1;
nodes = (
(870,2000,l),
(963,1841,l),
(504,1649,l),
(454,1741,l)
);
}
);
width = 1195;
}
);
unicode = 201;
},
{
category = Letter;
glyphname = Ecircumflex;
layers = (
{
layerId = "d8941333-dd91-4113-af16-e7b241417dfa";
name = Fore;
shapes = (
{
closed = 1;
nodes = (
(1103,1530,l),
(1103,1382,l),
(406,1382,l),
(406,854,l),
(968,854,l),
(968,707,l),
(406,707,l),
(406,147,l),
(1130,147,l),
(1130,0,l),
(236,0,l),
(236,1530,l)
);
},
{
closed = 1;
nodes = (
(605,1991,l),
(765,1991,l),
(998,1743,l),
(921,1663,l),
(684,1863,l),
(455,1662,l),
(381,1744,l)
);
}
);
width = 1195;
}
);
unicode = 202;
},
{
category = Letter;
glyphname = Edieresis;
layers = (
{
layerId = "d8941333-dd91-4113-af16-e7b241417dfa";
name = Fore;
shapes = (
{
closed = 1;
nodes = (
(1103,1530,l),
(1103,1382,l),
(406,1382,l),
(406,854,l),
(968,854,l),
(968,707,l),
(406,707,l),
(406,147,l),
(1130,147,l),
(1130,0,l),
(236,0,l),
(236,1530,l)
);
},
{
closed = 1;
nodes = (
(843,1717,o),
(825,1735,q),
(797,1764,o),
(797,1816,q),
(797,1868,o),
(803,1890.5,q),
(809,1913,o),
(821,1926,q),
(844,1948,o),
(890.5,1948,q),
(937,1948,o),
(958,1943,q),
(979,1938,o),
(991,1926,q),
(1015,1902,o),
(1015,1850.5,q),
(1015,1799,o),
(1009.5,1776.5,q),
(1004,1754,o),
(991,1740,q),
(970,1717,o),
(906,1717,q)
);
},
{
closed = 1;
nodes = (
(385,1717,o),
(367,1735,q),
(339,1764,o),
(339,1816,q),
(339,1868,o),
(345,1890.5,q),
(351,1913,o),
(363,1926,q),
(386,1948,o),
(432.5,1948,q),
(479,1948,o),
(499.5,1943,q),
(520,1938,o),
(533,1926,q),
(555,1903,o),
(555,1851,q),
(555,1799,o),
(550,1776.5,q),
(545,1754,o),
(533,1740,q),
(511,1717,o),
(448,1717,q)
);
}
);
width = 1195;
}
);
unicode = 203;
},
{
category = Letter;
glyphname = Igrave;
layers = (
{
layerId = "d8941333-dd91-4113-af16-e7b241417dfa";
name = Fore;
shapes = (
{
closed = 1;
nodes = (
(426,1530,l),
(426,0,l),
(257,0,l),
(257,1530,l)
);
},
{
closed = 1;
nodes = (
(135,2000,l),
(556,1741,l),
(506,1649,l),
(51,1836,l)
);
}
);
width = 683;
}
);
unicode = 204;
},
{
category = Letter;
glyphname = Iacute;
layers = (
{
layerId = "d8941333-dd91-4113-af16-e7b241417dfa";
name = Fore;
shapes = (
{
closed = 1;
nodes = (
(426,1530,l),
(426,0,l),
(257,0,l),
(257,1530,l)
);
},
{
closed = 1;
nodes = (
(534,2000,l),
(627,1841,l),
(168,1649,l),
(118,1741,l)
);
}
);
width = 683;
}
);
unicode = 205;
},
{
category = Letter;
glyphname = Icircumflex;
layers = (
{
layerId = "d8941333-dd91-4113-af16-e7b241417dfa";
name = Fore;
shapes = (
{
closed = 1;
nodes = (
(426,1530,l),
(426,0,l),
(257,0,l),
(257,1530,l)
);
},
{
closed = 1;
nodes = (
(261,1991,l),
(421,1991,l),
(654,1743,l),
(577,1663,l),
(340,1863,l),
(111,1662,l),
(37,1744,l)
);
}
);
width = 683;
}
);
unicode = 206;
},
{
category = Letter;
glyphname = Idieresis;
layers = (
{
layerId = "d8941333-dd91-4113-af16-e7b241417dfa";
name = Fore;
shapes = (
{
closed = 1;
nodes = (
(426,1530,l),
(426,0,l),
(257,0,l),
(257,1530,l)
);
},
{
closed = 1;
nodes = (
(507,1717,o),
(489,1735,q),
(461,1764,o),
(461,1816,q),
(461,1868,o),
(467,1890.5,q),
(473,1913,o),
(485,1926,q),
(508,1948,o),
(554.5,1948,q),
(601,1948,o),
(622,1943,q),
(643,1938,o),
(655,1926,q),
(679,1902,o),
(679,1850.5,q),
(679,1799,o),
(673.5,1776.5,q),
(668,1754,o),
(655,1740,q),
(634,1717,o),
(570,1717,q)
);
},
{
closed = 1;
nodes = (
(49,1717,o),
(31,1735,q),
(3,1764,o),
(3,1816,q),
(3,1868,o),
(9,1890.5,q),
(15,1913,o),
(27,1926,q),
(50,1948,o),
(96.5,1948,q),
(143,1948,o),
(163.5,1943,q),
(184,1938,o),
(197,1926,q),
(219,1903,o),
(219,1851,q),
(219,1799,o),
(214,1776.5,q),
(209,1754,o),
(197,1740,q),
(175,1717,o),
(112,1717,q)
);
}
);
width = 683;
}
);
unicode = 207;
},
{
category = Letter;
glyphname = Eth;
layers = (
{
layerId = "d8941333-dd91-4113-af16-e7b241417dfa";
name = Fore;
shapes = (
{
closed = 1;
nodes = (
(632,1552,o),
(783,1552,q),
(934,1552,o),
(1009.5,1541,q),
(1085,1530,o),
(1139.5,1503,q),
(1194,1476,o),
(1229.5,1429.5,q),
(1265,1383,o),
(1286,1311,q),
(1322,1183,o),
(1322,966.5,q),
(1322,750,o),
(1316,622.5,q),
(1310,495,o),
(1288.5,394.5,q),
(1267,294,o),
(1226,219.5,q),
(1185,145,o),
(1116,96,q),
(977,0,o),
(697,0,q),
(236,0,l),
(236,699,l),
(74,699,l),
(74,834,l),
(236,834,l),
(236,1520,l)
);
},
{
closed = 1;
nodes = (
(915,148,o),
(1003,209.5,q),
(1091,271,o),
(1122,416,q),
(1147,535,o),
(1147,799,q),
(1147,974,l),
(1147,1082,o),
(1140,1163.5,q),
(1133,1245,o),
(1102,1299,q),
(1042,1407,o),
(841,1407,q),
(734,1407,o),
(624,1400,q),
(406,1385,l),
(406,834,l),
(745,834,l),
(745,699,l),
(406,699,l),
(406,148,l),
(727,148,l)
);
}
);
width = 1534;
}
);
unicode = 208;
},
{
category = Letter;
glyphname = Ntilde;
layers = (
{
layerId = "d8941333-dd91-4113-af16-e7b241417dfa";
name = Fore;
shapes = (
{
closed = 1;
nodes = (
(371,1530,l),
(1075,418,l),
(1166,229,l),
(1144,439,l),
(1144,1530,l),
(1299,1530,l),
(1299,0,l),
(1156,0,l),
(457,1109,l),
(369,1281,l),
(391,1077,l),
(391,0,l),
(236,0,l),
(236,1530,l)
);
},
{
closed = 1;
nodes = (
(1063,1696,o),
(896,1696,q),
(848,1696,o),
(763,1756,q),
(732,1778,o),
(701.5,1796.5,q),
(671,1815,o),
(647,1815,q),
(623,1815,o),
(602.5,1805,q),
(582,1795,o),
(559,1779,q),
(536,1763,o),
(512,1742,q),
(466,1702,l),
(395,1765,l),
(451,1868,o),
(521.5,1914.5,q),
(592,1961,o),
(661,1961,q),
(674,1961,l),
(729,1961,o),
(810,1904,q),
(866,1865,l),
(892,1847,o),
(915,1847,q),
(938,1847,o),
(958,1858.5,q),
(978,1870,o),
(997.5,1889,q),
(1017,1908,o),
(1036,1932,q),
(1075,1982,l),
(1162,1926,l)
);
}
);
width = 1536;
}
);
unicode = 209;
},
{
category = Letter;
glyphname = Ograve;
layers = (
{
layerId = "d8941333-dd91-4113-af16-e7b241417dfa";
name = Fore;
shapes = (
{
closed = 1;
nodes = (
(383,-20,o),
(269,204,q),
(202,334,o),
(190,551,q),
(185,653,o),
(185,773,q),
(185,893,o),
(192,1000.5,q),
(199,1108,o),
(219.5,1195,q),
(240,1282,o),
(277.5,1348.5,q),
(315,1415,o),
(376,1460,q),
(502,1550,o),
(739,1550,q),
(801,1550,l),
(1172,1550,o),
(1276,1350,q),
(1341,1225,o),
(1349,1002,q),
(1353,893,o),
(1353,771.5,q),
(1353,650,o),
(1347,547.5,q),
(1341,445,o),
(1322,358,q),
(1303,271,o),
(1266.5,201,q),
(1230,131,o),
(1168,82,q),
(1040,-20,o),
(801,-20,q),
(739,-20,l)
);
},
{
closed = 1;
nodes = (
(909,124,o),
(981.5,148,q),
(1054,172,o),
(1096,232,q),
(1174,343,o),
(1174,658,q),
(1174,766,l),
(1174,917,o),
(1166,1035,q),
(1158,1153,o),
(1123,1234,q),
(1051,1402,o),
(811,1402,q),
(727,1402,l),
(483,1402,o),
(415,1245,q),
(372,1145,o),
(368,1009,q),
(364,873,o),
(364,766,q),
(364,658,l),
(364,363,o),
(452,242,q),
(537,124,o),
(739,124,q),
(799,124,l)
);
},
{
closed = 1;
nodes = (
(578,2000,l),
(999,1741,l),
(949,1649,l),
(494,1836,l)
);
}
);
width = 1534;
}
);
unicode = 210;
},
{
category = Letter;
glyphname = Oacute;
layers = (
{
layerId = "d8941333-dd91-4113-af16-e7b241417dfa";
name = Fore;
shapes = (
{
closed = 1;
nodes = (
(383,-20,o),
(269,204,q),
(202,334,o),
(190,551,q),
(185,653,o),
(185,773,q),
(185,893,o),
(192,1000.5,q),
(199,1108,o),
(219.5,1195,q),
(240,1282,o),
(277.5,1348.5,q),
(315,1415,o),
(376,1460,q),
(502,1550,o),
(739,1550,q),
(801,1550,l),
(1172,1550,o),
(1276,1350,q),
(1341,1225,o),
(1349,1002,q),
(1353,893,o),
(1353,771.5,q),
(1353,650,o),
(1347,547.5,q),
(1341,445,o),
(1322,358,q),
(1303,271,o),
(1266.5,201,q),
(1230,131,o),
(1168,82,q),
(1040,-20,o),
(801,-20,q),
(739,-20,l)
);
},
{
closed = 1;
nodes = (
(909,124,o),
(981.5,148,q),
(1054,172,o),
(1096,232,q),
(1174,343,o),
(1174,658,q),
(1174,766,l),
(1174,917,o),
(1166,1035,q),
(1158,1153,o),
(1123,1234,q),
(1051,1402,o),
(811,1402,q),
(727,1402,l),
(483,1402,o),
(415,1245,q),
(372,1145,o),
(368,1009,q),
(364,873,o),
(364,766,q),
(364,658,l),
(364,363,o),
(452,242,q),
(537,124,o),
(739,124,q),
(799,124,l)
);
},
{
closed = 1;
nodes = (
(1000,2000,l),
(1093,1841,l),
(634,1649,l),
(584,1741,l)
);
}
);
width = 1534;
}
);
unicode = 211;
},
{
category = Letter;
glyphname = Ocircumflex;
layers = (
{
layerId = "d8941333-dd91-4113-af16-e7b241417dfa";
name = Fore;
shapes = (
{
closed = 1;
nodes = (
(383,-20,o),
(269,204,q),
(202,334,o),
(190,551,q),
(185,653,o),
(185,773,q),
(185,893,o),
(192,1000.5,q),
(199,1108,o),
(219.5,1195,q),
(240,1282,o),
(277.5,1348.5,q),
(315,1415,o),
(376,1460,q),
(502,1550,o),
(739,1550,q),
(801,1550,l),
(1172,1550,o),
(1276,1350,q),
(1341,1225,o),
(1349,1002,q),
(1353,893,o),
(1353,771.5,q),
(1353,650,o),
(1347,547.5,q),
(1341,445,o),
(1322,358,q),
(1303,271,o),
(1266.5,201,q),
(1230,131,o),
(1168,82,q),
(1040,-20,o),
(801,-20,q),
(739,-20,l)
);
},
{
closed = 1;
nodes = (
(909,124,o),
(981.5,148,q),
(1054,172,o),
(1096,232,q),
(1174,343,o),
(1174,658,q),
(1174,766,l),
(1174,917,o),
(1166,1035,q),
(1158,1153,o),
(1123,1234,q),
(1051,1402,o),
(811,1402,q),
(727,1402,l),
(483,1402,o),
(415,1245,q),
(372,1145,o),
(368,1009,q),
(364,873,o),
(364,766,q),
(364,658,l),
(364,363,o),
(452,242,q),
(537,124,o),
(739,124,q),
(799,124,l)
);
},
{
closed = 1;
nodes = (
(690,1991,l),
(850,1991,l),
(1083,1743,l),
(1006,1663,l),
(769,1863,l),
(540,1662,l),
(466,1744,l)
);
}
);
width = 1534;
}
);
unicode = 212;
},
{
category = Letter;
glyphname = Otilde;
layers = (
{
layerId = "d8941333-dd91-4113-af16-e7b241417dfa";
name = Fore;
shapes = (
{
closed = 1;
nodes = (
(383,-20,o),
(269,204,q),
(202,334,o),
(190,551,q),
(185,653,o),
(185,773,q),
(185,893,o),
(192,1000.5,q),
(199,1108,o),
(219.5,1195,q),
(240,1282,o),
(277.5,1348.5,q),
(315,1415,o),
(376,1460,q),
(502,1550,o),
(739,1550,q),
(801,1550,l),
(1172,1550,o),
(1276,1350,q),
(1341,1225,o),
(1349,1002,q),
(1353,893,o),
(1353,771.5,q),
(1353,650,o),
(1347,547.5,q),
(1341,445,o),
(1322,358,q),
(1303,271,o),
(1266.5,201,q),
(1230,131,o),
(1168,82,q),
(1040,-20,o),
(801,-20,q),
(739,-20,l)
);
},
{
closed = 1;
nodes = (
(909,124,o),
(981.5,148,q),
(1054,172,o),
(1096,232,q),
(1174,343,o),
(1174,658,q),
(1174,766,l),
(1174,917,o),
(1166,1035,q),
(1158,1153,o),
(1123,1234,q),
(1051,1402,o),
(811,1402,q),
(727,1402,l),
(483,1402,o),
(415,1245,q),
(372,1145,o),
(368,1009,q),
(364,873,o),
(364,766,q),
(364,658,l),
(364,363,o),
(452,242,q),
(537,124,o),
(739,124,q),
(799,124,l)
);
},
{
closed = 1;
nodes = (
(1064,1696,o),
(897,1696,q),
(849,1696,o),
(764,1756,q),
(733,1778,o),
(702.5,1796.5,q),
(672,1815,o),
(648,1815,q),
(624,1815,o),
(603.5,1805,q),
(583,1795,o),
(560,1779,q),
(537,1763,o),
(513,1742,q),
(467,1702,l),
(396,1765,l),
(452,1868,o),
(522.5,1914.5,q),
(593,1961,o),
(662,1961,q),
(675,1961,l),
(730,1961,o),
(811,1904,q),
(867,1865,l),
(893,1847,o),
(916,1847,q),
(939,1847,o),
(959,1858.5,q),
(979,1870,o),
(998.5,1889,q),
(1018,1908,o),
(1037,1932,q),
(1076,1982,l),
(1163,1926,l)
);
}
);
width = 1534;
}
);
unicode = 213;
},
{
category = Letter;
glyphname = Odieresis;
layers = (
{
layerId = "d8941333-dd91-4113-af16-e7b241417dfa";
name = Fore;
shapes = (
{
closed = 1;
nodes = (
(383,-20,o),
(269,204,q),
(202,334,o),
(190,551,q),
(185,653,o),
(185,773,q),
(185,893,o),
(192,1000.5,q),
(199,1108,o),
(219.5,1195,q),
(240,1282,o),
(277.5,1348.5,q),
(315,1415,o),
(376,1460,q),
(502,1550,o),
(739,1550,q),
(801,1550,l),
(1172,1550,o),
(1276,1350,q),
(1341,1225,o),
(1349,1002,q),
(1353,893,o),
(1353,771.5,q),
(1353,650,o),
(1347,547.5,q),
(1341,445,o),
(1322,358,q),
(1303,271,o),
(1266.5,201,q),
(1230,131,o),
(1168,82,q),
(1040,-20,o),
(801,-20,q),
(739,-20,l)
);
},
{
closed = 1;
nodes = (
(909,124,o),
(981.5,148,q),
(1054,172,o),
(1096,232,q),
(1174,343,o),
(1174,658,q),
(1174,766,l),
(1174,917,o),
(1166,1035,q),
(1158,1153,o),
(1123,1234,q),
(1051,1402,o),
(811,1402,q),
(727,1402,l),
(483,1402,o),
(415,1245,q),
(372,1145,o),
(368,1009,q),
(364,873,o),
(364,766,q),
(364,658,l),
(364,363,o),
(452,242,q),
(537,124,o),
(739,124,q),
(799,124,l)
);
},
{
closed = 1;
nodes = (
(932,1717,o),
(914,1735,q),
(886,1764,o),
(886,1816,q),
(886,1868,o),
(892,1890.5,q),
(898,1913,o),
(910,1926,q),
(933,1948,o),
(979.5,1948,q),
(1026,1948,o),
(1047,1943,q),
(1068,1938,o),
(1080,1926,q),
(1104,1902,o),
(1104,1850.5,q),
(1104,1799,o),
(1098.5,1776.5,q),
(1093,1754,o),
(1080,1740,q),
(1059,1717,o),
(995,1717,q)
);
},
{
closed = 1;
nodes = (
(474,1717,o),
(456,1735,q),
(428,1764,o),
(428,1816,q),
(428,1868,o),
(434,1890.5,q),
(440,1913,o),
(452,1926,q),
(475,1948,o),
(521.5,1948,q),
(568,1948,o),
(588.5,1943,q),
(609,1938,o),
(622,1926,q),
(644,1903,o),
(644,1851,q),
(644,1799,o),
(639,1776.5,q),
(634,1754,o),
(622,1740,q),
(600,1717,o),
(537,1717,q)
);
}
);
width = 1534;
}
);
unicode = 214;
},
{
category = Letter;
glyphname = multiply;
layers = (
{
layerId = "d8941333-dd91-4113-af16-e7b241417dfa";
name = Fore;
shapes = (
{
closed = 1;
nodes = (
(203,1038,l),
(300,1136,l),
(676,761,l),
(1052,1136,l),
(1146,1042,l),
(770,666,l),
(1140,296,l),
(1043,200,l),
(672,568,l),
(303,199,l),
(208,292,l),
(579,663,l)
);
}
);
width = 1363;
}
);
unicode = 215;
},
{
category = Letter;
glyphname = Oslash;
layers = (
{
layerId = "d8941333-dd91-4113-af16-e7b241417dfa";
name = Fore;
shapes = (
{
closed = 1;
nodes = (
(215,148,o),
(192,524,q),
(185,638,o),
(185,765.5,q),
(185,893,o),
(192,1000.5,q),
(199,1108,o),
(219.5,1195,q),
(240,1282,o),
(277.5,1348.5,q),
(315,1415,o),
(376,1460,q),
(502,1550,o),
(739,1550,q),
(801,1550,l),
(885,1550,o),
(953,1541,q),
(1056,1846,l),
(1189,1820,l),
(1079,1512,l),
(1176,1478,o),
(1231,1413.5,q),
(1286,1349,o),
(1313,1255,q),
(1340,1161,o),
(1346.5,1038,q),
(1353,915,o),
(1353,782.5,q),
(1353,650,o),
(1347,547.5,q),
(1341,445,o),
(1322,358,q),
(1303,271,o),
(1266.5,201,q),
(1230,131,o),
(1168,82,q),
(1040,-20,o),
(801,-20,q),
(739,-20,l),
(636,-20,o),
(558,-2,q),
(447,-334,l),
(317,-310,l),
(438,38,l)
);
},
{
closed = 1;
nodes = (
(855,1402,o),
(811,1402,q),
(727,1402,l),
(483,1402,o),
(415,1245,q),
(372,1145,o),
(368,1009,q),
(364,873,o),
(364,766,q),
(364,658,l),
(364,307,o),
(494,196,q),
(700,785,l),
(904,1395,l)
);
},
{
closed = 1;
nodes = (
(663,124,o),
(739,124,q),
(799,124,l),
(909,124,o),
(981.5,148,q),
(1054,172,o),
(1096,232,q),
(1174,343,o),
(1174,658,q),
(1174,766,l),
(1174,1028,o),
(1155.5,1119.5,q),
(1137,1211,o),
(1106.5,1265.5,q),
(1076,1320,o),
(1023,1353,q),
(822,785,l),
(605,139,l)
);
}
);
width = 1534;
}
);
unicode = 216;
},
{
category = Letter;
glyphname = Ugrave;
layers = (
{
layerId = "d8941333-dd91-4113-af16-e7b241417dfa";
name = Fore;
shapes = (
{
closed = 1;
nodes = (
(382,1530,l),
(382,712,l),
(382,470,o),
(403,382,q),
(424,294,o),
(451.5,249.5,q),
(479,205,o),
(523,178,q),
(606,127,o),
(751.5,127,q),
(897,127,o),
(970.5,152,q),
(1044,177,o),
(1084.5,242,q),
(1125,307,o),
(1139,421,q),
(1153,535,o),
(1153,712,q),
(1153,1530,l),
(1321,1530,l),
(1321,718,l),
(1321,461,o),
(1302,363.5,q),
(1283,266,o),
(1249.5,198,q),
(1216,130,o),
(1155,82,q),
(1027,-20,o),
(773,-20,q),
(395,-20,o),
(285,196,q),
(224,317,o),
(217,516,q),
(214,607,o),
(214,705,q),
(214,1530,l)
);
},
{
closed = 1;
nodes = (
(601,2000,l),
(1022,1741,l),
(972,1649,l),
(517,1836,l)
);
}
);
width = 1534;
}
);
unicode = 217;
},
{
category = Letter;
glyphname = Uacute;
layers = (
{
layerId = "d8941333-dd91-4113-af16-e7b241417dfa";
name = Fore;
shapes = (
{
closed = 1;
nodes = (
(382,1530,l),
(382,712,l),
(382,470,o),
(403,382,q),
(424,294,o),
(451.5,249.5,q),
(479,205,o),
(523,178,q),
(606,127,o),
(751.5,127,q),
(897,127,o),
(970.5,152,q),
(1044,177,o),
(1084.5,242,q),
(1125,307,o),
(1139,421,q),
(1153,535,o),
(1153,712,q),
(1153,1530,l),
(1321,1530,l),
(1321,718,l),
(1321,461,o),
(1302,363.5,q),
(1283,266,o),
(1249.5,198,q),
(1216,130,o),
(1155,82,q),
(1027,-20,o),
(773,-20,q),
(395,-20,o),
(285,196,q),
(224,317,o),
(217,516,q),
(214,607,o),
(214,705,q),
(214,1530,l)
);
},
{
closed = 1;
nodes = (
(940,2000,l),
(1033,1841,l),
(574,1649,l),
(524,1741,l)
);
}
);
width = 1534;
}
);
unicode = 218;
},
{
category = Letter;
glyphname = Ucircumflex;
layers = (
{
layerId = "d8941333-dd91-4113-af16-e7b241417dfa";
name = Fore;
shapes = (
{
closed = 1;
nodes = (
(382,1530,l),
(382,712,l),
(382,470,o),
(403,382,q),
(424,294,o),
(451.5,249.5,q),
(479,205,o),
(523,178,q),
(606,127,o),
(751.5,127,q),
(897,127,o),
(970.5,152,q),
(1044,177,o),
(1084.5,242,q),
(1125,307,o),
(1139,421,q),
(1153,535,o),
(1153,712,q),
(1153,1530,l),
(1321,1530,l),
(1321,718,l),
(1321,461,o),
(1302,363.5,q),
(1283,266,o),
(1249.5,198,q),
(1216,130,o),
(1155,82,q),
(1027,-20,o),
(773,-20,q),
(395,-20,o),
(285,196,q),
(224,317,o),
(217,516,q),
(214,607,o),
(214,705,q),
(214,1530,l)
);
},
{
closed = 1;
nodes = (
(682,1991,l),
(842,1991,l),
(1075,1743,l),
(998,1663,l),
(761,1863,l),
(532,1662,l),
(458,1744,l)
);
}
);
width = 1534;
}
);
unicode = 219;
},
{
category = Letter;
glyphname = Udieresis;
layers = (
{
layerId = "d8941333-dd91-4113-af16-e7b241417dfa";
name = Fore;
shapes = (
{
closed = 1;
nodes = (
(382,1530,l),
(382,712,l),
(382,470,o),
(403,382,q),
(424,294,o),
(451.5,249.5,q),
(479,205,o),
(523,178,q),
(606,127,o),
(751.5,127,q),
(897,127,o),
(970.5,152,q),
(1044,177,o),
(1084.5,242,q),
(1125,307,o),
(1139,421,q),
(1153,535,o),
(1153,712,q),
(1153,1530,l),
(1321,1530,l),
(1321,718,l),
(1321,461,o),
(1302,363.5,q),
(1283,266,o),
(1249.5,198,q),
(1216,130,o),
(1155,82,q),
(1027,-20,o),
(773,-20,q),
(395,-20,o),
(285,196,q),
(224,317,o),
(217,516,q),
(214,607,o),
(214,705,q),
(214,1530,l)
);
},
{
closed = 1;
nodes = (
(935,1717,o),
(917,1735,q),
(889,1764,o),
(889,1816,q),
(889,1868,o),
(895,1890.5,q),
(901,1913,o),
(913,1926,q),
(936,1948,o),
(982.5,1948,q),
(1029,1948,o),
(1050,1943,q),
(1071,1938,o),
(1083,1926,q),
(1107,1902,o),
(1107,1850.5,q),
(1107,1799,o),
(1101.5,1776.5,q),
(1096,1754,o),
(1083,1740,q),
(1062,1717,o),
(998,1717,q)
);
},
{
closed = 1;
nodes = (
(477,1717,o),
(459,1735,q),
(431,1764,o),
(431,1816,q),
(431,1868,o),
(437,1890.5,q),
(443,1913,o),
(455,1926,q),
(478,1948,o),
(524.5,1948,q),
(571,1948,o),
(591.5,1943,q),
(612,1938,o),
(625,1926,q),
(647,1903,o),
(647,1851,q),
(647,1799,o),
(642,1776.5,q),
(637,1754,o),
(625,1740,q),
(603,1717,o),
(540,1717,q)
);
}
);
width = 1534;
}
);
unicode = 220;
},
{
category = Letter;
glyphname = Yacute;
layers = (
{
layerId = "d8941333-dd91-4113-af16-e7b241417dfa";
name = Fore;
shapes = (
{
closed = 1;
nodes = (
(13,1530,l),
(199,1530,l),
(526,873,l),
(600,704,l),
(673,876,l),
(993,1530,l),
(1181,1530,l),
(682,565,l),
(681,0,l),
(513,0,l),
(512,565,l)
);
},
{
closed = 1;
nodes = (
(801,2000,l),
(894,1841,l),
(435,1649,l),
(385,1741,l)
);
}
);
width = 1194;
}
);
unicode = 221;
},
{
category = Letter;
glyphname = Thorn;
layers = (
{
layerId = "d8941333-dd91-4113-af16-e7b241417dfa";
name = Fore;
shapes = (
{
closed = 1;
nodes = (
(792,249,o),
(689.5,249,q),
(587,249,o),
(406,276,q),
(406,0,l),
(236,0,l),
(236,1530,l),
(406,1530,l),
(406,1271,l),
(626,1291,o),
(784.5,1291,q),
(943,1291,o),
(1025,1263,q),
(1107,1235,o),
(1154,1182,q),
(1236,1090,o),
(1236,878,q),
(1236,660,o),
(1211.5,567,q),
(1187,474,o),
(1155,421,q),
(1123,368,o),
(1079,335.5,q),
(1035,303,o),
(995.5,287,q),
(956,271,o),
(915,262.5,q),
(874,254,o),
(833,251.5,q)
);
},
{
closed = 1;
nodes = (
(875,1146,o),
(755,1146,q),
(635,1146,o),
(406,1126,q),
(406,417,l),
(558,397,o),
(705,397,q),
(852,397,o),
(913.5,420.5,q),
(975,444,o),
(1006,500,q),
(1037,556,o),
(1045.5,649,q),
(1054,742,o),
(1054,848,q),
(1054,954,o),
(1040,1004,q),
(1026,1054,o),
(997,1085.5,q),
(968,1117,o),
(921.5,1131.5,q)
);
}
);
width = 1364;
}
);
unicode = 222;
},
{
category = Letter;
glyphname = germandbls;
layers = (
{
layerId = "d8941333-dd91-4113-af16-e7b241417dfa";
name = Fore;
shapes = (
{
closed = 1;
nodes = (
(881,121,o),
(1055,121,q),
(1227,121,o),
(1258,270,q),
(1268,319,o),
(1268,374.5,q),
(1268,430,o),
(1262,461.5,q),
(1256,493,o),
(1235,515,q),
(1199,553,o),
(1078,581.5,q),
(957,610,o),
(890,635.5,q),
(823,661,o),
(784,692,q),
(718,744,o),
(718,846,q),
(718,965,o),
(870,1064,q),
(954,1118,o),
(974.5,1150,q),
(995,1182,o),
(1002,1211,q),
(1011,1248,o),
(1011,1332.5,q),
(1011,1417,o),
(1000,1459,q),
(989,1501,o),
(958,1528,q),
(896,1582,o),
(761.5,1582,q),
(627,1582,o),
(565,1555.5,q),
(503,1529,o),
(471.5,1474,q),
(440,1419,o),
(431,1334,q),
(422,1249,o),
(422,1133,q),
(422,0,l),
(259,0,l),
(259,1120,l),
(259,1340,o),
(281.5,1429.5,q),
(304,1519,o),
(336,1570,q),
(368,1621,o),
(420,1656,q),
(526,1725,o),
(734,1725,q),
(1004,1725,o),
(1100,1621,q),
(1148,1569,o),
(1164.5,1491,q),
(1181,1413,o),
(1181,1328.5,q),
(1181,1244,o),
(1167,1193.5,q),
(1153,1143,o),
(1130,1104,q),
(1079,1017,o),
(964,945,q),
(908,910,o),
(895.5,892.5,q),
(883,875,o),
(883,855,q),
(883,835,o),
(890.5,820,q),
(898,805,o),
(913,794,q),
(938,777,o),
(1025,753,q),
(1194,706,l),
(1275,684,o),
(1329,649.5,q),
(1383,615,o),
(1410,555.5,q),
(1437,496,o),
(1437,389,q),
(1437,377,l),
(1437,45,o),
(1190,-6,q),
(1118,-20,o),
(1018,-20,q),
(823,-20,o),
(640,62,q),
(708,201,l)
);
}
);
width = 1533;
}
);
unicode = 223;
},
{
category = Letter;
glyphname = agrave;
layers = (
{
layerId = "d8941333-dd91-4113-af16-e7b241417dfa";
name = Fore;
shapes = (
{
closed = 1;
nodes = (
(1134,223,o),
(1153,8,q),
(1005,-4,l),
(980,135,l),
(853,33,o),
(644,-7,q),
(576,-20,o),
(523,-20,q),
(470,-20,o),
(429.5,-15,q),
(389,-10,o),
(351.5,4.5,q),
(314,19,o),
(282,45,q),
(250,71,o),
(226,114,q),
(175,205,o),
(175,332.5,q),
(175,460,o),
(193.5,530.5,q),
(212,601,o),
(255,648,q),
(340,741,o),
(541,741,q),
(742,741,o),
(970,665,q),
(970,795,l),
(970,1012,o),
(791,1052,q),
(733,1065,o),
(658,1065,q),
(487,1065,o),
(303,997,q),
(266,1141,l),
(317,1175,o),
(526,1202,q),
(592,1210,o),
(684.5,1210,q),
(777,1210,o),
(866,1188,q),
(955,1166,o),
(1014,1116,q),
(1134,1017,o),
(1134,795,q),
(1134,422,l)
);
},
{
closed = 1;
nodes = (
(732,599,o),
(534,599,q),
(412,599,o),
(372,529,q),
(345,480,o),
(345,384,q),
(345,288,o),
(355.5,245,q),
(366,202,o),
(390,174,q),
(437,121,o),
(545,121,q),
(714,121,o),
(880,208,q),
(931,234,o),
(972,266,q),
(966,374,o),
(966,540,q)
);
},
{
closed = 1;
nodes = (
(548,1839,l),
(873,1486,l),
(790,1399,l),
(423,1714,l)
);
}
);
width = 1364;
}
);
unicode = 224;
},
{
category = Letter;
glyphname = aacute;
layers = (
{
layerId = "d8941333-dd91-4113-af16-e7b241417dfa";
name = Fore;
shapes = (
{
closed = 1;
nodes = (
(1134,223,o),
(1153,8,q),
(1005,-4,l),
(980,135,l),
(853,33,o),
(644,-7,q),
(576,-20,o),
(523,-20,q),
(470,-20,o),
(429.5,-15,q),
(389,-10,o),
(351.5,4.5,q),
(314,19,o),
(282,45,q),
(250,71,o),
(226,114,q),
(175,205,o),
(175,332.5,q),
(175,460,o),
(193.5,530.5,q),
(212,601,o),
(255,648,q),
(340,741,o),
(541,741,q),
(742,741,o),
(970,665,q),
(970,795,l),
(970,1012,o),
(791,1052,q),
(733,1065,o),
(658,1065,q),
(487,1065,o),
(303,997,q),
(266,1141,l),
(317,1175,o),
(526,1202,q),
(592,1210,o),
(684.5,1210,q),
(777,1210,o),
(866,1188,q),
(955,1166,o),
(1014,1116,q),
(1134,1017,o),
(1134,795,q),
(1134,422,l)
);
},
{
closed = 1;
nodes = (
(732,599,o),
(534,599,q),
(412,599,o),
(372,529,q),
(345,480,o),
(345,384,q),
(345,288,o),
(355.5,245,q),
(366,202,o),
(390,174,q),
(437,121,o),
(545,121,q),
(714,121,o),
(880,208,q),
(931,234,o),
(972,266,q),
(966,374,o),
(966,540,q)
);
},
{
closed = 1;
nodes = (
(830,1837,l),
(960,1716,l),
(590,1399,l),
(507,1486,l)
);
}
);
width = 1364;
}
);
unicode = 225;
},
{
category = Letter;
glyphname = acircumflex;
layers = (
{
layerId = "d8941333-dd91-4113-af16-e7b241417dfa";
name = Fore;
shapes = (
{
closed = 1;
nodes = (
(1134,223,o),
(1153,8,q),
(1005,-4,l),
(980,135,l),
(853,33,o),
(644,-7,q),
(576,-20,o),
(523,-20,q),
(470,-20,o),
(429.5,-15,q),
(389,-10,o),
(351.5,4.5,q),
(314,19,o),
(282,45,q),
(250,71,o),
(226,114,q),
(175,205,o),
(175,332.5,q),
(175,460,o),
(193.5,530.5,q),
(212,601,o),
(255,648,q),
(340,741,o),
(541,741,q),
(742,741,o),
(970,665,q),
(970,795,l),
(970,1012,o),
(791,1052,q),
(733,1065,o),
(658,1065,q),
(487,1065,o),
(303,997,q),
(266,1141,l),
(317,1175,o),
(526,1202,q),
(592,1210,o),
(684.5,1210,q),
(777,1210,o),
(866,1188,q),
(955,1166,o),
(1014,1116,q),
(1134,1017,o),
(1134,795,q),
(1134,422,l)
);
},
{
closed = 1;
nodes = (
(732,599,o),
(534,599,q),
(412,599,o),
(372,529,q),
(345,480,o),
(345,384,q),
(345,288,o),
(355.5,245,q),
(366,202,o),
(390,174,q),
(437,121,o),
(545,121,q),
(714,121,o),
(880,208,q),
(931,234,o),
(972,266,q),
(966,374,o),
(966,540,q)
);
},
{
closed = 1;
nodes = (
(603,1830,l),
(724,1830,l),
(1012,1480,l),
(931,1400,l),
(665,1665,l),
(406,1400,l),
(324,1479,l)
);
}
);
width = 1364;
}
);
unicode = 226;
},
{
category = Letter;
glyphname = atilde;
layers = (
{
layerId = "d8941333-dd91-4113-af16-e7b241417dfa";
name = Fore;
shapes = (
{
closed = 1;
nodes = (
(1134,223,o),
(1153,8,q),
(1005,-4,l),
(980,135,l),
(853,33,o),
(644,-7,q),
(576,-20,o),
(523,-20,q),
(470,-20,o),
(429.5,-15,q),
(389,-10,o),
(351.5,4.5,q),
(314,19,o),
(282,45,q),
(250,71,o),
(226,114,q),
(175,205,o),
(175,332.5,q),
(175,460,o),
(193.5,530.5,q),
(212,601,o),
(255,648,q),
(340,741,o),
(541,741,q),
(742,741,o),
(970,665,q),
(970,795,l),
(970,1012,o),
(791,1052,q),
(733,1065,o),
(658,1065,q),
(487,1065,o),
(303,997,q),
(266,1141,l),
(317,1175,o),
(526,1202,q),
(592,1210,o),
(684.5,1210,q),
(777,1210,o),
(866,1188,q),
(955,1166,o),
(1014,1116,q),
(1134,1017,o),
(1134,795,q),
(1134,422,l)
);
},
{
closed = 1;
nodes = (
(732,599,o),
(534,599,q),
(412,599,o),
(372,529,q),
(345,480,o),
(345,384,q),
(345,288,o),
(355.5,245,q),
(366,202,o),
(390,174,q),
(437,121,o),
(545,121,q),
(714,121,o),
(880,208,q),
(931,234,o),
(972,266,q),
(966,374,o),
(966,540,q)
);
},
{
closed = 1;
nodes = (
(953,1410,o),
(786,1410,q),
(738,1410,o),
(653,1470,q),
(622,1492,o),
(591.5,1510.5,q),
(561,1529,o),
(537,1529,q),
(513,1529,o),
(492.5,1519,q),
(472,1509,o),
(449,1493,q),
(426,1477,o),
(402,1456,q),
(356,1416,l),
(285,1479,l),
(341,1582,o),
(411.5,1628.5,q),
(482,1675,o),
(551,1675,q),
(564,1675,l),
(619,1675,o),
(700,1618,q),
(756,1579,l),
(782,1561,o),
(805,1561,q),
(828,1561,o),
(848,1572.5,q),
(868,1584,o),
(887.5,1603,q),
(907,1622,o),
(926,1646,q),
(965,1696,l),
(1052,1640,l)
);
}
);
width = 1364;
}
);
unicode = 227;
},
{
category = Letter;
glyphname = adieresis;
layers = (
{
layerId = "d8941333-dd91-4113-af16-e7b241417dfa";
name = Fore;
shapes = (
{
closed = 1;
nodes = (
(1134,223,o),
(1153,8,q),
(1005,-4,l),
(980,135,l),
(853,33,o),
(644,-7,q),
(576,-20,o),
(523,-20,q),
(470,-20,o),
(429.5,-15,q),
(389,-10,o),
(351.5,4.5,q),
(314,19,o),
(282,45,q),
(250,71,o),
(226,114,q),
(175,205,o),
(175,332.5,q),
(175,460,o),
(193.5,530.5,q),
(212,601,o),
(255,648,q),
(340,741,o),
(541,741,q),
(742,741,o),
(970,665,q),
(970,795,l),
(970,1012,o),
(791,1052,q),
(733,1065,o),
(658,1065,q),
(487,1065,o),
(303,997,q),
(266,1141,l),
(317,1175,o),
(526,1202,q),
(592,1210,o),
(684.5,1210,q),
(777,1210,o),
(866,1188,q),
(955,1166,o),
(1014,1116,q),
(1134,1017,o),
(1134,795,q),
(1134,422,l)
);
},
{
closed = 1;
nodes = (
(732,599,o),
(534,599,q),
(412,599,o),
(372,529,q),
(345,480,o),
(345,384,q),
(345,288,o),
(355.5,245,q),
(366,202,o),
(390,174,q),
(437,121,o),
(545,121,q),
(714,121,o),
(880,208,q),
(931,234,o),
(972,266,q),
(966,374,o),
(966,540,q)
);
},
{
closed = 1;
nodes = (
(834,1481,o),
(816,1499,q),
(788,1528,o),
(788,1580,q),
(788,1632,o),
(794,1654.5,q),
(800,1677,o),
(812,1690,q),
(835,1712,o),
(881.5,1712,q),
(928,1712,o),
(949,1707,q),
(970,1702,o),
(982,1690,q),
(1006,1666,o),
(1006,1614.5,q),
(1006,1563,o),
(1000.5,1540.5,q),
(995,1518,o),
(982,1504,q),
(961,1481,o),
(897,1481,q)
);
},
{
closed = 1;
nodes = (
(376,1481,o),
(358,1499,q),
(330,1528,o),
(330,1580,q),
(330,1632,o),
(336,1654.5,q),
(342,1677,o),
(354,1690,q),
(377,1712,o),
(423.5,1712,q),
(470,1712,o),
(490.5,1707,q),
(511,1702,o),
(524,1690,q),
(546,1667,o),
(546,1615,q),
(546,1563,o),
(541,1540.5,q),
(536,1518,o),
(524,1504,q),
(502,1481,o),
(439,1481,q)
);
}
);
width = 1364;
}
);
unicode = 228;
},
{
category = Letter;
glyphname = aring;
layers = (
{
layerId = "d8941333-dd91-4113-af16-e7b241417dfa";
name = Fore;
shapes = (
{
closed = 1;
nodes = (
(1134,223,o),
(1153,8,q),
(1005,-4,l),
(980,135,l),
(853,33,o),
(644,-7,q),
(576,-20,o),
(523,-20,q),
(470,-20,o),
(429.5,-15,q),
(389,-10,o),
(351.5,4.5,q),
(314,19,o),
(282,45,q),
(250,71,o),
(226,114,q),
(175,205,o),
(175,332.5,q),
(175,460,o),
(193.5,530.5,q),
(212,601,o),
(255,648,q),
(340,741,o),
(541,741,q),
(742,741,o),
(970,665,q),
(970,795,l),
(970,1012,o),
(791,1052,q),
(733,1065,o),
(658,1065,q),
(487,1065,o),
(303,997,q),
(266,1141,l),
(317,1175,o),
(526,1202,q),
(592,1210,o),
(684.5,1210,q),
(777,1210,o),
(866,1188,q),
(955,1166,o),
(1014,1116,q),
(1134,1017,o),
(1134,795,q),
(1134,422,l)
);
},
{
closed = 1;
nodes = (
(732,599,o),
(534,599,q),
(412,599,o),
(372,529,q),
(345,480,o),
(345,384,q),
(345,288,o),
(355.5,245,q),
(366,202,o),
(390,174,q),
(437,121,o),
(545,121,q),
(714,121,o),
(880,208,q),
(931,234,o),
(972,266,q),
(966,374,o),
(966,540,q)
);
},
{
closed = 1;
nodes = (
(529,1364,o),
(473,1478,q),
(453,1518,o),
(453,1575.5,q),
(453,1633,o),
(472.5,1674,q),
(492,1715,o),
(525,1741,q),
(587,1790,o),
(698,1790,q),
(868,1790,o),
(923,1674,q),
(943,1633,o),
(943,1575.5,q),
(943,1518,o),
(923.5,1478.5,q),
(904,1439,o),
(871,1414,q),
(807,1364,o),
(698,1364,q)
);
},
{
closed = 1;
nodes = (
(579,1472,o),
(696,1472,q),
(813,1472,o),
(813,1575,q),
(813,1683,o),
(696,1683,q),
(579,1683,o),
(579,1575,q)
);
}
);
width = 1364;
}
);
unicode = 229;
},
{
category = Letter;
glyphname = ae;
layers = (
{
layerId = "d8941333-dd91-4113-af16-e7b241417dfa";
name = Fore;
shapes = (
{
closed = 1;
nodes = (
(1772,-20,o),
(1523,-20,q),
(1237,-20,o),
(1115,125,q),
(1104,138,o),
(1092,159,q),
(1033,120,l),
(894,28,o),
(696,-8,q),
(629,-20,o),
(576,-20,q),
(523,-20,o),
(482.5,-15,q),
(442,-10,o),
(404.5,4.5,q),
(367,19,o),
(335,45,q),
(303,71,o),
(279,114,q),
(228,205,o),
(228,365,q),
(228,549,o),
(302,642,q),
(386,749,o),
(583,749,q),
(780,749,o),
(1027,672,q),
(1025,795,l),
(1025,1011,o),
(844,1052,q),
(786,1065,o),
(711,1065,q),
(540,1065,o),
(356,997,q),
(319,1141,l),
(370,1175,o),
(578,1202,q),
(645,1210,o),
(754,1210,q),
(863,1210,o),
(966,1171,q),
(1069,1132,o),
(1122,1039,q),
(1122,1038,l),
(1123,1039,l),
(1177,1135,o),
(1283.5,1172.5,q),
(1390,1210,o),
(1539,1210,q),
(1688,1210,o),
(1776,1175.5,q),
(1864,1141,o),
(1910.5,1076,q),
(1957,1011,o),
(1972,918.5,q),
(1987,826,o),
(1987,742,q),
(1987,609,o),
(1981,537,q),
(1840,531,o),
(1730,531,q),
(1572,531,l),
(1297,531,o),
(1179,550,q),
(1179,321,o),
(1240,231,q),
(1313,122,o),
(1523.5,122,q),
(1734,122,o),
(1931,206,q),
(1980,63,l)
);
},
{
closed = 1;
nodes = (
(1818,768,l),
(1818,925,o),
(1760,992,q),
(1695,1067,o),
(1527,1067,q),
(1326,1067,o),
(1252,980,q),
(1179,896,o),
(1179,672,q),
(1818,672,l)
);
},
{
closed = 1;
nodes = (
(419,205,o),
(443,180,q),
(489,131,o),
(598,131,q),
(779,131,o),
(954,212,q),
(1008,238,o),
(1049,270,q),
(1028,369,o),
(1024,550,q),
(822,605,o),
(587,605,q),
(465,605,o),
(426,532,q),
(398,481,o),
(398,384.5,q),
(398,288,o),
(408.5,246.5,q)
);
}
);
width = 2215;
}
);
unicode = 230;
},
{
category = Letter;
glyphname = ccedilla;
layers = (
{
layerId = "d8941333-dd91-4113-af16-e7b241417dfa";
name = Fore;
shapes = (
{
closed = 1;
nodes = (
(575,-291,o),
(614.5,-291,q),
(654,-291,o),
(683.5,-270,q),
(713,-249,o),
(713,-207,q),
(713,-118,o),
(624,-19,q),
(441,-13,o),
(348,55,q),
(268,113,o),
(235,199,q),
(198,296,o),
(192,408,q),
(186,520,o),
(186,597,q),
(186,674,o),
(190,747.5,q),
(194,821,o),
(209.5,889,q),
(225,957,o),
(257,1015.5,q),
(289,1074,o),
(344,1118,q),
(463,1210,o),
(686,1210,q),
(850,1210,o),
(988,1162,q),
(1025,1150,o),
(1044,1139,q),
(994,991,l),
(802,1065,o),
(679.5,1065,q),
(557,1065,o),
(499.5,1037,q),
(442,1009,o),
(410,952,q),
(356,854,o),
(356,592,q),
(356,487,o),
(363,400.5,q),
(370,314,o),
(398,252,q),
(457,124,o),
(641.5,124,q),
(826,124,o),
(1000,188,q),
(1050,53,l),
(941,-3,o),
(761,-16,q),
(853,-110,o),
(853,-218,q),
(853,-428,o),
(637,-428,q),
(550,-428,o),
(503,-409,q),
(528,-281,l)
);
}
);
width = 1196;
}
);
unicode = 231;
},
{
category = Letter;
glyphname = egrave;
layers = (
{
layerId = "d8941333-dd91-4113-af16-e7b241417dfa";
name = Fore;
shapes = (
{
closed = 1;
nodes = (
(948,-20,o),
(698,-20,q),
(553,-20,o),
(452,10,q),
(291,56,o),
(238,200,q),
(189,335,o),
(189,600,q),
(189,651,l),
(189,968,o),
(321,1096,q),
(440,1210,o),
(718,1210,q),
(989,1210,o),
(1088,1076,q),
(1136,1011,o),
(1151.5,918.5,q),
(1167,826,o),
(1167,742,q),
(1167,611,o),
(1161,539,q),
(1020,533,o),
(908,533,q),
(908,533,o),
(747,533,q),
(495,533,o),
(359,555,q),
(359,325,o),
(417,234,q),
(488,123,o),
(700,123,q),
(912,123,o),
(1106,206,q),
(1155,63,l)
);
},
{
closed = 1;
nodes = (
(998,768,l),
(998,925,o),
(937,992,q),
(869,1067,o),
(702,1067,q),
(502,1067,o),
(429,980,q),
(359,897,o),
(359,672,q),
(998,672,l)
);
},
{
closed = 1;
nodes = (
(561,1839,l),
(886,1486,l),
(803,1399,l),
(436,1714,l)
);
}
);
width = 1364;
}
);
unicode = 232;
},
{
category = Letter;
glyphname = eacute;
layers = (
{
layerId = "d8941333-dd91-4113-af16-e7b241417dfa";
name = Fore;
shapes = (
{
closed = 1;
nodes = (
(948,-20,o),
(698,-20,q),
(553,-20,o),
(452,10,q),
(291,56,o),
(238,200,q),
(189,335,o),
(189,600,q),
(189,651,l),
(189,968,o),
(321,1096,q),
(440,1210,o),
(718,1210,q),
(989,1210,o),
(1088,1076,q),
(1136,1011,o),
(1151.5,918.5,q),
(1167,826,o),
(1167,742,q),
(1167,611,o),
(1161,539,q),
(1020,533,o),
(908,533,q),
(908,533,o),
(747,533,q),
(495,533,o),
(359,555,q),
(359,325,o),
(417,234,q),
(488,123,o),
(700,123,q),
(912,123,o),
(1106,206,q),
(1155,63,l)
);
},
{
closed = 1;
nodes = (
(998,768,l),
(998,925,o),
(937,992,q),
(869,1067,o),
(702,1067,q),
(502,1067,o),
(429,980,q),
(359,897,o),
(359,672,q),
(998,672,l)
);
},
{
closed = 1;
nodes = (
(835,1837,l),
(965,1716,l),
(595,1399,l),
(512,1486,l)
);
}
);
width = 1364;
}
);
unicode = 233;
},
{
category = Letter;
glyphname = ecircumflex;
layers = (
{
layerId = "d8941333-dd91-4113-af16-e7b241417dfa";
name = Fore;
shapes = (
{
closed = 1;
nodes = (
(948,-20,o),
(698,-20,q),
(553,-20,o),
(452,10,q),
(291,56,o),
(238,200,q),
(189,335,o),
(189,600,q),
(189,651,l),
(189,968,o),
(321,1096,q),
(440,1210,o),
(718,1210,q),
(989,1210,o),
(1088,1076,q),
(1136,1011,o),
(1151.5,918.5,q),
(1167,826,o),
(1167,742,q),
(1167,611,o),
(1161,539,q),
(1020,533,o),
(908,533,q),
(908,533,o),
(747,533,q),
(495,533,o),
(359,555,q),
(359,325,o),
(417,234,q),
(488,123,o),
(700,123,q),
(912,123,o),
(1106,206,q),
(1155,63,l)
);
},
{
closed = 1;
nodes = (
(998,768,l),
(998,925,o),
(937,992,q),
(869,1067,o),
(702,1067,q),
(502,1067,o),
(429,980,q),
(359,897,o),
(359,672,q),
(998,672,l)
);
},
{
closed = 1;
nodes = (
(628,1830,l),
(749,1830,l),
(1037,1480,l),
(956,1400,l),
(690,1665,l),
(431,1400,l),
(349,1479,l)
);
}
);
width = 1364;
}
);
unicode = 234;
},
{
category = Letter;
glyphname = edieresis;
layers = (
{
layerId = "d8941333-dd91-4113-af16-e7b241417dfa";
name = Fore;
shapes = (
{
closed = 1;
nodes = (
(948,-20,o),
(698,-20,q),
(553,-20,o),
(452,10,q),
(291,56,o),
(238,200,q),
(189,335,o),
(189,600,q),
(189,651,l),
(189,968,o),
(321,1096,q),
(440,1210,o),
(718,1210,q),
(989,1210,o),
(1088,1076,q),
(1136,1011,o),
(1151.5,918.5,q),
(1167,826,o),
(1167,742,q),
(1167,611,o),
(1161,539,q),
(1020,533,o),
(908,533,q),
(908,533,o),
(747,533,q),
(495,533,o),
(359,555,q),
(359,325,o),
(417,234,q),
(488,123,o),
(700,123,q),
(912,123,o),
(1106,206,q),
(1155,63,l)
);
},
{
closed = 1;
nodes = (
(998,768,l),
(998,925,o),
(937,992,q),
(869,1067,o),
(702,1067,q),
(502,1067,o),
(429,980,q),
(359,897,o),
(359,672,q),
(998,672,l)
);
},
{
closed = 1;
nodes = (
(846,1481,o),
(828,1499,q),
(800,1528,o),
(800,1580,q),
(800,1632,o),
(806,1654.5,q),
(812,1677,o),
(824,1690,q),
(847,1712,o),
(893.5,1712,q),
(940,1712,o),
(961,1707,q),
(982,1702,o),
(994,1690,q),
(1018,1666,o),
(1018,1614.5,q),
(1018,1563,o),
(1012.5,1540.5,q),
(1007,1518,o),
(994,1504,q),
(973,1481,o),
(909,1481,q)
);
},
{
closed = 1;
nodes = (
(388,1481,o),
(370,1499,q),
(342,1528,o),
(342,1580,q),
(342,1632,o),
(348,1654.5,q),
(354,1677,o),
(366,1690,q),
(389,1712,o),
(435.5,1712,q),
(482,1712,o),
(502.5,1707,q),
(523,1702,o),
(536,1690,q),
(558,1667,o),
(558,1615,q),
(558,1563,o),
(553,1540.5,q),
(548,1518,o),
(536,1504,q),
(514,1481,o),
(451,1481,q)
);
}
);
width = 1364;
}
);
unicode = 235;
},
{
category = Letter;
glyphname = igrave;
layers = (
{
layerId = "d8941333-dd91-4113-af16-e7b241417dfa";
name = Fore;
shapes = (
{
closed = 1;
nodes = (
(425,1188,l),
(425,0,l),
(263,0,l),
(261,1188,l)
);
},
{
closed = 1;
nodes = (
(164,1839,l),
(489,1486,l),
(406,1399,l),
(39,1714,l)
);
}
);
width = 683;
}
);
unicode = 236;
},
{
category = Letter;
glyphname = iacute;
layers = (
{
layerId = "d8941333-dd91-4113-af16-e7b241417dfa";
name = Fore;
shapes = (
{
closed = 1;
nodes = (
(425,1188,l),
(425,0,l),
(263,0,l),
(261,1188,l)
);
},
{
closed = 1;
nodes = (
(528,1837,l),
(658,1716,l),
(288,1399,l),
(205,1486,l)
);
}
);
width = 683;
}
);
unicode = 237;
},
{
category = Letter;
glyphname = icircumflex;
layers = (
{
layerId = "d8941333-dd91-4113-af16-e7b241417dfa";
name = Fore;
shapes = (
{
closed = 1;
nodes = (
(425,1188,l),
(425,0,l),
(263,0,l),
(261,1188,l)
);
},
{
closed = 1;
nodes = (
(279,1830,l),
(400,1830,l),
(688,1480,l),
(607,1400,l),
(341,1665,l),
(82,1400,l),
(0,1479,l)
);
}
);
width = 683;
}
);
unicode = 238;
},
{
category = Letter;
glyphname = idieresis;
layers = (
{
layerId = "d8941333-dd91-4113-af16-e7b241417dfa";
name = Fore;
shapes = (
{
closed = 1;
nodes = (
(425,1188,l),
(425,0,l),
(263,0,l),
(261,1188,l)
);
},
{
closed = 1;
nodes = (
(510,1481,o),
(492,1499,q),
(464,1528,o),
(464,1580,q),
(464,1632,o),
(470,1654.5,q),
(476,1677,o),
(488,1690,q),
(511,1712,o),
(557.5,1712,q),
(604,1712,o),
(625,1707,q),
(646,1702,o),
(658,1690,q),
(682,1666,o),
(682,1614.5,q),
(682,1563,o),
(676.5,1540.5,q),
(671,1518,o),
(658,1504,q),
(637,1481,o),
(573,1481,q)
);
},
{
closed = 1;
nodes = (
(52,1481,o),
(34,1499,q),
(6,1528,o),
(6,1580,q),
(6,1632,o),
(12,1654.5,q),
(18,1677,o),
(30,1690,q),
(53,1712,o),
(99.5,1712,q),
(146,1712,o),
(166.5,1707,q),
(187,1702,o),
(200,1690,q),
(222,1667,o),
(222,1615,q),
(222,1563,o),
(217,1540.5,q),
(212,1518,o),
(200,1504,q),
(178,1481,o),
(115,1481,q)
);
}
);
width = 683;
}
);
unicode = 239;
},
{
category = Letter;
glyphname = eth;
layers = (
{
layerId = "d8941333-dd91-4113-af16-e7b241417dfa";
name = Fore;
shapes = (
{
closed = 1;
nodes = (
(1202,-20,o),
(635,-20,q),
(349,-20,o),
(249,134,q),
(192,221,o),
(182,336,q),
(178,391,o),
(178,443,q),
(178,627,l),
(178,730,o),
(192,810,q),
(206,890,o),
(250,944,q),
(338,1055,o),
(592,1055,q),
(771,1055,o),
(947,986,q),
(998,966,o),
(1037,944,q),
(1037,955,o),
(1036,971,q),
(1034,1004,l),
(1019,1244,o),
(807,1418,q),
(624,1239,l),
(527,1337,l),
(703,1493,l),
(591,1565,o),
(438,1633,q),
(509,1758,l),
(690,1671,o),
(802,1597,q),
(974,1779,l),
(1069,1672,l),
(910,1518,l),
(1094,1367,o),
(1156,1179,q),
(1202,1042,o),
(1202,791,q),
(1202,453,l)
);
},
{
closed = 1;
nodes = (
(837,907,o),
(606,907,q),
(502,907,o),
(465,892,q),
(428,877,o),
(407.5,855.5,q),
(387,834,o),
(374,798,q),
(349,729,o),
(349,585,q),
(349,443,l),
(349,269,o),
(400,204,q),
(457,130,o),
(620,130,q),
(674,130,l),
(886,130,o),
(965,226,q),
(1031,307,o),
(1031,503,q),
(1031,813,l)
);
}
);
width = 1366;
}
);
unicode = 240;
},
{
category = Letter;
glyphname = ntilde;
layers = (
{
layerId = "d8941333-dd91-4113-af16-e7b241417dfa";
name = Fore;
shapes = (
{
closed = 1;
nodes = (
(591,1054,o),
(389,939,q),
(389,0,l),
(223,0,l),
(223,1190,l),
(369,1190,l),
(385,1067,l),
(494,1156,o),
(656,1194,q),
(722,1210,o),
(811,1210,q),
(900,1210,o),
(968,1189.5,q),
(1036,1169,o),
(1076,1124,q),
(1149,1043,o),
(1149,829,q),
(1149,0,l),
(981,0,l),
(981,798,l),
(981,942,o),
(953,983.5,q),
(925,1025,o),
(886.5,1039.5,q),
(848,1054,o),
(786,1054,q)
);
},
{
closed = 1;
nodes = (
(979,1410,o),
(812,1410,q),
(764,1410,o),
(679,1470,q),
(648,1492,o),
(617.5,1510.5,q),
(587,1529,o),
(563,1529,q),
(539,1529,o),
(518.5,1519,q),
(498,1509,o),
(475,1493,q),
(452,1477,o),
(428,1456,q),
(382,1416,l),
(311,1479,l),
(367,1582,o),
(437.5,1628.5,q),
(508,1675,o),
(577,1675,q),
(590,1675,l),
(645,1675,o),
(726,1618,q),
(782,1579,l),
(808,1561,o),
(831,1561,q),
(854,1561,o),
(874,1572.5,q),
(894,1584,o),
(913.5,1603,q),
(933,1622,o),
(952,1646,q),
(991,1696,l),
(1078,1640,l)
);
}
);
width = 1364;
}
);
unicode = 241;
},
{
category = Letter;
glyphname = ograve;
layers = (
{
layerId = "d8941333-dd91-4113-af16-e7b241417dfa";
name = Fore;
shapes = (
{
closed = 1;
nodes = (
(188,819,o),
(211,909,q),
(234,999,o),
(267.5,1051.5,q),
(301,1104,o),
(358,1139,q),
(472,1210,o),
(695,1210,q),
(1017,1210,o),
(1109,1051,q),
(1164,955,o),
(1172,780,q),
(1175,697,o),
(1175,597,q),
(1175,497,o),
(1168.5,410.5,q),
(1162,324,o),
(1143,255,q),
(1124,186,o),
(1090,134.5,q),
(1056,83,o),
(1000,48,q),
(890,-20,o),
(679,-20,q),
(363,-20,o),
(264,136,q),
(203,233,o),
(193,408,q),
(188,492,o),
(188,592,q)
);
},
{
closed = 1;
nodes = (
(605,121,o),
(699.5,121,q),
(794,121,o),
(858.5,148,q),
(923,175,o),
(955.5,234.5,q),
(988,294,o),
(996.5,389,q),
(1005,484,o),
(1005,610,q),
(1005,736,o),
(997.5,820,q),
(990,904,o),
(960,959,q),
(900,1067,o),
(693,1067,q),
(474,1067,o),
(408,959,q),
(375,904,o),
(366,819,q),
(357,734,o),
(357,634,q),
(357,534,o),
(359.5,464.5,q),
(362,395,o),
(372.5,339.5,q),
(383,284,o),
(403.5,243,q),
(424,202,o),
(460,175,q),
(496,148,o),
(550.5,134.5,q)
);
},
{
closed = 1;
nodes = (
(524,1839,l),
(849,1486,l),
(766,1399,l),
(399,1714,l)
);
}
);
width = 1363;
}
);
unicode = 242;
},
{
category = Letter;
glyphname = oacute;
layers = (
{
layerId = "d8941333-dd91-4113-af16-e7b241417dfa";
name = Fore;
shapes = (
{
closed = 1;
nodes = (
(188,819,o),
(211,909,q),
(234,999,o),
(267.5,1051.5,q),
(301,1104,o),
(358,1139,q),
(472,1210,o),
(695,1210,q),
(1017,1210,o),
(1109,1051,q),
(1164,955,o),
(1172,780,q),
(1175,697,o),
(1175,597,q),
(1175,497,o),
(1168.5,410.5,q),
(1162,324,o),
(1143,255,q),
(1124,186,o),
(1090,134.5,q),
(1056,83,o),
(1000,48,q),
(890,-20,o),
(679,-20,q),
(363,-20,o),
(264,136,q),
(203,233,o),
(193,408,q),
(188,492,o),
(188,592,q)
);
},
{
closed = 1;
nodes = (
(605,121,o),
(699.5,121,q),
(794,121,o),
(858.5,148,q),
(923,175,o),
(955.5,234.5,q),
(988,294,o),
(996.5,389,q),
(1005,484,o),
(1005,610,q),
(1005,736,o),
(997.5,820,q),
(990,904,o),
(960,959,q),
(900,1067,o),
(693,1067,q),
(474,1067,o),
(408,959,q),
(375,904,o),
(366,819,q),
(357,734,o),
(357,634,q),
(357,534,o),
(359.5,464.5,q),
(362,395,o),
(372.5,339.5,q),
(383,284,o),
(403.5,243,q),
(424,202,o),
(460,175,q),
(496,148,o),
(550.5,134.5,q)
);
},
{
closed = 1;
nodes = (
(866,1837,l),
(996,1716,l),
(626,1399,l),
(543,1486,l)
);
}
);
width = 1363;
}
);
unicode = 243;
},
{
category = Letter;
glyphname = ocircumflex;
layers = (
{
layerId = "d8941333-dd91-4113-af16-e7b241417dfa";
name = Fore;
shapes = (
{
closed = 1;
nodes = (
(188,819,o),
(211,909,q),
(234,999,o),
(267.5,1051.5,q),
(301,1104,o),
(358,1139,q),
(472,1210,o),
(695,1210,q),
(1017,1210,o),
(1109,1051,q),
(1164,955,o),
(1172,780,q),
(1175,697,o),
(1175,597,q),
(1175,497,o),
(1168.5,410.5,q),
(1162,324,o),
(1143,255,q),
(1124,186,o),
(1090,134.5,q),
(1056,83,o),
(1000,48,q),
(890,-20,o),
(679,-20,q),
(363,-20,o),
(264,136,q),
(203,233,o),
(193,408,q),
(188,492,o),
(188,592,q)
);
},
{
closed = 1;
nodes = (
(605,121,o),
(699.5,121,q),
(794,121,o),
(858.5,148,q),
(923,175,o),
(955.5,234.5,q),
(988,294,o),
(996.5,389,q),
(1005,484,o),
(1005,610,q),
(1005,736,o),
(997.5,820,q),
(990,904,o),
(960,959,q),
(900,1067,o),
(693,1067,q),
(474,1067,o),
(408,959,q),
(375,904,o),
(366,819,q),
(357,734,o),
(357,634,q),
(357,534,o),
(359.5,464.5,q),
(362,395,o),
(372.5,339.5,q),
(383,284,o),
(403.5,243,q),
(424,202,o),
(460,175,q),
(496,148,o),
(550.5,134.5,q)
);
},
{
closed = 1;
nodes = (
(629,1830,l),
(750,1830,l),
(1038,1480,l),
(957,1400,l),
(691,1665,l),
(432,1400,l),
(350,1479,l)
);
}
);
width = 1363;
}
);
unicode = 244;
},
{
category = Letter;
glyphname = otilde;
layers = (
{
layerId = "d8941333-dd91-4113-af16-e7b241417dfa";
name = Fore;
shapes = (
{
closed = 1;
nodes = (
(188,819,o),
(211,909,q),
(234,999,o),
(267.5,1051.5,q),
(301,1104,o),
(358,1139,q),
(472,1210,o),
(695,1210,q),
(1017,1210,o),
(1109,1051,q),
(1164,955,o),
(1172,780,q),
(1175,697,o),
(1175,597,q),
(1175,497,o),
(1168.5,410.5,q),
(1162,324,o),
(1143,255,q),
(1124,186,o),
(1090,134.5,q),
(1056,83,o),
(1000,48,q),
(890,-20,o),
(679,-20,q),
(363,-20,o),
(264,136,q),
(203,233,o),
(193,408,q),
(188,492,o),
(188,592,q)
);
},
{
closed = 1;
nodes = (
(605,121,o),
(699.5,121,q),
(794,121,o),
(858.5,148,q),
(923,175,o),
(955.5,234.5,q),
(988,294,o),
(996.5,389,q),
(1005,484,o),
(1005,610,q),
(1005,736,o),
(997.5,820,q),
(990,904,o),
(960,959,q),
(900,1067,o),
(693,1067,q),
(474,1067,o),
(408,959,q),
(375,904,o),
(366,819,q),
(357,734,o),
(357,634,q),
(357,534,o),
(359.5,464.5,q),
(362,395,o),
(372.5,339.5,q),
(383,284,o),
(403.5,243,q),
(424,202,o),
(460,175,q),
(496,148,o),
(550.5,134.5,q)
);
},
{
closed = 1;
nodes = (
(970,1410,o),
(803,1410,q),
(755,1410,o),
(670,1470,q),
(639,1492,o),
(608.5,1510.5,q),
(578,1529,o),
(554,1529,q),
(530,1529,o),
(509.5,1519,q),
(489,1509,o),
(466,1493,q),
(443,1477,o),
(419,1456,q),
(373,1416,l),
(302,1479,l),
(358,1582,o),
(428.5,1628.5,q),
(499,1675,o),
(568,1675,q),
(581,1675,l),
(636,1675,o),
(717,1618,q),
(773,1579,l),
(799,1561,o),
(822,1561,q),
(845,1561,o),
(865,1572.5,q),
(885,1584,o),
(904.5,1603,q),
(924,1622,o),
(943,1646,q),
(982,1696,l),
(1069,1640,l)
);
}
);
width = 1363;
}
);
unicode = 245;
},
{
category = Letter;
glyphname = odieresis;
layers = (
{
layerId = "d8941333-dd91-4113-af16-e7b241417dfa";
name = Fore;
shapes = (
{
closed = 1;
nodes = (
(188,819,o),
(211,909,q),
(234,999,o),
(267.5,1051.5,q),
(301,1104,o),
(358,1139,q),
(472,1210,o),
(695,1210,q),
(1017,1210,o),
(1109,1051,q),
(1164,955,o),
(1172,780,q),
(1175,697,o),
(1175,597,q),
(1175,497,o),
(1168.5,410.5,q),
(1162,324,o),
(1143,255,q),
(1124,186,o),
(1090,134.5,q),
(1056,83,o),
(1000,48,q),
(890,-20,o),
(679,-20,q),
(363,-20,o),
(264,136,q),
(203,233,o),
(193,408,q),
(188,492,o),
(188,592,q)
);
},
{
closed = 1;
nodes = (
(605,121,o),
(699.5,121,q),
(794,121,o),
(858.5,148,q),
(923,175,o),
(955.5,234.5,q),
(988,294,o),
(996.5,389,q),
(1005,484,o),
(1005,610,q),
(1005,736,o),
(997.5,820,q),
(990,904,o),
(960,959,q),
(900,1067,o),
(693,1067,q),
(474,1067,o),
(408,959,q),
(375,904,o),
(366,819,q),
(357,734,o),
(357,634,q),
(357,534,o),
(359.5,464.5,q),
(362,395,o),
(372.5,339.5,q),
(383,284,o),
(403.5,243,q),
(424,202,o),
(460,175,q),
(496,148,o),
(550.5,134.5,q)
);
},
{
closed = 1;
nodes = (
(849,1481,o),
(831,1499,q),
(803,1528,o),
(803,1580,q),
(803,1632,o),
(809,1654.5,q),
(815,1677,o),
(827,1690,q),
(850,1712,o),
(896.5,1712,q),
(943,1712,o),
(964,1707,q),
(985,1702,o),
(997,1690,q),
(1021,1666,o),
(1021,1614.5,q),
(1021,1563,o),
(1015.5,1540.5,q),
(1010,1518,o),
(997,1504,q),
(976,1481,o),
(912,1481,q)
);
},
{
closed = 1;
nodes = (
(391,1481,o),
(373,1499,q),
(345,1528,o),
(345,1580,q),
(345,1632,o),
(351,1654.5,q),
(357,1677,o),
(369,1690,q),
(392,1712,o),
(438.5,1712,q),
(485,1712,o),
(505.5,1707,q),
(526,1702,o),
(539,1690,q),
(561,1667,o),
(561,1615,q),
(561,1563,o),
(556,1540.5,q),
(551,1518,o),
(539,1504,q),
(517,1481,o),
(454,1481,q)
);
}
);
width = 1363;
}
);
unicode = 246;
},
{
category = Letter;
glyphname = divide;
layers = (
{
layerId = "d8941333-dd91-4113-af16-e7b241417dfa";
name = Fore;
shapes = (
{
closed = 1;
nodes = (
(531,962,o),
(512,981,q),
(484,1010,o),
(484,1066.5,q),
(484,1123,o),
(489.5,1146.5,q),
(495,1170,o),
(508,1184,q),
(532,1208,o),
(580,1208,q),
(628,1208,o),
(649,1202.5,q),
(670,1197,o),
(682,1184,q),
(705,1159,o),
(705,1086,q),
(705,1012,o),
(688,993,q),
(660,962,o),
(595,962,q)
);
},
{
closed = 1;
nodes = (
(1088,707,l),
(1088,574,l),
(107,574,l),
(107,707,l)
);
},
{
closed = 1;
nodes = (
(484,164,o),
(484,201,q),
(484,238,o),
(489.5,261.5,q),
(495,285,o),
(508,298,q),
(532,323,o),
(580,323,q),
(628,323,o),
(649,317.5,q),
(670,312,o),
(682,298,q),
(705,274,o),
(705,219.5,q),
(705,165,o),
(700,141,q),
(695,117,o),
(682,102,q),
(661,77,o),
(595,77,q),
(530,77,o),
(512,96.5,q),
(494,116,o),
(489,140,q)
);
}
);
width = 1195;
}
);
unicode = 247;
},
{
category = Letter;
glyphname = oslash;
layers = (
{
layerId = "d8941333-dd91-4113-af16-e7b241417dfa";
name = Fore;
shapes = (
{
closed = 1;
nodes = (
(579,1210,o),
(667.5,1210,q),
(756,1210,o),
(824,1203,q),
(925,1507,l),
(1058,1481,l),
(949,1175,l),
(1098,1122,o),
(1143,971,q),
(1175,865,o),
(1175,600,q),
(1175,371,o),
(1149.5,278.5,q),
(1124,186,o),
(1090,134.5,q),
(1056,83,o),
(1000,48,q),
(890,-20,o),
(679,-20,q),
(601,-20,o),
(540,-11,q),
(433,-334,l),
(303,-310,l),
(418,17,l),
(274,70,o),
(226,220,q),
(188,335,o),
(188,592,q),
(188,819,o),
(211,909,q),
(234,999,o),
(267.5,1051.5,q),
(301,1104,o),
(357.5,1139,q),
(414,1174,o),
(496.5,1192,q)
);
},
{
closed = 1;
nodes = (
(728,1067,o),
(652,1067,q),
(576,1067,o),
(509,1040.5,q),
(442,1014,o),
(408.5,959,q),
(375,904,o),
(366,819,q),
(357,734,o),
(357,632.5,q),
(357,531,o),
(360,459.5,q),
(363,388,o),
(374,332,q),
(397,215,o),
(471,167,q),
(631,619,l),
(778,1062,l)
);
},
{
closed = 1;
nodes = (
(628,121,o),
(711,121,q),
(794,121,o),
(858.5,148,q),
(923,175,o),
(955.5,234.5,q),
(988,294,o),
(996.5,389,q),
(1005,484,o),
(1005,592,q),
(1005,700,o),
(1002,764.5,q),
(999,829,o),
(988,879,q),
(965,982,o),
(895,1025,q),
(738,585,l),
(586,127,l)
);
}
);
width = 1363;
}
);
unicode = 248;
},
{
category = Letter;
glyphname = ugrave;
layers = (
{
layerId = "d8941333-dd91-4113-af16-e7b241417dfa";
name = Fore;
shapes = (
{
closed = 1;
nodes = (
(1123,194,o),
(1142,8,q),
(993,-4,l),
(969,137,l),
(852,40,o),
(696,-3,q),
(634,-20,o),
(548.5,-20,q),
(463,-20,o),
(395.5,0.5,q),
(328,21,o),
(288,66,q),
(215,147,o),
(215,361,q),
(215,1190,l),
(383,1190,l),
(383,388,l),
(383,244,o),
(411,202.5,q),
(439,161,o),
(477.5,146.5,q),
(516,132,o),
(569,132,q),
(622,132,o),
(671.5,140.5,q),
(721,149,o),
(771,165,q),
(876,199,o),
(961,258,q),
(961,259,l),
(957,335,o),
(957,555,q),
(957,1190,l),
(1123,1190,l),
(1123,524,l)
);
},
{
closed = 1;
nodes = (
(516,1839,l),
(841,1486,l),
(758,1399,l),
(391,1714,l)
);
}
);
width = 1364;
}
);
unicode = 249;
},
{
category = Letter;
glyphname = uacute;
layers = (
{
layerId = "d8941333-dd91-4113-af16-e7b241417dfa";
name = Fore;
shapes = (
{
closed = 1;
nodes = (
(1123,194,o),
(1142,8,q),
(993,-4,l),
(969,137,l),
(852,40,o),
(696,-3,q),
(634,-20,o),
(548.5,-20,q),
(463,-20,o),
(395.5,0.5,q),
(328,21,o),
(288,66,q),
(215,147,o),
(215,361,q),
(215,1190,l),
(383,1190,l),
(383,388,l),
(383,244,o),
(411,202.5,q),
(439,161,o),
(477.5,146.5,q),
(516,132,o),
(569,132,q),
(622,132,o),
(671.5,140.5,q),
(721,149,o),
(771,165,q),
(876,199,o),
(961,258,q),
(961,259,l),
(957,335,o),
(957,555,q),
(957,1190,l),
(1123,1190,l),
(1123,524,l)
);
},
{
closed = 1;
nodes = (
(835,1837,l),
(965,1716,l),
(595,1399,l),
(512,1486,l)
);
}
);
width = 1364;
}
);
unicode = 250;
},
{
category = Letter;
glyphname = ucircumflex;
layers = (
{
layerId = "d8941333-dd91-4113-af16-e7b241417dfa";
name = Fore;
shapes = (
{
closed = 1;
nodes = (
(1123,194,o),
(1142,8,q),
(993,-4,l),
(969,137,l),
(852,40,o),
(696,-3,q),
(634,-20,o),
(548.5,-20,q),
(463,-20,o),
(395.5,0.5,q),
(328,21,o),
(288,66,q),
(215,147,o),
(215,361,q),
(215,1190,l),
(383,1190,l),
(383,388,l),
(383,244,o),
(411,202.5,q),
(439,161,o),
(477.5,146.5,q),
(516,132,o),
(569,132,q),
(622,132,o),
(671.5,140.5,q),
(721,149,o),
(771,165,q),
(876,199,o),
(961,258,q),
(961,259,l),
(957,335,o),
(957,555,q),
(957,1190,l),
(1123,1190,l),
(1123,524,l)
);
},
{
closed = 1;
nodes = (
(609,1830,l),
(730,1830,l),
(1018,1480,l),
(937,1400,l),
(671,1665,l),
(412,1400,l),
(330,1479,l)
);
}
);
width = 1364;
}
);
unicode = 251;
},
{
category = Letter;
glyphname = udieresis;
layers = (
{
layerId = "d8941333-dd91-4113-af16-e7b241417dfa";
name = Fore;
shapes = (
{
closed = 1;
nodes = (
(1123,194,o),
(1142,8,q),
(993,-4,l),
(969,137,l),
(852,40,o),
(696,-3,q),
(634,-20,o),
(548.5,-20,q),
(463,-20,o),
(395.5,0.5,q),
(328,21,o),
(288,66,q),
(215,147,o),
(215,361,q),
(215,1190,l),
(383,1190,l),
(383,388,l),
(383,244,o),
(411,202.5,q),
(439,161,o),
(477.5,146.5,q),
(516,132,o),
(569,132,q),
(622,132,o),
(671.5,140.5,q),
(721,149,o),
(771,165,q),
(876,199,o),
(961,258,q),
(961,259,l),
(957,335,o),
(957,555,q),
(957,1190,l),
(1123,1190,l),
(1123,524,l)
);
},
{
closed = 1;
nodes = (
(834,1481,o),
(816,1499,q),
(788,1528,o),
(788,1580,q),
(788,1632,o),
(794,1654.5,q),
(800,1677,o),
(812,1690,q),
(835,1712,o),
(881.5,1712,q),
(928,1712,o),
(949,1707,q),
(970,1702,o),
(982,1690,q),
(1006,1666,o),
(1006,1614.5,q),
(1006,1563,o),
(1000.5,1540.5,q),
(995,1518,o),
(982,1504,q),
(961,1481,o),
(897,1481,q)
);
},
{
closed = 1;
nodes = (
(376,1481,o),
(358,1499,q),
(330,1528,o),
(330,1580,q),
(330,1632,o),
(336,1654.5,q),
(342,1677,o),
(354,1690,q),
(377,1712,o),
(423.5,1712,q),
(470,1712,o),
(490.5,1707,q),
(511,1702,o),
(524,1690,q),
(546,1667,o),
(546,1615,q),
(546,1563,o),
(541,1540.5,q),
(536,1518,o),
(524,1504,q),
(502,1481,o),
(439,1481,q)
);
}
);
width = 1364;
}
);
unicode = 252;
},
{
category = Letter;
glyphname = yacute;
layers = (
{
layerId = "d8941333-dd91-4113-af16-e7b241417dfa";
name = Fore;
shapes = (
{
closed = 1;
nodes = (
(270,-314,o),
(316.5,-314,q),
(363,-314,o),
(377.5,-311.5,q),
(392,-309,o),
(407,-301,q),
(442,-282,o),
(459,-239,q),
(501,-137,o),
(532,-15,q),
(73,1190,l),
(258,1190,l),
(568,313,l),
(615,159,l),
(658,314,l),
(932,1190,l),
(1106,1190,l),
(604,-282,l),
(549,-454,o),
(350,-454,q),
(224,-454,o),
(152,-418,q),
(197,-288,l)
);
},
{
closed = 1;
nodes = (
(747,1837,l),
(877,1716,l),
(507,1399,l),
(424,1486,l)
);
}
);
width = 1192;
}
);
unicode = 253;
},
{
category = Letter;
glyphname = thorn;
layers = (
{
layerId = "d8941333-dd91-4113-af16-e7b241417dfa";
name = Fore;
shapes = (
{
closed = 1;
nodes = (
(379,-455,l),
(217,-455,l),
(217,1702,l),
(383,1718,l),
(383,1076,l),
(590,1210,o),
(783,1210,q),
(1051,1210,o),
(1123,1045,q),
(1168,941,o),
(1174,753,q),
(1176,662,o),
(1176,553,q),
(1176,473,l),
(1176,336,o),
(1158.5,267,q),
(1141,198,o),
(1114,148.5,q),
(1087,99,o),
(1040,62,q),
(938,-20,o),
(748,-20,q),
(558,-20,o),
(379,111,q)
);
},
{
closed = 1;
nodes = (
(595,127,o),
(740,127,q),
(752,127,l),
(923,127,o),
(972,222,q),
(998,270,o),
(1004,347,q),
(1010,424,o),
(1010,532,q),
(1010,676,l),
(1010,899,o),
(959,976,q),
(909,1053,o),
(769,1053,q),
(744,1053,l),
(619,1053,o),
(454,979,q),
(411,960,o),
(383,944,q),
(383,242,l)
);
}
);
width = 1364;
}
);
unicode = 254;
},
{
category = Letter;
glyphname = ydieresis;
layers = (
{
layerId = "d8941333-dd91-4113-af16-e7b241417dfa";
name = Fore;
shapes = (
{
closed = 1;
nodes = (
(270,-314,o),
(316.5,-314,q),
(363,-314,o),
(377.5,-311.5,q),
(392,-309,o),
(407,-301,q),
(442,-282,o),
(459,-239,q),
(501,-137,o),
(532,-15,q),
(73,1190,l),
(258,1190,l),
(568,313,l),
(615,159,l),
(658,314,l),
(932,1190,l),
(1106,1190,l),
(604,-282,l),
(549,-454,o),
(350,-454,q),
(224,-454,o),
(152,-418,q),
(197,-288,l)
);
},
{
closed = 1;
nodes = (
(757,1481,o),
(739,1499,q),
(711,1528,o),
(711,1580,q),
(711,1632,o),
(717,1654.5,q),
(723,1677,o),
(735,1690,q),
(758,1712,o),
(804.5,1712,q),
(851,1712,o),
(872,1707,q),
(893,1702,o),
(905,1690,q),
(929,1666,o),
(929,1614.5,q),
(929,1563,o),
(923.5,1540.5,q),
(918,1518,o),
(905,1504,q),
(884,1481,o),
(820,1481,q)
);
},
{
closed = 1;
nodes = (
(299,1481,o),
(281,1499,q),
(253,1528,o),
(253,1580,q),
(253,1632,o),
(259,1654.5,q),
(265,1677,o),
(277,1690,q),
(300,1712,o),
(346.5,1712,q),
(393,1712,o),
(413.5,1707,q),
(434,1702,o),
(447,1690,q),
(469,1667,o),
(469,1615,q),
(469,1563,o),
(464,1540.5,q),
(459,1518,o),
(447,1504,q),
(425,1481,o),
(362,1481,q)
);
}
);
width = 1192;
}
);
unicode = 255;
},
{
category = Letter;
glyphname = Amacron;
layers = (
{
layerId = "d8941333-dd91-4113-af16-e7b241417dfa";
name = Fore;
shapes = (
{
closed = 1;
nodes = (
(783,1530,l),
(1318,0,l),
(1137,0,l),
(985,449,l),
(369,449,l),
(225,0,l),
(49,0,l),
(550,1530,l)
);
},
{
closed = 1;
nodes = (
(667,1395,l),
(636,1281,l),
(415,592,l),
(937,592,l)
);
},
{
closed = 1;
nodes = (
(962,1876,l),
(962,1741,l),
(363,1741,l),
(363,1876,l)
);
}
);
width = 1364;
}
);
unicode = 256;
},
{
category = Letter;
glyphname = amacron;
layers = (
{
layerId = "d8941333-dd91-4113-af16-e7b241417dfa";
name = Fore;
shapes = (
{
closed = 1;
nodes = (
(1134,223,o),
(1153,8,q),
(1005,-4,l),
(980,135,l),
(853,33,o),
(644,-7,q),
(576,-20,o),
(523,-20,q),
(470,-20,o),
(429.5,-15,q),
(389,-10,o),
(351.5,4.5,q),
(314,19,o),
(282,45,q),
(250,71,o),
(226,114,q),
(175,205,o),
(175,332.5,q),
(175,460,o),
(193.5,530.5,q),
(212,601,o),
(255,648,q),
(340,741,o),
(541,741,q),
(742,741,o),
(970,665,q),
(970,795,l),
(970,1012,o),
(791,1052,q),
(733,1065,o),
(658,1065,q),
(487,1065,o),
(303,997,q),
(266,1141,l),
(317,1175,o),
(526,1202,q),
(592,1210,o),
(684.5,1210,q),
(777,1210,o),
(866,1188,q),
(955,1166,o),
(1014,1116,q),
(1134,1017,o),
(1134,795,q),
(1134,422,l)
);
},
{
closed = 1;
nodes = (
(732,599,o),
(534,599,q),
(412,599,o),
(372,529,q),
(345,480,o),
(345,384,q),
(345,288,o),
(355.5,245,q),
(366,202,o),
(390,174,q),
(437,121,o),
(545,121,q),
(714,121,o),
(880,208,q),
(931,234,o),
(972,266,q),
(966,374,o),
(966,540,q)
);
},
{
closed = 1;
nodes = (
(989,1663,l),
(989,1528,l),
(390,1528,l),
(390,1663,l)
);
}
);
width = 1364;
}
);
unicode = 257;
},
{
category = Letter;
glyphname = Abreve;
layers = (
{
layerId = "d8941333-dd91-4113-af16-e7b241417dfa";
name = Fore;
shapes = (
{
closed = 1;
nodes = (
(783,1530,l),
(1318,0,l),
(1137,0,l),
(985,449,l),
(369,449,l),
(225,0,l),
(49,0,l),
(550,1530,l)
);
},
{
closed = 1;
nodes = (
(667,1395,l),
(636,1281,l),
(415,592,l),
(937,592,l)
);
},
{
closed = 1;
nodes = (
(967,1649,o),
(656,1649,q),
(498,1649,o),
(416.5,1736,q),
(335,1823,o),
(335,1989,q),
(471,2000,l),
(473,1880,o),
(518.5,1826.5,q),
(564,1773,o),
(656,1773,q),
(796,1773,o),
(828,1892,q),
(839,1936,o),
(841,2000,q),
(977,1989,l)
);
}
);
width = 1364;
}
);
unicode = 258;
},
{
category = Letter;
glyphname = abreve;
layers = (
{
layerId = "d8941333-dd91-4113-af16-e7b241417dfa";
name = Fore;
shapes = (
{
closed = 1;
nodes = (
(1134,223,o),
(1153,8,q),
(1005,-4,l),
(980,135,l),
(853,33,o),
(644,-7,q),
(576,-20,o),
(523,-20,q),
(470,-20,o),
(429.5,-15,q),
(389,-10,o),
(351.5,4.5,q),
(314,19,o),
(282,45,q),
(250,71,o),
(226,114,q),
(175,205,o),
(175,332.5,q),
(175,460,o),
(193.5,530.5,q),
(212,601,o),
(255,648,q),
(340,741,o),
(541,741,q),
(742,741,o),
(970,665,q),
(970,795,l),
(970,1012,o),
(791,1052,q),
(733,1065,o),
(658,1065,q),
(487,1065,o),
(303,997,q),
(266,1141,l),
(317,1175,o),
(526,1202,q),
(592,1210,o),
(684.5,1210,q),
(777,1210,o),
(866,1188,q),
(955,1166,o),
(1014,1116,q),
(1134,1017,o),
(1134,795,q),
(1134,422,l)
);
},
{
closed = 1;
nodes = (
(732,599,o),
(534,599,q),
(412,599,o),
(372,529,q),
(345,480,o),
(345,384,q),
(345,288,o),
(355.5,245,q),
(366,202,o),
(390,174,q),
(437,121,o),
(545,121,q),
(714,121,o),
(880,208,q),
(931,234,o),
(972,266,q),
(966,374,o),
(966,540,q)
);
},
{
closed = 1;
nodes = (
(1001,1393,o),
(690,1393,q),
(532,1393,o),
(450.5,1480,q),
(369,1567,o),
(369,1733,q),
(505,1744,l),
(507,1624,o),
(552.5,1570.5,q),
(598,1517,o),
(690,1517,q),
(830,1517,o),
(862,1637,q),
(873,1680,o),
(875,1744,q),
(1011,1733,l)
);
}
);
width = 1364;
}
);
unicode = 259;
},
{
category = Letter;
glyphname = Aogonek;
layers = (
{
layerId = "d8941333-dd91-4113-af16-e7b241417dfa";
name = Fore;
shapes = (
{
closed = 1;
nodes = (
(976,-123,o),
(1153,0,q),
(1137,0,l),
(985,449,l),
(369,449,l),
(225,0,l),
(49,0,l),
(550,1530,l),
(783,1530,l),
(1318,0,l),
(1310,0,l),
(1166,-87,o),
(1130,-198,q),
(1120,-228,o),
(1120,-251,q),
(1120,-338,o),
(1225,-338,q),
(1300,-338,o),
(1374,-307,q),
(1414,-432,l),
(1348,-474,o),
(1236,-474,q),
(976,-474,o),
(976,-275,q)
);
},
{
closed = 1;
nodes = (
(667,1395,l),
(636,1281,l),
(415,592,l),
(937,592,l)
);
}
);
width = 1364;
}
);
unicode = 260;
},
{
category = Letter;
glyphname = aogonek;
layers = (
{
layerId = "d8941333-dd91-4113-af16-e7b241417dfa";
name = Fore;
shapes = (
{
closed = 1;
nodes = (
(818,-122,o),
(1003,4,q),
(980,135,l),
(853,33,o),
(644,-7,q),
(576,-20,o),
(523,-20,q),
(470,-20,o),
(429.5,-15,q),
(389,-10,o),
(351.5,4.5,q),
(314,19,o),
(282,45,q),
(250,71,o),
(226,114,q),
(175,205,o),
(175,332.5,q),
(175,460,o),
(193.5,530.5,q),
(212,601,o),
(255,648,q),
(340,741,o),
(541,741,q),
(742,741,o),
(970,665,q),
(970,795,l),
(970,1012,o),
(791,1052,q),
(733,1065,o),
(658,1065,q),
(487,1065,o),
(303,997,q),
(266,1141,l),
(317,1175,o),
(526,1202,q),
(592,1210,o),
(684.5,1210,q),
(777,1210,o),
(866,1188,q),
(955,1166,o),
(1014,1116,q),
(1134,1017,o),
(1134,795,q),
(1134,422,l),
(1134,200,o),
(1154,0,q),
(1008,-88,o),
(972,-198,q),
(962,-229,o),
(962,-252,q),
(962,-339,o),
(1067,-339,q),
(1142,-339,o),
(1216,-308,q),
(1256,-433,l),
(1190,-475,o),
(1078,-475,q),
(818,-475,o),
(818,-276,q)
);
},
{
closed = 1;
nodes = (
(732,599,o),
(534,599,q),
(412,599,o),
(372,529,q),
(345,480,o),
(345,384,q),
(345,288,o),
(355.5,245,q),
(366,202,o),
(390,174,q),
(437,121,o),
(545,121,q),
(714,121,o),
(880,208,q),
(931,234,o),
(972,266,q),
(966,374,o),
(966,540,q)
);
}
);
width = 1364;
}
);
unicode = 261;
},
{
category = Letter;
glyphname = Cacute;
layers = (
{
layerId = "d8941333-dd91-4113-af16-e7b241417dfa";
name = Fore;
shapes = (
{
closed = 1;
nodes = (
(934,124,o),
(1099,187,q),
(1143,49,l),
(1067,11,o),
(960,-4.5,q),
(853,-20,o),
(771,-20,q),
(757,-20,l),
(401,-20,o),
(280,184,q),
(206,308,o),
(190,518,q),
(183,619,o),
(183,739,q),
(183,859,o),
(189.5,967.5,q),
(196,1076,o),
(216,1166.5,q),
(236,1257,o),
(274,1328,q),
(312,1399,o),
(376,1448,q),
(506,1550,o),
(754,1550,q),
(914,1550,o),
(1011.5,1529.5,q),
(1109,1509,o),
(1143,1496,q),
(1098,1338,l),
(903,1406,o),
(764.5,1406,q),
(626,1406,o),
(551.5,1372.5,q),
(477,1339,o),
(435,1262,q),
(362,1130,o),
(362,759,q),
(362,685,l),
(362,380,o),
(441,259,q),
(529,124,o),
(762,124,q),
(771,124,l)
);
},
{
closed = 1;
nodes = (
(967,2000,l),
(1060,1841,l),
(601,1649,l),
(551,1741,l)
);
}
);
width = 1194;
}
);
unicode = 262;
},
{
category = Letter;
glyphname = cacute;
layers = (
{
layerId = "d8941333-dd91-4113-af16-e7b241417dfa";
name = Fore;
shapes = (
{
closed = 1;
nodes = (
(911,-20,o),
(669,-20,q),
(526,-20,o),
(459,2,q),
(288,60,o),
(235,199,q),
(198,296,o),
(192,408,q),
(186,520,o),
(186,597,q),
(186,674,o),
(190,747.5,q),
(194,821,o),
(209.5,889,q),
(225,957,o),
(257,1015.5,q),
(289,1074,o),
(344,1118,q),
(463,1210,o),
(686,1210,q),
(850,1210,o),
(988,1162,q),
(1025,1150,o),
(1044,1139,q),
(994,991,l),
(802,1065,o),
(679.5,1065,q),
(557,1065,o),
(499.5,1037,q),
(442,1009,o),
(410,952,q),
(356,854,o),
(356,592,q),
(356,487,o),
(363,400.5,q),
(370,314,o),
(398,252,q),
(457,124,o),
(641.5,124,q),
(826,124,o),
(1000,188,q),
(1050,53,l)
);
},
{
closed = 1;
nodes = (
(774,1837,l),
(904,1716,l),
(534,1399,l),
(451,1486,l)
);
}
);
width = 1196;
}
);
unicode = 263;
},
{
category = Letter;
glyphname = Ccircumflex;
layers = (
{
layerId = "d8941333-dd91-4113-af16-e7b241417dfa";
name = Fore;
shapes = (
{
closed = 1;
nodes = (
(934,124,o),
(1099,187,q),
(1143,49,l),
(1067,11,o),
(960,-4.5,q),
(853,-20,o),
(771,-20,q),
(757,-20,l),
(401,-20,o),
(280,184,q),
(206,308,o),
(190,518,q),
(183,619,o),
(183,739,q),
(183,859,o),
(189.5,967.5,q),
(196,1076,o),
(216,1166.5,q),
(236,1257,o),
(274,1328,q),
(312,1399,o),
(376,1448,q),
(506,1550,o),
(754,1550,q),
(914,1550,o),
(1011.5,1529.5,q),
(1109,1509,o),
(1143,1496,q),
(1098,1338,l),
(903,1406,o),
(764.5,1406,q),
(626,1406,o),
(551.5,1372.5,q),
(477,1339,o),
(435,1262,q),
(362,1130,o),
(362,759,q),
(362,685,l),
(362,380,o),
(441,259,q),
(529,124,o),
(762,124,q),
(771,124,l)
);
},
{
closed = 1;
nodes = (
(628,1991,l),
(788,1991,l),
(1021,1743,l),
(944,1663,l),
(707,1863,l),
(478,1662,l),
(404,1744,l)
);
}
);
width = 1194;
}
);
unicode = 264;
},
{
category = Letter;
glyphname = ccircumflex;
layers = (
{
layerId = "d8941333-dd91-4113-af16-e7b241417dfa";
name = Fore;
shapes = (
{
closed = 1;
nodes = (
(911,-20,o),
(669,-20,q),
(526,-20,o),
(459,2,q),
(288,60,o),
(235,199,q),
(198,296,o),
(192,408,q),
(186,520,o),
(186,597,q),
(186,674,o),
(190,747.5,q),
(194,821,o),
(209.5,889,q),
(225,957,o),
(257,1015.5,q),
(289,1074,o),
(344,1118,q),
(463,1210,o),
(686,1210,q),
(850,1210,o),
(988,1162,q),
(1025,1150,o),
(1044,1139,q),
(994,991,l),
(802,1065,o),
(679.5,1065,q),
(557,1065,o),
(499.5,1037,q),
(442,1009,o),
(410,952,q),
(356,854,o),
(356,592,q),
(356,487,o),
(363,400.5,q),
(370,314,o),
(398,252,q),
(457,124,o),
(641.5,124,q),
(826,124,o),
(1000,188,q),
(1050,53,l)
);
},
{
closed = 1;
nodes = (
(596,1830,l),
(717,1830,l),
(1005,1480,l),
(924,1400,l),
(658,1665,l),
(399,1400,l),
(317,1479,l)
);
}
);
width = 1196;
}
);
unicode = 265;
},
{
category = Letter;
glyphname = Cdotaccent;
layers = (
{
layerId = "d8941333-dd91-4113-af16-e7b241417dfa";
name = Fore;
shapes = (
{
closed = 1;
nodes = (
(934,124,o),
(1099,187,q),
(1143,49,l),
(1067,11,o),
(960,-4.5,q),
(853,-20,o),
(771,-20,q),
(757,-20,l),
(401,-20,o),
(280,184,q),
(206,308,o),
(190,518,q),
(183,619,o),
(183,739,q),
(183,859,o),
(189.5,967.5,q),
(196,1076,o),
(216,1166.5,q),
(236,1257,o),
(274,1328,q),
(312,1399,o),
(376,1448,q),
(506,1550,o),
(754,1550,q),
(914,1550,o),
(1011.5,1529.5,q),
(1109,1509,o),
(1143,1496,q),
(1098,1338,l),
(903,1406,o),
(764.5,1406,q),
(626,1406,o),
(551.5,1372.5,q),
(477,1339,o),
(435,1262,q),
(362,1130,o),
(362,759,q),
(362,685,l),
(362,380,o),
(441,259,q),
(529,124,o),
(762,124,q),
(771,124,l)
);
},
{
closed = 1;
nodes = (
(635,1711,o),
(616,1730,q),
(586,1761,o),
(586,1815.5,q),
(586,1870,o),
(592.5,1893.5,q),
(599,1917,o),
(613,1930,q),
(636,1954,o),
(685.5,1954,q),
(735,1954,o),
(756.5,1949,q),
(778,1944,o),
(791,1930,q),
(816,1906,o),
(816,1851.5,q),
(816,1797,o),
(810.5,1773.5,q),
(805,1750,o),
(791,1736,q),
(767,1711,o),
(702,1711,q)
);
}
);
width = 1194;
}
);
unicode = 266;
},
{
category = Letter;
glyphname = cdotaccent;
layers = (
{
layerId = "d8941333-dd91-4113-af16-e7b241417dfa";
name = Fore;
shapes = (
{
closed = 1;
nodes = (
(911,-20,o),
(669,-20,q),
(526,-20,o),
(459,2,q),
(288,60,o),
(235,199,q),
(198,296,o),
(192,408,q),
(186,520,o),
(186,597,q),
(186,674,o),
(190,747.5,q),
(194,821,o),
(209.5,889,q),
(225,957,o),
(257,1015.5,q),
(289,1074,o),
(344,1118,q),
(463,1210,o),
(686,1210,q),
(850,1210,o),
(988,1162,q),
(1025,1150,o),
(1044,1139,q),
(994,991,l),
(802,1065,o),
(679.5,1065,q),
(557,1065,o),
(499.5,1037,q),
(442,1009,o),
(410,952,q),
(356,854,o),
(356,592,q),
(356,487,o),
(363,400.5,q),
(370,314,o),
(398,252,q),
(457,124,o),
(641.5,124,q),
(826,124,o),
(1000,188,q),
(1050,53,l)
);
},
{
closed = 1;
nodes = (
(599,1475,o),
(580,1494,q),
(550,1525,o),
(550,1579.5,q),
(550,1634,o),
(556.5,1657.5,q),
(563,1681,o),
(576,1694,q),
(600,1718,o),
(649.5,1718,q),
(699,1718,o),
(720.5,1713,q),
(742,1708,o),
(756,1694,q),
(780,1670,o),
(780,1615.5,q),
(780,1561,o),
(774.5,1537.5,q),
(769,1514,o),
(756,1500,q),
(731,1475,o),
(666,1475,q)
);
}
);
width = 1196;
}
);
unicode = 267;
},
{
category = Letter;
glyphname = Ccaron;
layers = (
{
layerId = "d8941333-dd91-4113-af16-e7b241417dfa";
name = Fore;
shapes = (
{
closed = 1;
nodes = (
(934,124,o),
(1099,187,q),
(1143,49,l),
(1067,11,o),
(960,-4.5,q),
(853,-20,o),
(771,-20,q),
(757,-20,l),
(401,-20,o),
(280,184,q),
(206,308,o),
(190,518,q),
(183,619,o),
(183,739,q),
(183,859,o),
(189.5,967.5,q),
(196,1076,o),
(216,1166.5,q),
(236,1257,o),
(274,1328,q),
(312,1399,o),
(376,1448,q),
(506,1550,o),
(754,1550,q),
(914,1550,o),
(1011.5,1529.5,q),
(1109,1509,o),
(1143,1496,q),
(1098,1338,l),
(903,1406,o),
(764.5,1406,q),
(626,1406,o),
(551.5,1372.5,q),
(477,1339,o),
(435,1262,q),
(362,1130,o),
(362,759,q),
(362,685,l),
(362,380,o),
(441,259,q),
(529,124,o),
(762,124,q),
(771,124,l)
);
},
{
closed = 1;
nodes = (
(468,1997,l),
(705,1797,l),
(934,1998,l),
(1008,1916,l),
(784,1669,l),
(624,1669,l),
(391,1917,l)
);
}
);
width = 1194;
}
);
unicode = 268;
},
{
category = Letter;
glyphname = ccaron;
layers = (
{
layerId = "d8941333-dd91-4113-af16-e7b241417dfa";
name = Fore;
shapes = (
{
closed = 1;
nodes = (
(911,-20,o),
(669,-20,q),
(526,-20,o),
(459,2,q),
(288,60,o),
(235,199,q),
(198,296,o),
(192,408,q),
(186,520,o),
(186,597,q),
(186,674,o),
(190,747.5,q),
(194,821,o),
(209.5,889,q),
(225,957,o),
(257,1015.5,q),
(289,1074,o),
(344,1118,q),
(463,1210,o),
(686,1210,q),
(850,1210,o),
(988,1162,q),
(1025,1150,o),
(1044,1139,q),
(994,991,l),
(802,1065,o),
(679.5,1065,q),
(557,1065,o),
(499.5,1037,q),
(442,1009,o),
(410,952,q),
(356,854,o),
(356,592,q),
(356,487,o),
(363,400.5,q),
(370,314,o),
(398,252,q),
(457,124,o),
(641.5,124,q),
(826,124,o),
(1000,188,q),
(1050,53,l)
);
},
{
closed = 1;
nodes = (
(405,1837,l),
(671,1572,l),
(930,1837,l),
(1012,1757,l),
(733,1407,l),
(612,1407,l),
(324,1757,l)
);
}
);
width = 1196;
}
);
unicode = 269;
},
{
category = Letter;
glyphname = Dcaron;
layers = (
{
layerId = "d8941333-dd91-4113-af16-e7b241417dfa";
name = Fore;
shapes = (
{
closed = 1;
nodes = (
(236,1521,o),
(386,1532,q),
(611,1550,o),
(745,1550,q),
(879,1550,o),
(959,1539.5,q),
(1039,1529,o),
(1099.5,1503.5,q),
(1160,1478,o),
(1202.5,1434,q),
(1245,1390,o),
(1272,1322,q),
(1323,1195,o),
(1323,944,q),
(1323,789,l),
(1323,492,o),
(1279,338,q),
(1228,160,o),
(1096,82,q),
(960,0,o),
(697,0,q),
(236,0,l),
(236,1521,l)
);
},
{
closed = 1;
nodes = (
(913,1402,o),
(772,1402,q),
(631,1402,o),
(406,1385,q),
(406,143,l),
(724,143,l),
(910,143,o),
(1000,204,q),
(1088,263,o),
(1118,407,q),
(1144,525,o),
(1144,789,q),
(1144,945,l),
(1144,1194,o),
(1085,1287,q),
(1049,1344,o),
(981,1373,q)
);
},
{
closed = 1;
nodes = (
(493,1997,l),
(730,1797,l),
(959,1998,l),
(1033,1916,l),
(809,1669,l),
(649,1669,l),
(416,1917,l)
);
}
);
width = 1534;
}
);
unicode = 270;
},
{
category = Letter;
glyphname = dcaron;
layers = (
{
layerId = "d8941333-dd91-4113-af16-e7b241417dfa";
name = Fore;
shapes = (
{
closed = 1;
nodes = (
(785,-20,o),
(567,-20,q),
(326,-20,o),
(246,157,q),
(200,257,o),
(194.5,368.5,q),
(189,480,o),
(189,564.5,q),
(189,649,o),
(190.5,735,q),
(192,821,o),
(203,894,q),
(214,967,o),
(237.5,1025.5,q),
(261,1084,o),
(305,1125,q),
(396,1210,o),
(605.5,1210,q),
(815,1210,o),
(984,1137,q),
(984,1702,l),
(1150,1718,l),
(1150,547,l),
(1150,202,o),
(1169,8,q),
(1020,-4,l),
(996,133,l)
);
},
{
closed = 1;
nodes = (
(804,1060,o),
(636,1060,q),
(514,1060,o),
(475,1040,q),
(436,1020,o),
(415.5,988,q),
(395,956,o),
(382,900,q),
(359,795,o),
(359,554,q),
(359,532,l),
(359,307,o),
(408,221,q),
(461,130,o),
(605,130,q),
(620,130,l),
(758,130,o),
(914,218,q),
(957,242,o),
(988,266,q),
(988,268,l),
(983,361,o),
(983,555,q),
(984,1000,l)
);
},
{
closed = 1;
nodes = (
(1468,1713,o),
(1468,1666,q),
(1468,1653,o),
(1463,1618,q),
(1411,1280,l),
(1299,1280,l),
(1299,1699,l),
(1321,1703,l),
(1379,1713,o),
(1417,1713,q)
);
}
);
width = 1364;
}
);
unicode = 271;
},
{
category = Letter;
glyphname = Dcroat;
layers = (
{
layerId = "d8941333-dd91-4113-af16-e7b241417dfa";
name = Fore;
shapes = (
{
closed = 1;
nodes = (
(632,1552,o),
(783,1552,q),
(934,1552,o),
(1009.5,1541,q),
(1085,1530,o),
(1139.5,1503,q),
(1194,1476,o),
(1229.5,1429.5,q),
(1265,1383,o),
(1286,1311,q),
(1322,1183,o),
(1322,966.5,q),
(1322,750,o),
(1316,622.5,q),
(1310,495,o),
(1288.5,394.5,q),
(1267,294,o),
(1226,219.5,q),
(1185,145,o),
(1116,96,q),
(977,0,o),
(697,0,q),
(236,0,l),
(236,699,l),
(74,699,l),
(74,834,l),
(236,834,l),
(236,1520,l)
);
},
{
closed = 1;
nodes = (
(915,148,o),
(1003,209.5,q),
(1091,271,o),
(1122,416,q),
(1147,535,o),
(1147,799,q),
(1147,974,l),
(1147,1082,o),
(1140,1163.5,q),
(1133,1245,o),
(1102,1299,q),
(1042,1407,o),
(841,1407,q),
(734,1407,o),
(624,1400,q),
(406,1385,l),
(406,834,l),
(745,834,l),
(745,699,l),
(406,699,l),
(406,148,l),
(727,148,l)
);
}
);
width = 1534;
}
);
unicode = 272;
},
{
category = Letter;
glyphname = dcroat;
layers = (
{
layerId = "d8941333-dd91-4113-af16-e7b241417dfa";
name = Fore;
shapes = (
{
closed = 1;
nodes = (
(785,-20,o),
(567,-20,q),
(326,-20,o),
(246,157,q),
(200,257,o),
(194.5,368.5,q),
(189,480,o),
(189,564.5,q),
(189,649,o),
(190.5,735,q),
(192,821,o),
(203,894,q),
(214,967,o),
(237.5,1025.5,q),
(261,1084,o),
(305,1125,q),
(396,1210,o),
(605.5,1210,q),
(815,1210,o),
(984,1137,q),
(984,1402,l),
(687,1402,l),
(687,1529,l),
(984,1529,l),
(984,1702,l),
(1150,1718,l),
(1150,1529,l),
(1359,1529,l),
(1359,1402,l),
(1150,1402,l),
(1150,547,l),
(1150,202,o),
(1169,8,q),
(1020,-4,l),
(996,133,l)
);
},
{
closed = 1;
nodes = (
(804,1060,o),
(636,1060,q),
(514,1060,o),
(475,1040,q),
(436,1020,o),
(415.5,988,q),
(395,956,o),
(382,900,q),
(359,795,o),
(359,554,q),
(359,532,l),
(359,307,o),
(408,221,q),
(461,130,o),
(605,130,q),
(620,130,l),
(758,130,o),
(914,218,q),
(957,242,o),
(988,266,q),
(988,268,l),
(983,361,o),
(983,555,q),
(984,1000,l)
);
}
);
width = 1364;
}
);
unicode = 273;
},
{
category = Letter;
glyphname = Emacron;
layers = (
{
layerId = "d8941333-dd91-4113-af16-e7b241417dfa";
name = Fore;
shapes = (
{
closed = 1;
nodes = (
(1103,1530,l),
(1103,1382,l),
(406,1382,l),
(406,854,l),
(968,854,l),
(968,707,l),
(406,707,l),
(406,147,l),
(1130,147,l),
(1130,0,l),
(236,0,l),
(236,1530,l)
);
},
{
closed = 1;
nodes = (
(977,1876,l),
(977,1741,l),
(378,1741,l),
(378,1876,l)
);
}
);
width = 1195;
}
);
unicode = 274;
},
{
category = Letter;
glyphname = emacron;
layers = (
{
layerId = "d8941333-dd91-4113-af16-e7b241417dfa";
name = Fore;
shapes = (
{
closed = 1;
nodes = (
(948,-20,o),
(698,-20,q),
(553,-20,o),
(452,10,q),
(291,56,o),
(238,200,q),
(189,335,o),
(189,600,q),
(189,651,l),
(189,968,o),
(321,1096,q),
(440,1210,o),
(718,1210,q),
(989,1210,o),
(1088,1076,q),
(1136,1011,o),
(1151.5,918.5,q),
(1167,826,o),
(1167,742,q),
(1167,611,o),
(1161,539,q),
(1020,533,o),
(908,533,q),
(908,533,o),
(747,533,q),
(495,533,o),
(359,555,q),
(359,325,o),
(417,234,q),
(488,123,o),
(700,123,q),
(912,123,o),
(1106,206,q),
(1155,63,l)
);
},
{
closed = 1;
nodes = (
(998,768,l),
(998,925,o),
(937,992,q),
(869,1067,o),
(702,1067,q),
(502,1067,o),
(429,980,q),
(359,897,o),
(359,672,q),
(998,672,l)
);
},
{
closed = 1;
nodes = (
(984,1663,l),
(984,1528,l),
(385,1528,l),
(385,1663,l)
);
}
);
width = 1364;
}
);
unicode = 275;
},
{
category = Letter;
glyphname = Ebreve;
layers = (
{
layerId = "d8941333-dd91-4113-af16-e7b241417dfa";
name = Fore;
shapes = (
{
closed = 1;
nodes = (
(1103,1530,l),
(1103,1382,l),
(406,1382,l),
(406,854,l),
(968,854,l),
(968,707,l),
(406,707,l),
(406,147,l),
(1130,147,l),
(1130,0,l),
(236,0,l),
(236,1530,l)
);
},
{
closed = 1;
nodes = (
(985,1649,o),
(674,1649,q),
(516,1649,o),
(434.5,1736,q),
(353,1823,o),
(353,1989,q),
(489,2000,l),
(491,1880,o),
(536.5,1826.5,q),
(582,1773,o),
(674,1773,q),
(814,1773,o),
(846,1892,q),
(857,1936,o),
(859,2000,q),
(995,1989,l)
);
}
);
width = 1195;
}
);
unicode = 276;
},
{
category = Letter;
glyphname = ebreve;
layers = (
{
layerId = "d8941333-dd91-4113-af16-e7b241417dfa";
name = Fore;
shapes = (
{
closed = 1;
nodes = (
(948,-20,o),
(698,-20,q),
(553,-20,o),
(452,10,q),
(291,56,o),
(238,200,q),
(189,335,o),
(189,600,q),
(189,651,l),
(189,968,o),
(321,1096,q),
(440,1210,o),
(718,1210,q),
(989,1210,o),
(1088,1076,q),
(1136,1011,o),
(1151.5,918.5,q),
(1167,826,o),
(1167,742,q),
(1167,611,o),
(1161,539,q),
(1020,533,o),
(908,533,q),
(908,533,o),
(747,533,q),
(495,533,o),
(359,555,q),
(359,325,o),
(417,234,q),
(488,123,o),
(700,123,q),
(912,123,o),
(1106,206,q),
(1155,63,l)
);
},
{
closed = 1;
nodes = (
(998,768,l),
(998,925,o),
(937,992,q),
(869,1067,o),
(702,1067,q),
(502,1067,o),
(429,980,q),
(359,897,o),
(359,672,q),
(998,672,l)
);
},
{
closed = 1;
nodes = (
(986,1394,o),
(675,1394,q),
(517,1394,o),
(435.5,1481,q),
(354,1568,o),
(354,1734,q),
(490,1745,l),
(492,1625,o),
(537.5,1571.5,q),
(583,1518,o),
(675,1518,q),
(815,1518,o),
(847,1638,q),
(858,1681,o),
(860,1745,q),
(996,1734,l)
);
}
);
width = 1364;
}
);
unicode = 277;
},
{
category = Letter;
glyphname = Edotaccent;
layers = (
{
layerId = "d8941333-dd91-4113-af16-e7b241417dfa";
name = Fore;
shapes = (
{
closed = 1;
nodes = (
(1103,1530,l),
(1103,1382,l),
(406,1382,l),
(406,854,l),
(968,854,l),
(968,707,l),
(406,707,l),
(406,147,l),
(1130,147,l),
(1130,0,l),
(236,0,l),
(236,1530,l)
);
},
{
closed = 1;
nodes = (
(616,1711,o),
(597,1730,q),
(567,1761,o),
(567,1815.5,q),
(567,1870,o),
(573.5,1893.5,q),
(580,1917,o),
(594,1930,q),
(617,1954,o),
(666.5,1954,q),
(716,1954,o),
(737.5,1949,q),
(759,1944,o),
(772,1930,q),
(797,1906,o),
(797,1851.5,q),
(797,1797,o),
(791.5,1773.5,q),
(786,1750,o),
(772,1736,q),
(748,1711,o),
(683,1711,q)
);
}
);
width = 1195;
}
);
unicode = 278;
},
{
category = Letter;
glyphname = edotaccent;
layers = (
{
layerId = "d8941333-dd91-4113-af16-e7b241417dfa";
name = Fore;
shapes = (
{
closed = 1;
nodes = (
(948,-20,o),
(698,-20,q),
(553,-20,o),
(452,10,q),
(291,56,o),
(238,200,q),
(189,335,o),
(189,600,q),
(189,651,l),
(189,968,o),
(321,1096,q),
(440,1210,o),
(718,1210,q),
(989,1210,o),
(1088,1076,q),
(1136,1011,o),
(1151.5,918.5,q),
(1167,826,o),
(1167,742,q),
(1167,611,o),
(1161,539,q),
(1020,533,o),
(908,533,q),
(908,533,o),
(747,533,q),
(495,533,o),
(359,555,q),
(359,325,o),
(417,234,q),
(488,123,o),
(700,123,q),
(912,123,o),
(1106,206,q),
(1155,63,l)
);
},
{
closed = 1;
nodes = (
(998,768,l),
(998,925,o),
(937,992,q),
(869,1067,o),
(702,1067,q),
(502,1067,o),
(429,980,q),
(359,897,o),
(359,672,q),
(998,672,l)
);
},
{
closed = 1;
nodes = (
(616,1475,o),
(597,1494,q),
(567,1525,o),
(567,1579.5,q),
(567,1634,o),
(573.5,1657.5,q),
(580,1681,o),
(593,1694,q),
(617,1718,o),
(666.5,1718,q),
(716,1718,o),
(737.5,1713,q),
(759,1708,o),
(773,1694,q),
(797,1670,o),
(797,1615.5,q),
(797,1561,o),
(791.5,1537.5,q),
(786,1514,o),
(773,1500,q),
(748,1475,o),
(683,1475,q)
);
}
);
width = 1364;
}
);
unicode = 279;
},
{
category = Letter;
glyphname = Eogonek;
layers = (
{
layerId = "d8941333-dd91-4113-af16-e7b241417dfa";
name = Fore;
shapes = (
{
closed = 1;
nodes = (
(712,-123,o),
(889,0,q),
(236,0,l),
(236,1530,l),
(1103,1530,l),
(1103,1382,l),
(406,1382,l),
(406,854,l),
(968,854,l),
(968,707,l),
(406,707,l),
(406,147,l),
(1130,147,l),
(1130,0,l),
(1046,0,l),
(902,-87,o),
(866,-198,q),
(856,-228,o),
(856,-251,q),
(856,-338,o),
(961,-338,q),
(1036,-338,o),
(1110,-307,q),
(1150,-432,l),
(1084,-474,o),
(972,-474,q),
(712,-474,o),
(712,-275,q)
);
}
);
width = 1195;
}
);
unicode = 280;
},
{
category = Letter;
glyphname = eogonek;
layers = (
{
layerId = "d8941333-dd91-4113-af16-e7b241417dfa";
name = Fore;
shapes = (
{
closed = 1;
nodes = (
(623,-134,o),
(778,-17,q),
(758,-18,o),
(738,-19,q),
(718,-20,o),
(698,-20,q),
(553,-20,o),
(452,10,q),
(291,56,o),
(238,200,q),
(189,335,o),
(189,600,q),
(189,651,l),
(189,968,o),
(321,1096,q),
(440,1210,o),
(718,1210,q),
(989,1210,o),
(1088,1076,q),
(1136,1011,o),
(1151.5,918.5,q),
(1167,826,o),
(1167,716,q),
(1167,606,o),
(1161,534,q),
(1020,528,o),
(908,528,q),
(747,528,l),
(495,528,o),
(359,550,q),
(359,320,o),
(417,231,q),
(488,122,o),
(698.5,122,q),
(909,122,o),
(1106,206,q),
(1155,63,l),
(1073,32,o),
(981,11,q),
(959,0,l),
(813,-88,o),
(777,-198,q),
(767,-229,o),
(767,-252,q),
(767,-339,o),
(872,-339,q),
(947,-339,o),
(1021,-308,q),
(1061,-433,l),
(995,-475,o),
(883,-475,q),
(623,-475,o),
(623,-276,q)
);
},
{
closed = 1;
nodes = (
(998,768,l),
(998,925,o),
(937,992,q),
(869,1067,o),
(702,1067,q),
(502,1067,o),
(429,980,q),
(359,897,o),
(359,672,q),
(998,672,l)
);
}
);
width = 1364;
}
);
unicode = 281;
},
{
category = Letter;
glyphname = Ecaron;
layers = (
{
layerId = "d8941333-dd91-4113-af16-e7b241417dfa";
name = Fore;
shapes = (
{
closed = 1;
nodes = (
(1103,1530,l),
(1103,1382,l),
(406,1382,l),
(406,854,l),
(968,854,l),
(968,707,l),
(406,707,l),
(406,147,l),
(1130,147,l),
(1130,0,l),
(236,0,l),
(236,1530,l)
);
},
{
closed = 1;
nodes = (
(448,1997,l),
(685,1797,l),
(914,1998,l),
(988,1916,l),
(764,1669,l),
(604,1669,l),
(371,1917,l)
);
}
);
width = 1195;
}
);
unicode = 282;
},
{
category = Letter;
glyphname = ecaron;
layers = (
{
layerId = "d8941333-dd91-4113-af16-e7b241417dfa";
name = Fore;
shapes = (
{
closed = 1;
nodes = (
(948,-20,o),
(698,-20,q),
(553,-20,o),
(452,10,q),
(291,56,o),
(238,200,q),
(189,335,o),
(189,600,q),
(189,651,l),
(189,968,o),
(321,1096,q),
(440,1210,o),
(718,1210,q),
(989,1210,o),
(1088,1076,q),
(1136,1011,o),
(1151.5,918.5,q),
(1167,826,o),
(1167,742,q),
(1167,611,o),
(1161,539,q),
(1020,533,o),
(908,533,q),
(908,533,o),
(747,533,q),
(495,533,o),
(359,555,q),
(359,325,o),
(417,234,q),
(488,123,o),
(700,123,q),
(912,123,o),
(1106,206,q),
(1155,63,l)
);
},
{
closed = 1;
nodes = (
(998,768,l),
(998,925,o),
(937,992,q),
(869,1067,o),
(702,1067,q),
(502,1067,o),
(429,980,q),
(359,897,o),
(359,672,q),
(998,672,l)
);
},
{
closed = 1;
nodes = (
(413,1837,l),
(679,1572,l),
(938,1837,l),
(1020,1757,l),
(741,1407,l),
(620,1407,l),
(332,1757,l)
);
}
);
width = 1364;
}
);
unicode = 283;
},
{
category = Letter;
glyphname = Gcircumflex;
layers = (
{
layerId = "d8941333-dd91-4113-af16-e7b241417dfa";
name = Fore;
shapes = (
{
closed = 1;
nodes = (
(924,1406,o),
(702,1406,q),
(473,1406,o),
(404,1218,q),
(363,1107,o),
(358.5,965.5,q),
(354,824,o),
(354,721,q),
(354,622,l),
(354,303,o),
(461,199,q),
(525,137,o),
(632,126,q),
(682,120,o),
(735,120,q),
(788,120,o),
(837.5,125.5,q),
(887,131,o),
(932,140,q),
(1023,158,o),
(1068,180,q),
(1068,652,l),
(759,652,l),
(759,790,l),
(1235,790,l),
(1235,105,l),
(1141,34,o),
(902,-6,q),
(819,-20,o),
(713,-20,q),
(607,-20,o),
(518.5,1.5,q),
(430,23,o),
(368.5,64.5,q),
(307,106,o),
(269,168,q),
(231,230,o),
(210,311,q),
(176,447,o),
(176,646.5,q),
(176,846,o),
(183,961.5,q),
(190,1077,o),
(210.5,1170.5,q),
(231,1264,o),
(268,1335,q),
(305,1406,o),
(365,1454,q),
(487,1550,o),
(713,1550,q),
(971,1550,o),
(1154,1493,q),
(1205,1477,l),
(1165,1322,l)
);
},
{
closed = 1;
nodes = (
(678,1991,l),
(838,1991,l),
(1071,1743,l),
(994,1663,l),
(757,1863,l),
(528,1662,l),
(454,1744,l)
);
}
);
width = 1364;
}
);
unicode = 284;
},
{
category = Letter;
glyphname = gcircumflex;
layers = (
{
layerId = "d8941333-dd91-4113-af16-e7b241417dfa";
name = Fore;
shapes = (
{
closed = 1;
nodes = (
(1005,1190,l),
(1149,1190,l),
(1150,22,l),
(1150,-235,o),
(1049,-352,q),
(941,-476,o),
(684,-476,q),
(484,-476,o),
(329,-422,q),
(290,-409,o),
(269,-398,q),
(321,-257,l),
(339,-263,o),
(374,-276.5,q),
(409,-290,o),
(458,-303,q),
(582,-336,o),
(685.5,-336,q),
(789,-336,o),
(845,-315,q),
(901,-294,o),
(932,-250,q),
(984,-176,o),
(984,19,q),
(984,114,l),
(793,-20,o),
(580,-20,q),
(331,-20,o),
(248,157,q),
(200,257,o),
(192,410,q),
(189,480,o),
(189,564.5,q),
(189,649,o),
(190.5,735,q),
(192,821,o),
(203,894,q),
(214,967,o),
(237.5,1025.5,q),
(261,1084,o),
(305,1125,q),
(396,1210,o),
(585.5,1210,q),
(775,1210,o),
(989,1108,q)
);
},
{
closed = 1;
nodes = (
(804,1060,o),
(636,1060,q),
(514,1060,o),
(475,1040,q),
(436,1020,o),
(415.5,988,q),
(395,956,o),
(382,900,q),
(359,795,o),
(359,554,q),
(359,532,l),
(359,310,o),
(414,221,q),
(469,130,o),
(615,130,q),
(630,130,l),
(768,130,o),
(912,206,q),
(953,227,o),
(984,249,q),
(984,970,l)
);
},
{
closed = 1;
nodes = (
(604,1830,l),
(725,1830,l),
(1013,1480,l),
(932,1400,l),
(666,1665,l),
(407,1400,l),
(325,1479,l)
);
}
);
width = 1364;
}
);
unicode = 285;
},
{
category = Letter;
glyphname = Gbreve;
layers = (
{
layerId = "d8941333-dd91-4113-af16-e7b241417dfa";
name = Fore;
shapes = (
{
closed = 1;
nodes = (
(924,1406,o),
(702,1406,q),
(473,1406,o),
(404,1218,q),
(363,1107,o),
(358.5,965.5,q),
(354,824,o),
(354,721,q),
(354,622,l),
(354,303,o),
(461,199,q),
(525,137,o),
(632,126,q),
(682,120,o),
(735,120,q),
(788,120,o),
(837.5,125.5,q),
(887,131,o),
(932,140,q),
(1023,158,o),
(1068,180,q),
(1068,652,l),
(759,652,l),
(759,790,l),
(1235,790,l),
(1235,105,l),
(1141,34,o),
(902,-6,q),
(819,-20,o),
(713,-20,q),
(607,-20,o),
(518.5,1.5,q),
(430,23,o),
(368.5,64.5,q),
(307,106,o),
(269,168,q),
(231,230,o),
(210,311,q),
(176,447,o),
(176,646.5,q),
(176,846,o),
(183,961.5,q),
(190,1077,o),
(210.5,1170.5,q),
(231,1264,o),
(268,1335,q),
(305,1406,o),
(365,1454,q),
(487,1550,o),
(713,1550,q),
(971,1550,o),
(1154,1493,q),
(1205,1477,l),
(1165,1322,l)
);
},
{
closed = 1;
nodes = (
(1052,1649,o),
(741,1649,q),
(583,1649,o),
(501.5,1736,q),
(420,1823,o),
(420,1989,q),
(556,2000,l),
(558,1880,o),
(603.5,1826.5,q),
(649,1773,o),
(741,1773,q),
(881,1773,o),
(913,1892,q),
(924,1936,o),
(926,2000,q),
(1062,1989,l)
);
}
);
width = 1364;
}
);
unicode = 286;
},
{
category = Letter;
glyphname = gbreve;
layers = (
{
layerId = "d8941333-dd91-4113-af16-e7b241417dfa";
name = Fore;
shapes = (
{
closed = 1;
nodes = (
(1005,1190,l),
(1149,1190,l),
(1150,22,l),
(1150,-235,o),
(1049,-352,q),
(941,-476,o),
(684,-476,q),
(484,-476,o),
(329,-422,q),
(290,-409,o),
(269,-398,q),
(321,-257,l),
(339,-263,o),
(374,-276.5,q),
(409,-290,o),
(458,-303,q),
(582,-336,o),
(685.5,-336,q),
(789,-336,o),
(845,-315,q),
(901,-294,o),
(932,-250,q),
(984,-176,o),
(984,19,q),
(984,114,l),
(793,-20,o),
(580,-20,q),
(331,-20,o),
(248,157,q),
(200,257,o),
(192,410,q),
(189,480,o),
(189,564.5,q),
(189,649,o),
(190.5,735,q),
(192,821,o),
(203,894,q),
(214,967,o),
(237.5,1025.5,q),
(261,1084,o),
(305,1125,q),
(396,1210,o),
(585.5,1210,q),
(775,1210,o),
(989,1108,q)
);
},
{
closed = 1;
nodes = (
(804,1060,o),
(636,1060,q),
(514,1060,o),
(475,1040,q),
(436,1020,o),
(415.5,988,q),
(395,956,o),
(382,900,q),
(359,795,o),
(359,554,q),
(359,532,l),
(359,310,o),
(414,221,q),
(469,130,o),
(615,130,q),
(630,130,l),
(768,130,o),
(912,206,q),
(953,227,o),
(984,249,q),
(984,970,l)
);
},
{
closed = 1;
nodes = (
(1025,1393,o),
(714,1393,q),
(556,1393,o),
(474.5,1480,q),
(393,1567,o),
(393,1733,q),
(529,1744,l),
(531,1624,o),
(576.5,1570.5,q),
(622,1517,o),
(714,1517,q),
(854,1517,o),
(886,1637,q),
(897,1680,o),
(899,1744,q),
(1035,1733,l)
);
}
);
width = 1364;
}
);
unicode = 287;
},
{
category = Letter;
glyphname = Gdotaccent;
layers = (
{
layerId = "d8941333-dd91-4113-af16-e7b241417dfa";
name = Fore;
shapes = (
{
closed = 1;
nodes = (
(924,1406,o),
(702,1406,q),
(473,1406,o),
(404,1218,q),
(363,1107,o),
(358.5,965.5,q),
(354,824,o),
(354,721,q),
(354,622,l),
(354,303,o),
(461,199,q),
(525,137,o),
(632,126,q),
(682,120,o),
(735,120,q),
(788,120,o),
(837.5,125.5,q),
(887,131,o),
(932,140,q),
(1023,158,o),
(1068,180,q),
(1068,652,l),
(759,652,l),
(759,790,l),
(1235,790,l),
(1235,105,l),
(1141,34,o),
(902,-6,q),
(819,-20,o),
(713,-20,q),
(607,-20,o),
(518.5,1.5,q),
(430,23,o),
(368.5,64.5,q),
(307,106,o),
(269,168,q),
(231,230,o),
(210,311,q),
(176,447,o),
(176,646.5,q),
(176,846,o),
(183,961.5,q),
(190,1077,o),
(210.5,1170.5,q),
(231,1264,o),
(268,1335,q),
(305,1406,o),
(365,1454,q),
(487,1550,o),
(713,1550,q),
(971,1550,o),
(1154,1493,q),
(1205,1477,l),
(1165,1322,l)
);
},
{
closed = 1;
nodes = (
(678,1711,o),
(659,1730,q),
(629,1761,o),
(629,1815.5,q),
(629,1870,o),
(635.5,1893.5,q),
(642,1917,o),
(656,1930,q),
(679,1954,o),
(728.5,1954,q),
(778,1954,o),
(799.5,1949,q),
(821,1944,o),
(834,1930,q),
(859,1906,o),
(859,1851.5,q),
(859,1797,o),
(853.5,1773.5,q),
(848,1750,o),
(834,1736,q),
(810,1711,o),
(745,1711,q)
);
}
);
width = 1364;
}
);
unicode = 288;
},
{
category = Letter;
glyphname = gdotaccent;
layers = (
{
layerId = "d8941333-dd91-4113-af16-e7b241417dfa";
name = Fore;
shapes = (
{
closed = 1;
nodes = (
(1005,1190,l),
(1149,1190,l),
(1150,22,l),
(1150,-235,o),
(1049,-352,q),
(941,-476,o),
(684,-476,q),
(484,-476,o),
(329,-422,q),
(290,-409,o),
(269,-398,q),
(321,-257,l),
(339,-263,o),
(374,-276.5,q),
(409,-290,o),
(458,-303,q),
(582,-336,o),
(685.5,-336,q),
(789,-336,o),
(845,-315,q),
(901,-294,o),
(932,-250,q),
(984,-176,o),
(984,19,q),
(984,114,l),
(793,-20,o),
(580,-20,q),
(331,-20,o),
(248,157,q),
(200,257,o),
(192,410,q),
(189,480,o),
(189,564.5,q),
(189,649,o),
(190.5,735,q),
(192,821,o),
(203,894,q),
(214,967,o),
(237.5,1025.5,q),
(261,1084,o),
(305,1125,q),
(396,1210,o),
(585.5,1210,q),
(775,1210,o),
(989,1108,q)
);
},
{
closed = 1;
nodes = (
(804,1060,o),
(636,1060,q),
(514,1060,o),
(475,1040,q),
(436,1020,o),
(415.5,988,q),
(395,956,o),
(382,900,q),
(359,795,o),
(359,554,q),
(359,532,l),
(359,310,o),
(414,221,q),
(469,130,o),
(615,130,q),
(630,130,l),
(768,130,o),
(912,206,q),
(953,227,o),
(984,249,q),
(984,970,l)
);
},
{
closed = 1;
nodes = (
(603,1475,o),
(584,1494,q),
(554,1525,o),
(554,1579.5,q),
(554,1634,o),
(560.5,1657.5,q),
(567,1681,o),
(580,1694,q),
(604,1718,o),
(653.5,1718,q),
(703,1718,o),
(724.5,1713,q),
(746,1708,o),
(760,1694,q),
(784,1670,o),
(784,1615.5,q),
(784,1561,o),
(778.5,1537.5,q),
(773,1514,o),
(760,1500,q),
(735,1475,o),
(670,1475,q)
);
}
);
width = 1364;
}
);
unicode = 289;
},
{
category = Letter;
glyphname = Gcommaaccent;
layers = (
{
layerId = "d8941333-dd91-4113-af16-e7b241417dfa";
name = Fore;
shapes = (
{
closed = 1;
nodes = (
(924,1406,o),
(702,1406,q),
(473,1406,o),
(404,1218,q),
(363,1107,o),
(358.5,965.5,q),
(354,824,o),
(354,721,q),
(354,622,l),
(354,303,o),
(461,199,q),
(525,137,o),
(632,126,q),
(682,120,o),
(735,120,q),
(788,120,o),
(837.5,125.5,q),
(887,131,o),
(932,140,q),
(1023,158,o),
(1068,180,q),
(1068,652,l),
(759,652,l),
(759,790,l),
(1235,790,l),
(1235,105,l),
(1141,34,o),
(902,-6,q),
(819,-20,o),
(713,-20,q),
(607,-20,o),
(518.5,1.5,q),
(430,23,o),
(368.5,64.5,q),
(307,106,o),
(269,168,q),
(231,230,o),
(210,311,q),
(176,447,o),
(176,646.5,q),
(176,846,o),
(183,961.5,q),
(190,1077,o),
(210.5,1170.5,q),
(231,1264,o),
(268,1335,q),
(305,1406,o),
(365,1454,q),
(487,1550,o),
(713,1550,q),
(971,1550,o),
(1154,1493,q),
(1205,1477,l),
(1165,1322,l)
);
},
{
closed = 1;
nodes = (
(721,-127,o),
(739,-127,q),
(777,-127,l),
(807,-127,o),
(826,-135.5,q),
(845,-144,o),
(845,-162,q),
(845,-196,o),
(834,-222,q),
(707,-560,l),
(598,-560,l),
(669,-131,l),
(697,-129,l)
);
}
);
width = 1364;
}
);
unicode = 290;
},
{
category = Letter;
glyphname = gcommaaccent;
layers = (
{
layerId = "d8941333-dd91-4113-af16-e7b241417dfa";
name = Fore;
shapes = (
{
closed = 1;
nodes = (
(1005,1190,l),
(1149,1190,l),
(1150,22,l),
(1150,-235,o),
(1049,-352,q),
(941,-476,o),
(684,-476,q),
(484,-476,o),
(329,-422,q),
(290,-409,o),
(269,-398,q),
(321,-257,l),
(339,-263,o),
(374,-276.5,q),
(409,-290,o),
(458,-303,q),
(582,-336,o),
(685.5,-336,q),
(789,-336,o),
(845,-315,q),
(901,-294,o),
(932,-250,q),
(984,-176,o),
(984,19,q),
(984,114,l),
(793,-20,o),
(580,-20,q),
(331,-20,o),
(248,157,q),
(200,257,o),
(192,410,q),
(189,480,o),
(189,564.5,q),
(189,649,o),
(190.5,735,q),
(192,821,o),
(203,894,q),
(214,967,o),
(237.5,1025.5,q),
(261,1084,o),
(305,1125,q),
(396,1210,o),
(585.5,1210,q),
(775,1210,o),
(989,1108,q)
);
},
{
closed = 1;
nodes = (
(804,1060,o),
(636,1060,q),
(514,1060,o),
(475,1040,q),
(436,1020,o),
(415.5,988,q),
(395,956,o),
(382,900,q),
(359,795,o),
(359,554,q),
(359,532,l),
(359,310,o),
(414,221,q),
(469,130,o),
(615,130,q),
(630,130,l),
(768,130,o),
(912,206,q),
(953,227,o),
(984,249,q),
(984,970,l)
);
},
{
closed = 1;
nodes = (
(730,1378,o),
(712,1378,q),
(674,1378,l),
(644,1378,o),
(625,1386.5,q),
(606,1395,o),
(606,1413,q),
(606,1447,o),
(617,1473,q),
(744,1811,l),
(853,1811,l),
(782,1382,l),
(754,1380,l)
);
}
);
width = 1364;
}
);
unicode = 291;
},
{
category = Letter;
glyphname = Hcircumflex;
layers = (
{
layerId = "d8941333-dd91-4113-af16-e7b241417dfa";
name = Fore;
shapes = (
{
closed = 1;
nodes = (
(406,1530,l),
(406,839,l),
(1129,839,l),
(1129,1530,l),
(1298,1530,l),
(1298,0,l),
(1129,0,l),
(1129,694,l),
(406,694,l),
(406,0,l),
(236,0,l),
(236,1530,l)
);
},
{
closed = 1;
nodes = (
(694,1991,l),
(854,1991,l),
(1087,1743,l),
(1010,1663,l),
(773,1863,l),
(544,1662,l),
(470,1744,l)
);
}
);
width = 1534;
}
);
unicode = 292;
},
{
category = Letter;
glyphname = hcircumflex;
layers = (
{
layerId = "d8941333-dd91-4113-af16-e7b241417dfa";
name = Fore;
shapes = (
{
closed = 1;
nodes = (
(446,1991,l),
(606,1991,l),
(839,1743,l),
(762,1663,l),
(525,1863,l),
(296,1662,l),
(222,1744,l)
);
},
{
closed = 1;
nodes = (
(586,1055,o),
(390,940,q),
(390,0,l),
(224,0,l),
(224,1594,l),
(386,1610,l),
(386,1067,l),
(489,1155,o),
(654,1194,q),
(720,1210,o),
(810,1210,q),
(900,1210,o),
(968,1189.5,q),
(1036,1169,o),
(1076,1124,q),
(1148,1043,o),
(1148,829,q),
(1148,0,l),
(980,0,l),
(980,799,l),
(980,943,o),
(952,984.5,q),
(924,1026,o),
(885.5,1040.5,q),
(847,1055,o),
(785,1055,q)
);
}
);
width = 1364;
}
);
unicode = 293;
},
{
category = Letter;
glyphname = Hbar;
layers = (
{
layerId = "d8941333-dd91-4113-af16-e7b241417dfa";
name = Fore;
shapes = (
{
closed = 1;
nodes = (
(82,1063,l),
(82,1198,l),
(236,1198,l),
(236,1530,l),
(406,1530,l),
(406,1198,l),
(1129,1198,l),
(1129,1530,l),
(1298,1530,l),
(1298,1198,l),
(1452,1198,l),
(1452,1063,l),
(1298,1063,l),
(1298,0,l),
(1129,0,l),
(1129,694,l),
(406,694,l),
(406,0,l),
(236,0,l),
(236,1063,l)
);
},
{
closed = 1;
nodes = (
(1129,1063,l),
(406,1063,l),
(406,839,l),
(1129,839,l)
);
}
);
width = 1534;
}
);
unicode = 294;
},
{
category = Letter;
glyphname = hbar;
layers = (
{
layerId = "d8941333-dd91-4113-af16-e7b241417dfa";
name = Fore;
shapes = (
{
closed = 1;
nodes = (
(586,1055,o),
(390,940,q),
(390,0,l),
(224,0,l),
(224,1402,l),
(66,1402,l),
(66,1530,l),
(224,1530,l),
(224,1702,l),
(386,1718,l),
(386,1530,l),
(765,1530,l),
(765,1402,l),
(386,1402,l),
(386,1067,l),
(489,1155,o),
(654,1194,q),
(720,1210,o),
(810,1210,q),
(900,1210,o),
(968,1189.5,q),
(1036,1169,o),
(1076,1124,q),
(1148,1043,o),
(1148,829,q),
(1148,0,l),
(980,0,l),
(980,799,l),
(980,943,o),
(952,984.5,q),
(924,1026,o),
(885.5,1040.5,q),
(847,1055,o),
(785,1055,q)
);
}
);
width = 1364;
}
);
unicode = 295;
},
{
category = Letter;
glyphname = Itilde;
layers = (
{
layerId = "d8941333-dd91-4113-af16-e7b241417dfa";
name = Fore;
shapes = (
{
closed = 1;
nodes = (
(426,1530,l),
(426,0,l),
(257,0,l),
(257,1530,l)
);
},
{
closed = 1;
nodes = (
(626,1696,o),
(459,1696,q),
(411,1696,o),
(326,1756,q),
(295,1778,o),
(264.5,1796.5,q),
(234,1815,o),
(210,1815,q),
(186,1815,o),
(165.5,1805,q),
(145,1795,o),
(122,1779,q),
(99,1763,o),
(75,1742,q),
(29,1702,l),
(-42,1765,l),
(14,1868,o),
(84.5,1914.5,q),
(155,1961,o),
(224,1961,q),
(237,1961,l),
(292,1961,o),
(373,1904,q),
(429,1865,l),
(455,1847,o),
(478,1847,q),
(501,1847,o),
(521,1858.5,q),
(541,1870,o),
(560.5,1889,q),
(580,1908,o),
(599,1932,q),
(638,1982,l),
(725,1926,l)
);
}
);
width = 683;
}
);
unicode = 296;
},
{
category = Letter;
glyphname = itilde;
layers = (
{
layerId = "d8941333-dd91-4113-af16-e7b241417dfa";
name = Fore;
shapes = (
{
closed = 1;
nodes = (
(425,1188,l),
(425,0,l),
(263,0,l),
(261,1188,l)
);
},
{
closed = 1;
nodes = (
(629,1410,o),
(462,1410,q),
(414,1410,o),
(329,1470,q),
(298,1492,o),
(267.5,1510.5,q),
(237,1529,o),
(213,1529,q),
(189,1529,o),
(168.5,1519,q),
(148,1509,o),
(125,1493,q),
(102,1477,o),
(78,1456,q),
(32,1416,l),
(-39,1479,l),
(17,1582,o),
(87.5,1628.5,q),
(158,1675,o),
(227,1675,q),
(240,1675,l),
(295,1675,o),
(376,1618,q),
(432,1579,l),
(458,1561,o),
(481,1561,q),
(504,1561,o),
(524,1572.5,q),
(544,1584,o),
(563.5,1603,q),
(583,1622,o),
(602,1646,q),
(641,1696,l),
(728,1640,l)
);
}
);
width = 683;
}
);
unicode = 297;
},
{
category = Letter;
glyphname = Imacron;
layers = (
{
layerId = "d8941333-dd91-4113-af16-e7b241417dfa";
name = Fore;
shapes = (
{
closed = 1;
nodes = (
(426,1530,l),
(426,0,l),
(257,0,l),
(257,1530,l)
);
},
{
closed = 1;
nodes = (
(642,1876,l),
(642,1741,l),
(43,1741,l),
(43,1876,l)
);
}
);
width = 683;
}
);
unicode = 298;
},
{
category = Letter;
glyphname = imacron;
layers = (
{
layerId = "d8941333-dd91-4113-af16-e7b241417dfa";
name = Fore;
shapes = (
{
closed = 1;
nodes = (
(425,1188,l),
(425,0,l),
(263,0,l),
(261,1188,l)
);
},
{
closed = 1;
nodes = (
(644,1663,l),
(644,1528,l),
(45,1528,l),
(45,1663,l)
);
}
);
width = 683;
}
);
unicode = 299;
},
{
category = Letter;
glyphname = Ibreve;
layers = (
{
layerId = "d8941333-dd91-4113-af16-e7b241417dfa";
name = Fore;
shapes = (
{
closed = 1;
nodes = (
(426,1530,l),
(426,0,l),
(257,0,l),
(257,1530,l)
);
},
{
closed = 1;
nodes = (
(653,1649,o),
(342,1649,q),
(184,1649,o),
(102.5,1736,q),
(21,1823,o),
(21,1989,q),
(157,2000,l),
(159,1880,o),
(204.5,1826.5,q),
(250,1773,o),
(342,1773,q),
(482,1773,o),
(514,1892,q),
(525,1936,o),
(527,2000,q),
(663,1989,l)
);
}
);
width = 683;
}
);
unicode = 300;
},
{
category = Letter;
glyphname = ibreve;
layers = (
{
layerId = "d8941333-dd91-4113-af16-e7b241417dfa";
name = Fore;
shapes = (
{
closed = 1;
nodes = (
(425,1188,l),
(425,0,l),
(263,0,l),
(261,1188,l)
);
},
{
closed = 1;
nodes = (
(652,1393,o),
(341,1393,q),
(183,1393,o),
(101.5,1480,q),
(20,1567,o),
(20,1733,q),
(156,1744,l),
(158,1624,o),
(203.5,1570.5,q),
(249,1517,o),
(341,1517,q),
(481,1517,o),
(513,1637,q),
(524,1680,o),
(526,1744,q),
(662,1733,l)
);
}
);
width = 683;
}
);
unicode = 301;
},
{
category = Letter;
glyphname = Iogonek;
layers = (
{
layerId = "d8941333-dd91-4113-af16-e7b241417dfa";
name = Fore;
shapes = (
{
closed = 1;
nodes = (
(79,-124,o),
(258,0,q),
(257,0,l),
(257,1530,l),
(426,1530,l),
(426,0,l),
(415,0,l),
(269,-88,o),
(233,-198,q),
(223,-229,o),
(223,-252,q),
(223,-339,o),
(328,-339,q),
(403,-339,o),
(477,-308,q),
(517,-433,l),
(451,-475,o),
(339,-475,q),
(79,-475,o),
(79,-276,q)
);
}
);
width = 683;
}
);
unicode = 302;
},
{
category = Letter;
glyphname = iogonek;
layers = (
{
layerId = "d8941333-dd91-4113-af16-e7b241417dfa";
name = Fore;
shapes = (
{
closed = 1;
nodes = (
(275,1475,o),
(256,1494,q),
(226,1525,o),
(226,1579.5,q),
(226,1634,o),
(232.5,1657.5,q),
(239,1681,o),
(252,1694,q),
(276,1718,o),
(325.5,1718,q),
(375,1718,o),
(396.5,1713,q),
(418,1708,o),
(432,1694,q),
(456,1670,o),
(456,1615.5,q),
(456,1561,o),
(450.5,1537.5,q),
(445,1514,o),
(432,1500,q),
(407,1475,o),
(342,1475,q)
);
},
{
closed = 1;
nodes = (
(89,-123,o),
(266,0,q),
(263,0,l),
(261,1190,l),
(425,1190,l),
(425,0,l),
(423,0,l),
(279,-87,o),
(243,-198,q),
(233,-228,o),
(233,-251,q),
(233,-338,o),
(338,-338,q),
(413,-338,o),
(487,-307,q),
(527,-432,l),
(461,-474,o),
(349,-474,q),
(89,-474,o),
(89,-275,q)
);
}
);
width = 683;
}
);
unicode = 303;
},
{
category = Letter;
glyphname = Idotaccent;
layers = (
{
layerId = "d8941333-dd91-4113-af16-e7b241417dfa";
name = Fore;
shapes = (
{
closed = 1;
nodes = (
(426,1530,l),
(426,0,l),
(257,0,l),
(257,1530,l)
);
},
{
closed = 1;
nodes = (
(274,1711,o),
(255,1730,q),
(225,1761,o),
(225,1815.5,q),
(225,1870,o),
(231.5,1893.5,q),
(238,1917,o),
(252,1930,q),
(275,1954,o),
(324.5,1954,q),
(374,1954,o),
(395.5,1949,q),
(417,1944,o),
(430,1930,q),
(455,1906,o),
(455,1851.5,q),
(455,1797,o),
(449.5,1773.5,q),
(444,1750,o),
(430,1736,q),
(406,1711,o),
(341,1711,q)
);
}
);
width = 683;
}
);
unicode = 304;
},
{
category = Letter;
glyphname = dotlessi;
layers = (
{
layerId = "d8941333-dd91-4113-af16-e7b241417dfa";
name = Fore;
shapes = (
{
closed = 1;
nodes = (
(425,1188,l),
(425,0,l),
(263,0,l),
(261,1188,l)
);
}
);
width = 683;
}
);
unicode = 305;
},
{
category = Letter;
glyphname = IJ;
layers = (
{
layerId = "d8941333-dd91-4113-af16-e7b241417dfa";
name = Fore;
shapes = (
{
closed = 1;
nodes = (
(426,1530,l),
(426,0,l),
(257,0,l),
(257,1530,l)
);
},
{
closed = 1;
nodes = (
(715,182,o),
(738,171,q),
(847,119,o),
(969,119,q),
(1075,119,o),
(1119,185,q),
(1161,249,o),
(1161,404,q),
(1161,1530,l),
(1329,1530,l),
(1329,516,l),
(1329,329,o),
(1313.5,252,q),
(1298,175,o),
(1274.5,128,q),
(1251,81,o),
(1211,48,q),
(1129,-20,o),
(969,-20,q),
(831,-20,o),
(710,30,q),
(681,42,o),
(666,51,q),
(715,182,l)
);
}
);
width = 1536;
}
);
unicode = 306;
},
{
category = Letter;
glyphname = ij;
layers = (
{
layerId = "d8941333-dd91-4113-af16-e7b241417dfa";
name = Fore;
shapes = (
{
closed = 1;
nodes = (
(275,1475,o),
(256,1494,q),
(226,1525,o),
(226,1579.5,q),
(226,1634,o),
(232.5,1657.5,q),
(239,1681,o),
(252,1694,q),
(276,1718,o),
(325.5,1718,q),
(375,1718,o),
(396.5,1713,q),
(418,1708,o),
(432,1694,q),
(456,1670,o),
(456,1615.5,q),
(456,1561,o),
(450.5,1537.5,q),
(445,1514,o),
(432,1500,q),
(407,1475,o),
(342,1475,q)
);
},
{
closed = 1;
nodes = (
(425,1190,l),
(425,0,l),
(263,0,l),
(261,1190,l)
);
},
{
closed = 1;
nodes = (
(955,1475,o),
(936,1494,q),
(906,1525,o),
(906,1579.5,q),
(906,1634,o),
(912.5,1657.5,q),
(919,1681,o),
(933,1694,q),
(956,1718,o),
(1005.5,1718,q),
(1055,1718,o),
(1076.5,1713,q),
(1098,1708,o),
(1111,1694,q),
(1136,1670,o),
(1136,1615.5,q),
(1136,1561,o),
(1130.5,1537.5,q),
(1125,1514,o),
(1111,1500,q),
(1087,1475,o),
(1022,1475,q)
);
},
{
closed = 1;
nodes = (
(827,-340,o),
(868.5,-335.5,q),
(910,-331,o),
(926.5,-302,q),
(943,-273,o),
(943,-208,q),
(943,1190,l),
(1104,1190,l),
(1104,-193,l),
(1104,-326,o),
(1061,-392,q),
(1008,-475,o),
(877,-475,q),
(754,-475,o),
(691,-440,q),
(736,-317,l)
);
}
);
width = 1366;
}
);
unicode = 307;
},
{
category = Letter;
glyphname = Jcircumflex;
layers = (
{
layerId = "d8941333-dd91-4113-af16-e7b241417dfa";
name = Fore;
shapes = (
{
closed = 1;
nodes = (
(32,182,o),
(55,171,q),
(164,119,o),
(286,119,q),
(392,119,o),
(436,185,q),
(478,249,o),
(478,404,q),
(478,1530,l),
(646,1530,l),
(646,516,l),
(646,329,o),
(630.5,252,q),
(615,175,o),
(591.5,128,q),
(568,81,o),
(528,48,q),
(446,-20,o),
(286,-20,q),
(148,-20,o),
(27,30,q),
(-2,42,o),
(-17,51,q),
(32,182,l)
);
},
{
closed = 1;
nodes = (
(479,1991,l),
(639,1991,l),
(872,1743,l),
(795,1663,l),
(558,1863,l),
(329,1662,l),
(255,1744,l)
);
}
);
width = 853;
}
);
unicode = 308;
},
{
category = Letter;
glyphname = jcircumflex;
layers = (
{
layerId = "d8941333-dd91-4113-af16-e7b241417dfa";
name = Fore;
shapes = (
{
closed = 1;
nodes = (
(144,-340,o),
(185.5,-335.5,q),
(227,-331,o),
(243.5,-302,q),
(260,-273,o),
(260,-208,q),
(260,1190,l),
(421,1190,l),
(421,-193,l),
(421,-326,o),
(378,-392,q),
(325,-475,o),
(194,-475,q),
(71,-475,o),
(8,-440,q),
(53,-317,l)
);
},
{
closed = 1;
nodes = (
(275,1830,l),
(396,1830,l),
(684,1480,l),
(603,1400,l),
(337,1665,l),
(78,1400,l),
(-4,1479,l)
);
}
);
width = 683;
}
);
unicode = 309;
},
{
category = Letter;
glyphname = Kcommaaccent;
layers = (
{
layerId = "d8941333-dd91-4113-af16-e7b241417dfa";
name = Fore;
shapes = (
{
closed = 1;
nodes = (
(406,687,l),
(406,0,l),
(236,0,l),
(236,1530,l),
(406,1530,l),
(406,812,l),
(462,812,o),
(479,820.5,q),
(496,829,o),
(519,845.5,q),
(542,862,o),
(587,913.5,q),
(632,965,o),
(683,1031,q),
(818,1214,o),
(875,1299,q),
(968,1441,l),
(1004,1498,o),
(1022,1531,q),
(1220,1531,l),
(1211,1511,o),
(1185,1470,q),
(1098,1336,o),
(1046,1264,q),
(854,1005,l),
(767,898,l),
(678,792,o),
(649,781,q),
(649,772,l),
(680,760,l),
(749,734,o),
(857,591,q),
(1297,0,l),
(1080,0,l),
(759,454,l),
(598,680,o),
(486,687,q),
(470,688,o),
(453,688,q)
);
},
{
closed = 1;
nodes = (
(690,-127,o),
(709,-127,q),
(746,-127,l),
(776,-127,o),
(795,-135.5,q),
(814,-144,o),
(814,-162,q),
(814,-196,o),
(803,-222,q),
(676,-560,l),
(567,-560,l),
(638,-131,l),
(666,-129,l)
);
}
);
width = 1364;
}
);
unicode = 310;
},
{
category = Letter;
glyphname = kcommaaccent;
layers = (
{
layerId = "d8941333-dd91-4113-af16-e7b241417dfa";
name = Fore;
shapes = (
{
closed = 1;
nodes = (
(386,1716,l),
(386,684,l),
(426,676,o),
(482.5,725,q),
(539,774,o),
(583,818.5,q),
(627,863,o),
(674,916,q),
(843,1111,o),
(896,1190,q),
(1094,1190,l),
(1072,1140,o),
(993,1048,q),
(859,897,l),
(750,780,o),
(684.5,724,q),
(619,668,o),
(598,660,q),
(598,650,l),
(628,635,l),
(693,604,o),
(798,470,q),
(1171,0,l),
(961,0,l),
(707,333,l),
(531,563,o),
(438,571,q),
(416,573,l),
(406,574,o),
(398,573.5,q),
(390,573,o),
(386,573,q),
(386,0,l),
(220,0,l),
(220,1698,l)
);
},
{
closed = 1;
nodes = (
(626,-127,o),
(644,-127,q),
(682,-127,l),
(712,-127,o),
(731,-135.5,q),
(750,-144,o),
(750,-162,q),
(750,-196,o),
(739,-222,q),
(612,-560,l),
(503,-560,l),
(574,-131,l),
(602,-129,l)
);
}
);
width = 1192;
}
);
unicode = 311;
},
{
category = Letter;
glyphname = kgreenlandic;
layers = (
{
layerId = "d8941333-dd91-4113-af16-e7b241417dfa";
name = Fore;
shapes = (
{
closed = 1;
nodes = (
(386,1204,l),
(386,665,l),
(430,656,o),
(503,722,q),
(578,791,o),
(650,875,q),
(837,1102,o),
(896,1190,q),
(1094,1190,l),
(1066,1129,o),
(983,1031,q),
(787,805,o),
(728,749,q),
(627,652,o),
(598,641,q),
(598,631,l),
(612,624,o),
(630.5,616.5,q),
(649,609,o),
(674,592,q),
(729,555,o),
(798,470,q),
(1171,0,l),
(960,0,l),
(707,333,l),
(582,495,o),
(498,533,q),
(459,550,o),
(443,552,q),
(416,554,l),
(406,555,o),
(398,554.5,q),
(390,554,o),
(386,554,q),
(386,0,l),
(220,0,l),
(220,1186,l)
);
}
);
width = 1192;
}
);
unicode = 312;
},
{
category = Letter;
glyphname = Lacute;
layers = (
{
layerId = "d8941333-dd91-4113-af16-e7b241417dfa";
name = Fore;
shapes = (
{
closed = 1;
nodes = (
(405,1530,l),
(405,147,l),
(1011,147,l),
(1011,0,l),
(235,0,l),
(235,1530,l)
);
},
{
closed = 1;
nodes = (
(640,2000,l),
(733,1841,l),
(274,1649,l),
(224,1741,l)
);
}
);
width = 1026;
}
);
unicode = 313;
},
{
category = Letter;
glyphname = lacute;
layers = (
{
layerId = "d8941333-dd91-4113-af16-e7b241417dfa";
name = Fore;
shapes = (
{
closed = 1;
nodes = (
(542,2000,l),
(627,1852,l),
(235,1684,l),
(185,1776,l)
);
},
{
closed = 1;
nodes = (
(424,1610,l),
(424,0,l),
(261,0,l),
(259,1596,l)
);
}
);
width = 683;
}
);
unicode = 314;
},
{
category = Letter;
glyphname = Lcommaaccent;
layers = (
{
layerId = "d8941333-dd91-4113-af16-e7b241417dfa";
name = Fore;
shapes = (
{
closed = 1;
nodes = (
(405,1530,l),
(405,147,l),
(1011,147,l),
(1011,0,l),
(235,0,l),
(235,1530,l)
);
},
{
closed = 1;
nodes = (
(584,-127,o),
(603,-127,q),
(640,-127,l),
(670,-127,o),
(689,-135.5,q),
(708,-144,o),
(708,-162,q),
(708,-196,o),
(697,-222,q),
(570,-560,l),
(461,-560,l),
(532,-131,l),
(560,-129,l)
);
}
);
width = 1026;
}
);
unicode = 315;
},
{
category = Letter;
glyphname = lcommaaccent;
layers = (
{
layerId = "d8941333-dd91-4113-af16-e7b241417dfa";
name = Fore;
shapes = (
{
closed = 1;
nodes = (
(424,1714,l),
(424,0,l),
(261,0,l),
(259,1700,l)
);
},
{
closed = 1;
nodes = (
(321,-127,o),
(339,-127,q),
(377,-127,l),
(407,-127,o),
(426,-135.5,q),
(445,-144,o),
(445,-162,q),
(445,-196,o),
(434,-222,q),
(307,-560,l),
(198,-560,l),
(269,-131,l),
(297,-129,l)
);
}
);
width = 683;
}
);
unicode = 316;
},
{
category = Letter;
glyphname = Lcaron;
layers = (
{
layerId = "d8941333-dd91-4113-af16-e7b241417dfa";
name = Fore;
shapes = (
{
closed = 1;
nodes = (
(405,1530,l),
(405,147,l),
(1011,147,l),
(1011,0,l),
(235,0,l),
(235,1530,l)
);
},
{
closed = 1;
nodes = (
(823,1524,o),
(823,1477,q),
(823,1464,o),
(818,1429,q),
(766,1091,l),
(654,1091,l),
(654,1510,l),
(676,1514,l),
(734,1524,o),
(772,1524,q)
);
}
);
width = 1026;
}
);
unicode = 317;
},
{
category = Letter;
glyphname = lcaron;
layers = (
{
layerId = "d8941333-dd91-4113-af16-e7b241417dfa";
name = Fore;
shapes = (
{
closed = 1;
nodes = (
(424,1714,l),
(424,0,l),
(261,0,l),
(259,1700,l)
);
},
{
closed = 1;
nodes = (
(752,1713,o),
(752,1666,q),
(752,1653,o),
(747,1618,q),
(695,1280,l),
(583,1280,l),
(583,1699,l),
(605,1703,l),
(663,1713,o),
(701,1713,q)
);
}
);
width = 683;
}
);
unicode = 318;
},
{
category = Letter;
glyphname = Ldot;
layers = (
{
layerId = "d8941333-dd91-4113-af16-e7b241417dfa";
name = Fore;
shapes = (
{
closed = 1;
nodes = (
(405,1530,l),
(405,147,l),
(1011,147,l),
(1011,0,l),
(235,0,l),
(235,1530,l)
);
},
{
closed = 1;
nodes = (
(635,744,o),
(635,783.5,q),
(635,823,o),
(640.5,848,q),
(646,873,o),
(660,887,q),
(683,913,o),
(735,913,q),
(787,913,o),
(809.5,907.5,q),
(832,902,o),
(845,887,q),
(868,862,o),
(868,784,q),
(868,706,o),
(850,685,q),
(822,652,o),
(752,652,q),
(682,652,o),
(663.5,672.5,q),
(645,693,o),
(640,718.5,q)
);
}
);
width = 1026;
}
);
unicode = 319;
},
{
category = Letter;
glyphname = ldot;
layers = (
{
layerId = "d8941333-dd91-4113-af16-e7b241417dfa";
name = Fore;
shapes = (
{
closed = 1;
nodes = (
(424,1714,l),
(424,0,l),
(261,0,l),
(259,1700,l)
);
},
{
closed = 1;
nodes = (
(734,738,o),
(734,777.5,q),
(734,817,o),
(739.5,842,q),
(745,867,o),
(759,881,q),
(782,907,o),
(834,907,q),
(886,907,o),
(908.5,901.5,q),
(931,896,o),
(944,881,q),
(967,856,o),
(967,778,q),
(967,700,o),
(949,679,q),
(921,646,o),
(851,646,q),
(781,646,o),
(762.5,666.5,q),
(744,687,o),
(739,712.5,q)
);
}
);
width = 1024;
}
);
unicode = 320;
},
{
category = Letter;
glyphname = Lslash;
layers = (
{
layerId = "d8941333-dd91-4113-af16-e7b241417dfa";
name = Fore;
shapes = (
{
closed = 1;
nodes = (
(62,364,l),
(54,519,l),
(235,662,l),
(235,1530,l),
(405,1530,l),
(405,799,l),
(720,1060,l),
(728,895,l),
(405,640,l),
(405,147,l),
(1011,147,l),
(1011,0,l),
(235,0,l),
(235,504,l)
);
}
);
width = 1026;
}
);
unicode = 321;
},
{
category = Letter;
glyphname = lslash;
layers = (
{
layerId = "d8941333-dd91-4113-af16-e7b241417dfa";
name = Fore;
shapes = (
{
closed = 1;
nodes = (
(82,536,l),
(74,695,l),
(261,865,l),
(260,1700,l),
(423,1714,l),
(423,1015,l),
(630,1211,l),
(638,1049,l),
(423,854,l),
(423,0,l),
(262,0,l),
(261,704,l)
);
}
);
width = 683;
}
);
unicode = 322;
},
{
category = Letter;
glyphname = Nacute;
layers = (
{
layerId = "d8941333-dd91-4113-af16-e7b241417dfa";
name = Fore;
shapes = (
{
closed = 1;
nodes = (
(371,1530,l),
(1075,418,l),
(1166,229,l),
(1144,439,l),
(1144,1530,l),
(1299,1530,l),
(1299,0,l),
(1156,0,l),
(457,1109,l),
(369,1281,l),
(391,1077,l),
(391,0,l),
(236,0,l),
(236,1530,l)
);
},
{
closed = 1;
nodes = (
(1017,2000,l),
(1110,1841,l),
(651,1649,l),
(601,1741,l)
);
}
);
width = 1536;
}
);
unicode = 323;
},
{
category = Letter;
glyphname = nacute;
layers = (
{
layerId = "d8941333-dd91-4113-af16-e7b241417dfa";
name = Fore;
shapes = (
{
closed = 1;
nodes = (
(591,1054,o),
(389,939,q),
(389,0,l),
(223,0,l),
(223,1190,l),
(369,1190,l),
(385,1067,l),
(494,1156,o),
(656,1194,q),
(722,1210,o),
(811,1210,q),
(900,1210,o),
(968,1189.5,q),
(1036,1169,o),
(1076,1124,q),
(1149,1043,o),
(1149,829,q),
(1149,0,l),
(981,0,l),
(981,798,l),
(981,942,o),
(953,983.5,q),
(925,1025,o),
(886.5,1039.5,q),
(848,1054,o),
(786,1054,q)
);
},
{
closed = 1;
nodes = (
(904,1837,l),
(1034,1716,l),
(664,1399,l),
(581,1486,l)
);
}
);
width = 1364;
}
);
unicode = 324;
},
{
category = Letter;
glyphname = Ncommaaccent;
layers = (
{
layerId = "d8941333-dd91-4113-af16-e7b241417dfa";
name = Fore;
shapes = (
{
closed = 1;
nodes = (
(371,1530,l),
(1075,418,l),
(1166,229,l),
(1144,439,l),
(1144,1530,l),
(1299,1530,l),
(1299,0,l),
(1156,0,l),
(457,1109,l),
(369,1281,l),
(391,1077,l),
(391,0,l),
(236,0,l),
(236,1530,l)
);
},
{
closed = 1;
nodes = (
(732,-127,o),
(751,-127,q),
(788,-127,l),
(818,-127,o),
(837,-135.5,q),
(856,-144,o),
(856,-162,q),
(856,-196,o),
(845,-222,q),
(718,-560,l),
(609,-560,l),
(680,-131,l),
(708,-129,l)
);
}
);
width = 1536;
}
);
unicode = 325;
},
{
category = Letter;
glyphname = ncommaaccent;
layers = (
{
layerId = "d8941333-dd91-4113-af16-e7b241417dfa";
name = Fore;
shapes = (
{
closed = 1;
nodes = (
(591,1054,o),
(389,939,q),
(389,0,l),
(223,0,l),
(223,1190,l),
(369,1190,l),
(385,1067,l),
(494,1156,o),
(656,1194,q),
(722,1210,o),
(811,1210,q),
(900,1210,o),
(968,1189.5,q),
(1036,1169,o),
(1076,1124,q),
(1149,1043,o),
(1149,829,q),
(1149,0,l),
(981,0,l),
(981,798,l),
(981,942,o),
(953,983.5,q),
(925,1025,o),
(886.5,1039.5,q),
(848,1054,o),
(786,1054,q)
);
},
{
closed = 1;
nodes = (
(672,-127,o),
(690,-127,q),
(728,-127,l),
(758,-127,o),
(777,-135.5,q),
(796,-144,o),
(796,-162,q),
(796,-196,o),
(785,-222,q),
(658,-560,l),
(549,-560,l),
(620,-131,l),
(648,-129,l)
);
}
);
width = 1364;
}
);
unicode = 326;
},
{
category = Letter;
glyphname = Ncaron;
layers = (
{
layerId = "d8941333-dd91-4113-af16-e7b241417dfa";
name = Fore;
shapes = (
{
closed = 1;
nodes = (
(371,1530,l),
(1075,418,l),
(1166,229,l),
(1144,439,l),
(1144,1530,l),
(1299,1530,l),
(1299,0,l),
(1156,0,l),
(457,1109,l),
(369,1281,l),
(391,1077,l),
(391,0,l),
(236,0,l),
(236,1530,l)
);
},
{
closed = 1;
nodes = (
(544,1997,l),
(781,1797,l),
(1010,1998,l),
(1084,1916,l),
(860,1669,l),
(700,1669,l),
(467,1917,l)
);
}
);
width = 1536;
}
);
unicode = 327;
},
{
category = Letter;
glyphname = ncaron;
layers = (
{
layerId = "d8941333-dd91-4113-af16-e7b241417dfa";
name = Fore;
shapes = (
{
closed = 1;
nodes = (
(591,1054,o),
(389,939,q),
(389,0,l),
(223,0,l),
(223,1190,l),
(369,1190,l),
(385,1067,l),
(494,1156,o),
(656,1194,q),
(722,1210,o),
(811,1210,q),
(900,1210,o),
(968,1189.5,q),
(1036,1169,o),
(1076,1124,q),
(1149,1043,o),
(1149,829,q),
(1149,0,l),
(981,0,l),
(981,798,l),
(981,942,o),
(953,983.5,q),
(925,1025,o),
(886.5,1039.5,q),
(848,1054,o),
(786,1054,q)
);
},
{
closed = 1;
nodes = (
(424,1837,l),
(690,1572,l),
(949,1837,l),
(1031,1757,l),
(752,1407,l),
(631,1407,l),
(343,1757,l)
);
}
);
width = 1364;
}
);
unicode = 328;
},
